G04 RFH-2 top cover - generated from RFH-2.brd*
G75*
%MOMM*%
%FSLAX44Y44*%
%LPD*%
%INSilkscreen Top*%
%IPPOS*%
G01*
%ADD10C,0.200000*%
D10*
X278279Y747400D02*
X256507Y747400D01*
X267393Y747400D02*
X267393Y785500D01*
X263764Y780057D01*
X260136Y776429D01*
X256507Y774614D01*
X472407Y781871D02*
X474221Y783686D01*
X477850Y785500D01*
X486921Y785500D01*
X490550Y783686D01*
X492364Y781871D01*
X494179Y778243D01*
X494179Y774614D01*
X492364Y769171D01*
X470593Y747400D01*
X494179Y747400D01*
X673793Y785500D02*
X697379Y785500D01*
X684679Y770986D01*
X690121Y770986D01*
X693750Y769171D01*
X695564Y767357D01*
X697379Y763729D01*
X697379Y754657D01*
X695564Y751029D01*
X693750Y749214D01*
X690121Y747400D01*
X679236Y747400D01*
X675607Y749214D01*
X673793Y751029D01*
X274650Y582300D02*
X274650Y556900D01*
X265579Y596814D02*
X256507Y569600D01*
X280093Y569600D01*
X695564Y595000D02*
X677421Y595000D01*
X675607Y576857D01*
X677421Y578671D01*
X681050Y580486D01*
X690121Y580486D01*
X693750Y578671D01*
X695564Y576857D01*
X697379Y573229D01*
X697379Y564157D01*
X695564Y560529D01*
X693750Y558714D01*
X690121Y556900D01*
X681050Y556900D01*
X677421Y558714D01*
X675607Y560529D01*
X445798Y556900D02*
X445798Y582300D01*
X454264Y564157D01*
X462731Y582300D01*
X462731Y556900D01*
X474826Y570205D02*
X483293Y570205D01*
X486921Y556900D02*
X474826Y556900D01*
X474826Y582300D01*
X486921Y582300D01*
X497807Y556900D02*
X497807Y582300D01*
X506274Y564157D01*
X514740Y582300D01*
X514740Y556900D01*
X242598Y366400D02*
X242598Y391800D01*
X248645Y391800D01*
X252274Y390590D01*
X254693Y388171D01*
X255902Y385752D01*
X257112Y380914D01*
X257112Y377286D01*
X255902Y372448D01*
X254693Y370029D01*
X252274Y367610D01*
X248645Y366400D01*
X242598Y366400D01*
X267998Y379705D02*
X276464Y379705D01*
X280093Y366400D02*
X267998Y366400D01*
X267998Y391800D01*
X280093Y391800D01*
X305493Y368819D02*
X304283Y367610D01*
X300655Y366400D01*
X298236Y366400D01*
X294607Y367610D01*
X292188Y370029D01*
X290979Y372448D01*
X289769Y377286D01*
X289769Y380914D01*
X290979Y385752D01*
X292188Y388171D01*
X294607Y390590D01*
X298236Y391800D01*
X300655Y391800D01*
X304283Y390590D01*
X305493Y389381D01*
X661698Y368300D02*
X661698Y393700D01*
X671374Y393700D01*
X673793Y392490D01*
X675002Y391281D01*
X676212Y388862D01*
X676212Y385233D01*
X675002Y382814D01*
X673793Y381605D01*
X671374Y380395D01*
X661698Y380395D01*
X705240Y394910D02*
X683469Y362252D01*
X722174Y381605D02*
X725802Y380395D01*
X727012Y379186D01*
X728221Y376767D01*
X728221Y373138D01*
X727012Y370719D01*
X725802Y369510D01*
X723383Y368300D01*
X713707Y368300D01*
X713707Y393700D01*
X722174Y393700D01*
X724593Y392490D01*
X725802Y391281D01*
X727012Y388862D01*
X727012Y386443D01*
X725802Y384024D01*
X724593Y382814D01*
X722174Y381605D01*
X713707Y381605D01*
G36*
X452450Y328300D02*
X503250Y328300D01*
X503250Y341000D01*
X477850Y366400D01*
X452450Y341000D01*
X452450Y328300D01*
G37*
G36*
X452450Y201300D02*
X503250Y201300D01*
X503250Y188600D01*
X477850Y163200D01*
X452450Y188600D01*
X452450Y201300D01*
G37*
G36*
X270840Y220350D02*
X270840Y169550D01*
X258140Y169550D01*
X232740Y194950D01*
X258140Y220350D01*
X270840Y220350D01*
G37*
G36*
X655650Y214000D02*
X655650Y163200D01*
X668350Y163200D01*
X693750Y188600D01*
X668350Y214000D01*
X655650Y214000D01*
G37*
X50000Y314571D02*
X41429Y308571D01*
X50000Y304286D02*
X32000Y304286D01*
X32000Y311143D01*
X32857Y312857D01*
X33714Y313714D01*
X35429Y314571D01*
X38000Y314571D01*
X39714Y313714D01*
X40571Y312857D01*
X41429Y311143D01*
X41429Y304286D01*
X40571Y328286D02*
X40571Y322286D01*
X50000Y322286D02*
X32000Y322286D01*
X32000Y330857D01*
X50000Y337714D02*
X32000Y337714D01*
X40571Y337714D02*
X40571Y348000D01*
X50000Y348000D02*
X32000Y348000D01*
X43143Y356571D02*
X43143Y370286D01*
X33714Y378000D02*
X32857Y378857D01*
X32000Y380571D01*
X32000Y384857D01*
X32857Y386571D01*
X33714Y387429D01*
X35429Y388286D01*
X37143Y388286D01*
X39714Y387429D01*
X50000Y377143D01*
X50000Y388286D01*
X32000Y404229D02*
X32000Y414514D01*
X50000Y409371D02*
X32000Y409371D01*
X32000Y423943D02*
X32000Y427371D01*
X32857Y429086D01*
X34571Y430800D01*
X38000Y431657D01*
X44000Y431657D01*
X47429Y430800D01*
X49143Y429086D01*
X50000Y427371D01*
X50000Y423943D01*
X49143Y422229D01*
X47429Y420514D01*
X44000Y419657D01*
X38000Y419657D01*
X34571Y420514D01*
X32857Y422229D01*
X32000Y423943D01*
X50000Y439371D02*
X32000Y439371D01*
X32000Y446229D01*
X32857Y447943D01*
X33714Y448800D01*
X35429Y449657D01*
X38000Y449657D01*
X39714Y448800D01*
X40571Y447943D01*
X41429Y446229D01*
X41429Y439371D01*
X48286Y478457D02*
X49143Y477600D01*
X50000Y475029D01*
X50000Y473314D01*
X49143Y470743D01*
X47429Y469029D01*
X45714Y468171D01*
X42286Y467314D01*
X39714Y467314D01*
X36286Y468171D01*
X34571Y469029D01*
X32857Y470743D01*
X32000Y473314D01*
X32000Y475029D01*
X32857Y477600D01*
X33714Y478457D01*
X32000Y489600D02*
X32000Y493029D01*
X32857Y494743D01*
X34571Y496457D01*
X38000Y497314D01*
X44000Y497314D01*
X47429Y496457D01*
X49143Y494743D01*
X50000Y493029D01*
X50000Y489600D01*
X49143Y487886D01*
X47429Y486171D01*
X44000Y485314D01*
X38000Y485314D01*
X34571Y486171D01*
X32857Y487886D01*
X32000Y489600D01*
X32000Y502457D02*
X50000Y508457D01*
X32000Y514457D01*
X40571Y520457D02*
X40571Y526457D01*
X50000Y529029D02*
X50000Y520457D01*
X32000Y520457D01*
X32000Y529029D01*
X50000Y547029D02*
X41429Y541029D01*
X50000Y536743D02*
X32000Y536743D01*
X32000Y543600D01*
X32857Y545314D01*
X33714Y546171D01*
X35429Y547029D01*
X38000Y547029D01*
X39714Y546171D01*
X40571Y545314D01*
X41429Y543600D01*
X41429Y536743D01*
X200971Y74000D02*
X200971Y100000D01*
X215829Y74000D02*
X204686Y88857D01*
X215829Y100000D02*
X200971Y85143D01*
X226971Y74000D02*
X226971Y100000D01*
X235638Y81429D01*
X244305Y100000D01*
X244305Y74000D01*
X254210Y100000D02*
X271543Y100000D01*
X260400Y74000D01*
X281448Y74000D02*
X281448Y100000D01*
X281448Y87619D02*
X296305Y87619D01*
X296305Y74000D02*
X296305Y100000D01*
X308686Y74000D02*
X308686Y100000D01*
X323543Y74000D02*
X312400Y88857D01*
X323543Y100000D02*
X308686Y85143D01*
X334686Y74000D02*
X334686Y100000D01*
X343352Y81429D01*
X352019Y100000D01*
X352019Y74000D01*
X398571Y101238D02*
X376286Y67810D01*
X420362Y100000D02*
X426552Y74000D01*
X431505Y92571D01*
X436457Y74000D01*
X442648Y100000D01*
X451314Y81429D02*
X463695Y81429D01*
X448838Y74000D02*
X457505Y100000D01*
X466171Y74000D01*
X472362Y100000D02*
X489695Y100000D01*
X478552Y74000D01*
X499600Y74000D02*
X499600Y100000D01*
X505790Y100000D01*
X509505Y98762D01*
X511981Y96286D01*
X513219Y93810D01*
X514457Y88857D01*
X514457Y85143D01*
X513219Y80190D01*
X511981Y77714D01*
X509505Y75238D01*
X505790Y74000D01*
X499600Y74000D01*
X524362Y81429D02*
X536743Y81429D01*
X521886Y74000D02*
X530552Y100000D01*
X539219Y74000D01*
X547886Y74000D02*
X547886Y100000D01*
X556552Y81429D01*
X565219Y100000D01*
X565219Y74000D01*
X76738Y665881D02*
X76048Y665190D01*
X73976Y664500D01*
X72595Y664500D01*
X70524Y665190D01*
X69143Y666571D01*
X68452Y667952D01*
X67762Y670714D01*
X67762Y672786D01*
X68452Y675548D01*
X69143Y676929D01*
X70524Y678310D01*
X72595Y679000D01*
X73976Y679000D01*
X76048Y678310D01*
X76738Y677619D01*
X81571Y679000D02*
X85024Y664500D01*
X87786Y674857D01*
X90548Y664500D01*
X94000Y679000D01*
X108224Y664500D02*
X108224Y679000D01*
X116510Y664500D01*
X116510Y679000D01*
X123414Y679000D02*
X123414Y667262D01*
X124105Y665881D01*
X124795Y665190D01*
X126176Y664500D01*
X128938Y664500D01*
X130319Y665190D01*
X131010Y665881D01*
X131700Y667262D01*
X131700Y679000D01*
X138605Y664500D02*
X138605Y679000D01*
X143438Y668643D01*
X148271Y679000D01*
X148271Y664500D01*
X155176Y672095D02*
X160010Y672095D01*
X162081Y664500D02*
X155176Y664500D01*
X155176Y679000D01*
X162081Y679000D01*
X176581Y664500D02*
X171748Y671405D01*
X168295Y664500D02*
X168295Y679000D01*
X173819Y679000D01*
X175200Y678310D01*
X175890Y677619D01*
X176581Y676238D01*
X176581Y674167D01*
X175890Y672786D01*
X175200Y672095D01*
X173819Y671405D01*
X168295Y671405D01*
X182105Y668643D02*
X189010Y668643D01*
X180724Y664500D02*
X185557Y679000D01*
X190390Y664500D01*
X202129Y664500D02*
X195224Y664500D01*
X195224Y679000D01*
X206271Y665190D02*
X208343Y664500D01*
X211795Y664500D01*
X213176Y665190D01*
X213867Y665881D01*
X214557Y667262D01*
X214557Y668643D01*
X213867Y670024D01*
X213176Y670714D01*
X211795Y671405D01*
X209033Y672095D01*
X207652Y672786D01*
X206962Y673476D01*
X206271Y674857D01*
X206271Y676238D01*
X206962Y677619D01*
X207652Y678310D01*
X209033Y679000D01*
X212486Y679000D01*
X214557Y678310D01*
X228781Y668643D02*
X235686Y668643D01*
X227400Y664500D02*
X232233Y679000D01*
X237067Y664500D01*
X241900Y664500D02*
X241900Y679000D01*
X250186Y664500D01*
X250186Y679000D01*
X257090Y664500D02*
X257090Y679000D01*
X260543Y679000D01*
X262614Y678310D01*
X263995Y676929D01*
X264686Y675548D01*
X265376Y672786D01*
X265376Y670714D01*
X264686Y667952D01*
X263995Y666571D01*
X262614Y665190D01*
X260543Y664500D01*
X257090Y664500D01*
X280290Y664500D02*
X280290Y679000D01*
X285814Y679000D01*
X287195Y678310D01*
X287886Y677619D01*
X288576Y676238D01*
X288576Y674167D01*
X287886Y672786D01*
X287195Y672095D01*
X285814Y671405D01*
X280290Y671405D01*
X303076Y664500D02*
X298243Y671405D01*
X294790Y664500D02*
X294790Y679000D01*
X300314Y679000D01*
X301695Y678310D01*
X302386Y677619D01*
X303076Y676238D01*
X303076Y674167D01*
X302386Y672786D01*
X301695Y672095D01*
X300314Y671405D01*
X294790Y671405D01*
X312052Y679000D02*
X314814Y679000D01*
X316195Y678310D01*
X317576Y676929D01*
X318267Y674167D01*
X318267Y669333D01*
X317576Y666571D01*
X316195Y665190D01*
X314814Y664500D01*
X312052Y664500D01*
X310671Y665190D01*
X309290Y666571D01*
X308600Y669333D01*
X308600Y674167D01*
X309290Y676929D01*
X310671Y678310D01*
X312052Y679000D01*
X323790Y665190D02*
X325862Y664500D01*
X329314Y664500D01*
X330695Y665190D01*
X331386Y665881D01*
X332076Y667262D01*
X332076Y668643D01*
X331386Y670024D01*
X330695Y670714D01*
X329314Y671405D01*
X326552Y672095D01*
X325171Y672786D01*
X324481Y673476D01*
X323790Y674857D01*
X323790Y676238D01*
X324481Y677619D01*
X325171Y678310D01*
X326552Y679000D01*
X330005Y679000D01*
X332076Y678310D01*
X338290Y664500D02*
X338290Y679000D01*
X352790Y678310D02*
X351410Y679000D01*
X349338Y679000D01*
X347267Y678310D01*
X345886Y676929D01*
X345195Y675548D01*
X344505Y672786D01*
X344505Y670714D01*
X345195Y667952D01*
X345886Y666571D01*
X347267Y665190D01*
X349338Y664500D01*
X350719Y664500D01*
X352790Y665190D01*
X353481Y665881D01*
X353481Y670714D01*
X350719Y670714D01*
X359695Y664500D02*
X359695Y679000D01*
X367981Y664500D01*
X367981Y679000D01*
X374195Y665190D02*
X376267Y664500D01*
X379719Y664500D01*
X381100Y665190D01*
X381790Y665881D01*
X382481Y667262D01*
X382481Y668643D01*
X381790Y670024D01*
X381100Y670714D01*
X379719Y671405D01*
X376957Y672095D01*
X375576Y672786D01*
X374886Y673476D01*
X374195Y674857D01*
X374195Y676238D01*
X374886Y677619D01*
X375576Y678310D01*
X376957Y679000D01*
X380410Y679000D01*
X382481Y678310D01*
X74143Y643500D02*
X67286Y643500D01*
X70714Y643500D02*
X70714Y655500D01*
X69571Y653786D01*
X68429Y652643D01*
X67286Y652071D01*
X86486Y644643D02*
X87057Y644071D01*
X86486Y643500D01*
X85914Y644071D01*
X86486Y644643D01*
X86486Y643500D01*
X92200Y648071D02*
X101343Y648071D01*
X107057Y648071D02*
X116200Y648071D01*
X121914Y648071D02*
X131057Y648071D01*
X136771Y648071D02*
X145914Y648071D01*
X172657Y654357D02*
X173229Y654929D01*
X174371Y655500D01*
X177229Y655500D01*
X178371Y654929D01*
X178943Y654357D01*
X179514Y653214D01*
X179514Y652071D01*
X178943Y650357D01*
X172086Y643500D01*
X179514Y643500D01*
X191857Y644643D02*
X192429Y644071D01*
X191857Y643500D01*
X191286Y644071D01*
X191857Y644643D01*
X191857Y643500D01*
X197571Y644643D02*
X198143Y644071D01*
X197571Y643500D01*
X197000Y644071D01*
X197571Y644643D01*
X197571Y643500D01*
X203286Y648071D02*
X212429Y648071D01*
X218143Y648071D02*
X227286Y648071D01*
X233000Y648071D02*
X242143Y648071D01*
X268314Y655500D02*
X275743Y655500D01*
X271743Y650929D01*
X273457Y650929D01*
X274600Y650357D01*
X275171Y649786D01*
X275743Y648643D01*
X275743Y645786D01*
X275171Y644643D01*
X274600Y644071D01*
X273457Y643500D01*
X270029Y643500D01*
X268886Y644071D01*
X268314Y644643D01*
X288086Y644643D02*
X288657Y644071D01*
X288086Y643500D01*
X287514Y644071D01*
X288086Y644643D01*
X288086Y643500D01*
X293800Y644643D02*
X294371Y644071D01*
X293800Y643500D01*
X293229Y644071D01*
X293800Y644643D01*
X293800Y643500D01*
X299514Y644643D02*
X300086Y644071D01*
X299514Y643500D01*
X298943Y644071D01*
X299514Y644643D01*
X299514Y643500D01*
X305229Y648071D02*
X314371Y648071D01*
X320086Y648071D02*
X329229Y648071D01*
X361686Y651500D02*
X361686Y643500D01*
X358829Y656071D02*
X355971Y647500D01*
X363400Y647500D01*
X375171Y644643D02*
X375743Y644071D01*
X375171Y643500D01*
X374600Y644071D01*
X375171Y644643D01*
X375171Y643500D01*
X380886Y644643D02*
X381457Y644071D01*
X380886Y643500D01*
X380314Y644071D01*
X380886Y644643D01*
X380886Y643500D01*
X386600Y644643D02*
X387171Y644071D01*
X386600Y643500D01*
X386029Y644071D01*
X386600Y644643D01*
X386600Y643500D01*
X392314Y644643D02*
X392886Y644071D01*
X392314Y643500D01*
X391743Y644071D01*
X392314Y644643D01*
X392314Y643500D01*
X398029Y648071D02*
X407171Y648071D01*
X440200Y655500D02*
X434486Y655500D01*
X433914Y649786D01*
X434486Y650357D01*
X435629Y650929D01*
X438486Y650929D01*
X439629Y650357D01*
X440200Y649786D01*
X440771Y648643D01*
X440771Y645786D01*
X440200Y644643D01*
X439629Y644071D01*
X438486Y643500D01*
X435629Y643500D01*
X434486Y644071D01*
X433914Y644643D01*
X453114Y644643D02*
X453686Y644071D01*
X453114Y643500D01*
X452543Y644071D01*
X453114Y644643D01*
X453114Y643500D01*
X458829Y644643D02*
X459400Y644071D01*
X458829Y643500D01*
X458257Y644071D01*
X458829Y644643D01*
X458829Y643500D01*
X464543Y644643D02*
X465114Y644071D01*
X464543Y643500D01*
X463971Y644071D01*
X464543Y644643D01*
X464543Y643500D01*
X470257Y644643D02*
X470829Y644071D01*
X470257Y643500D01*
X469686Y644071D01*
X470257Y644643D01*
X470257Y643500D01*
X475971Y644643D02*
X476543Y644071D01*
X475971Y643500D01*
X475400Y644071D01*
X475971Y644643D01*
X475971Y643500D01*
X73000Y636050D02*
X70714Y636050D01*
X69571Y635479D01*
X69000Y634907D01*
X67857Y633193D01*
X67286Y630907D01*
X67286Y626336D01*
X67857Y625193D01*
X68429Y624621D01*
X69571Y624050D01*
X71857Y624050D01*
X73000Y624621D01*
X73571Y625193D01*
X74143Y626336D01*
X74143Y629193D01*
X73571Y630336D01*
X73000Y630907D01*
X71857Y631479D01*
X69571Y631479D01*
X68429Y630907D01*
X67857Y630336D01*
X67286Y629193D01*
X86486Y628621D02*
X95629Y628621D01*
X101343Y625193D02*
X101914Y624621D01*
X101343Y624050D01*
X100771Y624621D01*
X101343Y625193D01*
X101343Y624050D01*
X107057Y625193D02*
X107629Y624621D01*
X107057Y624050D01*
X106486Y624621D01*
X107057Y625193D01*
X107057Y624050D01*
X112771Y625193D02*
X113343Y624621D01*
X112771Y624050D01*
X112200Y624621D01*
X112771Y625193D01*
X112771Y624050D01*
X118486Y625193D02*
X119057Y624621D01*
X118486Y624050D01*
X117914Y624621D01*
X118486Y625193D01*
X118486Y624050D01*
X144657Y636050D02*
X152657Y636050D01*
X147514Y624050D01*
X164429Y628621D02*
X173571Y628621D01*
X179286Y628621D02*
X188429Y628621D01*
X194143Y625193D02*
X194714Y624621D01*
X194143Y624050D01*
X193571Y624621D01*
X194143Y625193D01*
X194143Y624050D01*
X199857Y625193D02*
X200429Y624621D01*
X199857Y624050D01*
X199286Y624621D01*
X199857Y625193D01*
X199857Y624050D01*
X205571Y625193D02*
X206143Y624621D01*
X205571Y624050D01*
X205000Y624621D01*
X205571Y625193D01*
X205571Y624050D01*
X234600Y630907D02*
X233457Y631479D01*
X232886Y632050D01*
X232314Y633193D01*
X232314Y633764D01*
X232886Y634907D01*
X233457Y635479D01*
X234600Y636050D01*
X236886Y636050D01*
X238029Y635479D01*
X238600Y634907D01*
X239171Y633764D01*
X239171Y633193D01*
X238600Y632050D01*
X238029Y631479D01*
X236886Y630907D01*
X234600Y630907D01*
X233457Y630336D01*
X232886Y629764D01*
X232314Y628621D01*
X232314Y626336D01*
X232886Y625193D01*
X233457Y624621D01*
X234600Y624050D01*
X236886Y624050D01*
X238029Y624621D01*
X238600Y625193D01*
X239171Y626336D01*
X239171Y628621D01*
X238600Y629764D01*
X238029Y630336D01*
X236886Y630907D01*
X251514Y628621D02*
X260657Y628621D01*
X266371Y628621D02*
X275514Y628621D01*
X281229Y628621D02*
X290371Y628621D01*
X296086Y625193D02*
X296657Y624621D01*
X296086Y624050D01*
X295514Y624621D01*
X296086Y625193D01*
X296086Y624050D01*
X301800Y625193D02*
X302371Y624621D01*
X301800Y624050D01*
X301229Y624621D01*
X301800Y625193D01*
X301800Y624050D01*
X329686Y624050D02*
X331971Y624050D01*
X333114Y624621D01*
X333686Y625193D01*
X334829Y626907D01*
X335400Y629193D01*
X335400Y633764D01*
X334829Y634907D01*
X334257Y635479D01*
X333114Y636050D01*
X330829Y636050D01*
X329686Y635479D01*
X329114Y634907D01*
X328543Y633764D01*
X328543Y630907D01*
X329114Y629764D01*
X329686Y629193D01*
X330829Y628621D01*
X333114Y628621D01*
X334257Y629193D01*
X334829Y629764D01*
X335400Y630907D01*
X347743Y628621D02*
X356886Y628621D01*
X362600Y628621D02*
X371743Y628621D01*
X377457Y628621D02*
X386600Y628621D01*
X392314Y628621D02*
X401457Y628621D01*
X407171Y625193D02*
X407743Y624621D01*
X407171Y624050D01*
X406600Y624621D01*
X407171Y625193D01*
X407171Y624050D01*
X436771Y636050D02*
X437914Y636050D01*
X439057Y635479D01*
X439629Y634907D01*
X440200Y633764D01*
X440771Y631479D01*
X440771Y628621D01*
X440200Y626336D01*
X439629Y625193D01*
X439057Y624621D01*
X437914Y624050D01*
X436771Y624050D01*
X435629Y624621D01*
X435057Y625193D01*
X434486Y626336D01*
X433914Y628621D01*
X433914Y631479D01*
X434486Y633764D01*
X435057Y634907D01*
X435629Y635479D01*
X436771Y636050D01*
X453114Y628621D02*
X462257Y628621D01*
X467971Y628621D02*
X477114Y628621D01*
X482829Y628621D02*
X491971Y628621D01*
X497686Y628621D02*
X506829Y628621D01*
X512543Y628621D02*
X521686Y628621D01*
X67286Y608029D02*
X73000Y608029D01*
X66143Y604600D02*
X70143Y616600D01*
X74143Y604600D01*
X85000Y604600D02*
X81000Y610314D01*
X78143Y604600D02*
X78143Y616600D01*
X82714Y616600D01*
X83857Y616029D01*
X84429Y615457D01*
X85000Y614314D01*
X85000Y612600D01*
X84429Y611457D01*
X83857Y610886D01*
X82714Y610314D01*
X78143Y610314D01*
X99629Y616600D02*
X101914Y616600D01*
X103057Y616029D01*
X104200Y614886D01*
X104771Y612600D01*
X104771Y608600D01*
X104200Y606314D01*
X103057Y605171D01*
X101914Y604600D01*
X99629Y604600D01*
X98486Y605171D01*
X97343Y606314D01*
X96771Y608600D01*
X96771Y612600D01*
X97343Y614886D01*
X98486Y616029D01*
X99629Y616600D01*
X108200Y616600D02*
X112200Y604600D01*
X116200Y616600D01*
X120200Y610886D02*
X124200Y610886D01*
X125914Y604600D02*
X120200Y604600D01*
X120200Y616600D01*
X125914Y616600D01*
X137914Y604600D02*
X133914Y610314D01*
X131057Y604600D02*
X131057Y616600D01*
X135629Y616600D01*
X136771Y616029D01*
X137343Y615457D01*
X137914Y614314D01*
X137914Y612600D01*
X137343Y611457D01*
X136771Y610886D01*
X135629Y610314D01*
X131057Y610314D01*
X168657Y610886D02*
X170371Y610314D01*
X170943Y609743D01*
X171514Y608600D01*
X171514Y606886D01*
X170943Y605743D01*
X170371Y605171D01*
X169229Y604600D01*
X164657Y604600D01*
X164657Y616600D01*
X168657Y616600D01*
X169800Y616029D01*
X170371Y615457D01*
X170943Y614314D01*
X170943Y613171D01*
X170371Y612029D01*
X169800Y611457D01*
X168657Y610886D01*
X164657Y610886D01*
X176657Y604600D02*
X176657Y616600D01*
X183514Y604600D02*
X178371Y611457D01*
X183514Y616600D02*
X176657Y609743D01*
X199857Y610886D02*
X201571Y610314D01*
X202143Y609743D01*
X202714Y608600D01*
X202714Y606886D01*
X202143Y605743D01*
X201571Y605171D01*
X200429Y604600D01*
X195857Y604600D01*
X195857Y616600D01*
X199857Y616600D01*
X201000Y616029D01*
X201571Y615457D01*
X202143Y614314D01*
X202143Y613171D01*
X201571Y612029D01*
X201000Y611457D01*
X199857Y610886D01*
X195857Y610886D01*
X214714Y604600D02*
X210714Y610314D01*
X207857Y604600D02*
X207857Y616600D01*
X212429Y616600D01*
X213571Y616029D01*
X214143Y615457D01*
X214714Y614314D01*
X214714Y612600D01*
X214143Y611457D01*
X213571Y610886D01*
X212429Y610314D01*
X207857Y610314D01*
X219857Y610886D02*
X223857Y610886D01*
X225571Y604600D02*
X219857Y604600D01*
X219857Y616600D01*
X225571Y616600D01*
X230143Y608029D02*
X235857Y608029D01*
X229000Y604600D02*
X233000Y616600D01*
X237000Y604600D01*
X241000Y604600D02*
X241000Y616600D01*
X247857Y604600D02*
X242714Y611457D01*
X247857Y616600D02*
X241000Y609743D01*
X253000Y609171D02*
X262143Y609171D01*
X267857Y604600D02*
X267857Y616600D01*
X273571Y604600D02*
X273571Y616600D01*
X280429Y604600D01*
X280429Y616600D01*
X307743Y604600D02*
X307743Y616600D01*
X314600Y604600D02*
X309457Y611457D01*
X314600Y616600D02*
X307743Y609743D01*
X319743Y604600D02*
X319743Y616600D01*
X326600Y604600D01*
X326600Y616600D01*
X339514Y604600D02*
X339514Y616600D01*
X346371Y604600D01*
X346371Y616600D01*
X351514Y608029D02*
X357229Y608029D01*
X350371Y604600D02*
X354371Y616600D01*
X358371Y604600D01*
X362371Y604600D02*
X362371Y616600D01*
X366371Y608029D01*
X370371Y616600D01*
X370371Y604600D01*
X376086Y610886D02*
X380086Y610886D01*
X381800Y604600D02*
X376086Y604600D01*
X376086Y616600D01*
X381800Y616600D01*
X386943Y604600D02*
X386943Y616600D01*
X389800Y616600D01*
X391514Y616029D01*
X392657Y614886D01*
X393229Y613743D01*
X393800Y611457D01*
X393800Y609743D01*
X393229Y607457D01*
X392657Y606314D01*
X391514Y605171D01*
X389800Y604600D01*
X386943Y604600D01*
X405571Y605171D02*
X407286Y604600D01*
X410143Y604600D01*
X411286Y605171D01*
X411857Y605743D01*
X412429Y606886D01*
X412429Y608029D01*
X411857Y609171D01*
X411286Y609743D01*
X410143Y610314D01*
X407857Y610886D01*
X406714Y611457D01*
X406143Y612029D01*
X405571Y613171D01*
X405571Y614314D01*
X406143Y615457D01*
X406714Y616029D01*
X407857Y616600D01*
X410714Y616600D01*
X412429Y616029D01*
X415857Y616600D02*
X422714Y616600D01*
X419286Y604600D02*
X419286Y616600D01*
X426714Y604600D02*
X426714Y616600D01*
X433571Y604600D01*
X433571Y616600D01*
X448771Y616600D02*
X451057Y616600D01*
X452200Y616029D01*
X453343Y614886D01*
X453914Y612600D01*
X453914Y608600D01*
X453343Y606314D01*
X452200Y605171D01*
X451057Y604600D01*
X448771Y604600D01*
X447629Y605171D01*
X446486Y606314D01*
X445914Y608600D01*
X445914Y612600D01*
X446486Y614886D01*
X447629Y616029D01*
X448771Y616600D01*
X459057Y604600D02*
X459057Y616600D01*
X465914Y604600D01*
X465914Y616600D01*
X477343Y604600D02*
X471629Y604600D01*
X471629Y616600D01*
X483629Y610314D02*
X483629Y604600D01*
X479629Y616600D02*
X483629Y610314D01*
X487629Y616600D01*
X512657Y608029D02*
X518371Y608029D01*
X511514Y604600D02*
X515514Y616600D01*
X519514Y604600D01*
X522943Y605171D02*
X524657Y604600D01*
X527514Y604600D01*
X528657Y605171D01*
X529229Y605743D01*
X529800Y606886D01*
X529800Y608029D01*
X529229Y609171D01*
X528657Y609743D01*
X527514Y610314D01*
X525229Y610886D01*
X524086Y611457D01*
X523514Y612029D01*
X522943Y613171D01*
X522943Y614314D01*
X523514Y615457D01*
X524086Y616029D01*
X525229Y616600D01*
X528086Y616600D01*
X529800Y616029D01*
X541000Y616600D02*
X543857Y604600D01*
X546143Y613171D01*
X548429Y604600D01*
X551286Y616600D01*
X555286Y608029D02*
X561000Y608029D01*
X554143Y604600D02*
X558143Y616600D01*
X562143Y604600D01*
X566143Y604600D02*
X566143Y616600D01*
X570143Y616600D02*
X577000Y616600D01*
X573571Y604600D02*
X573571Y616600D01*
X606600Y610886D02*
X608314Y610314D01*
X608886Y609743D01*
X609457Y608600D01*
X609457Y606886D01*
X608886Y605743D01*
X608314Y605171D01*
X607171Y604600D01*
X602600Y604600D01*
X602600Y616600D01*
X606600Y616600D01*
X607743Y616029D01*
X608314Y615457D01*
X608886Y614314D01*
X608886Y613171D01*
X608314Y612029D01*
X607743Y611457D01*
X606600Y610886D01*
X602600Y610886D01*
X612886Y616600D02*
X619743Y616600D01*
X616314Y604600D02*
X616314Y616600D01*
X630943Y604600D02*
X630943Y616600D01*
X635514Y616600D01*
X636657Y616029D01*
X637229Y615457D01*
X637800Y614314D01*
X637800Y612600D01*
X637229Y611457D01*
X636657Y610886D01*
X635514Y610314D01*
X630943Y610314D01*
X642371Y608029D02*
X648086Y608029D01*
X641229Y604600D02*
X645229Y616600D01*
X649229Y604600D01*
X653229Y616600D02*
X653229Y606886D01*
X653800Y605743D01*
X654371Y605171D01*
X655514Y604600D01*
X657800Y604600D01*
X658943Y605171D01*
X659514Y605743D01*
X660086Y606886D01*
X660086Y616600D01*
X665229Y605171D02*
X666943Y604600D01*
X669800Y604600D01*
X670943Y605171D01*
X671514Y605743D01*
X672086Y606886D01*
X672086Y608029D01*
X671514Y609171D01*
X670943Y609743D01*
X669800Y610314D01*
X667514Y610886D01*
X666371Y611457D01*
X665800Y612029D01*
X665229Y613171D01*
X665229Y614314D01*
X665800Y615457D01*
X666371Y616029D01*
X667514Y616600D01*
X670371Y616600D01*
X672086Y616029D01*
X677229Y610886D02*
X681229Y610886D01*
X682943Y604600D02*
X677229Y604600D01*
X677229Y616600D01*
X682943Y616600D01*
X68452Y475400D02*
X68452Y489900D01*
X73286Y489900D02*
X81571Y489900D01*
X77429Y475400D02*
X77429Y489900D01*
X86405Y489900D02*
X86405Y478162D01*
X87095Y476781D01*
X87786Y476090D01*
X89167Y475400D01*
X91929Y475400D01*
X93310Y476090D01*
X94000Y476781D01*
X94690Y478162D01*
X94690Y489900D01*
X110295Y475400D02*
X110295Y489900D01*
X115819Y489900D01*
X117200Y489210D01*
X117890Y488519D01*
X118581Y487138D01*
X118581Y485067D01*
X117890Y483686D01*
X117200Y482995D01*
X115819Y482305D01*
X110295Y482305D01*
X124795Y475400D02*
X124795Y489900D01*
X124795Y482995D02*
X133081Y482995D01*
X133081Y475400D02*
X133081Y489900D01*
X142748Y489900D02*
X145510Y489900D01*
X146890Y489210D01*
X148271Y487829D01*
X148962Y485067D01*
X148962Y480233D01*
X148271Y477471D01*
X146890Y476090D01*
X145510Y475400D01*
X142748Y475400D01*
X141367Y476090D01*
X139986Y477471D01*
X139295Y480233D01*
X139295Y485067D01*
X139986Y487829D01*
X141367Y489210D01*
X142748Y489900D01*
X155176Y475400D02*
X155176Y489900D01*
X163462Y475400D01*
X163462Y489900D01*
X170367Y482995D02*
X175200Y482995D01*
X177271Y475400D02*
X170367Y475400D01*
X170367Y489900D01*
X177271Y489900D01*
X181414Y489900D02*
X189700Y489900D01*
X185557Y475400D02*
X185557Y489900D01*
X194533Y475400D02*
X194533Y489900D01*
X209724Y476781D02*
X209033Y476090D01*
X206962Y475400D01*
X205581Y475400D01*
X203510Y476090D01*
X202129Y477471D01*
X201438Y478852D01*
X200748Y481614D01*
X200748Y483686D01*
X201438Y486448D01*
X202129Y487829D01*
X203510Y489210D01*
X205581Y489900D01*
X206962Y489900D01*
X209033Y489210D01*
X209724Y488519D01*
X223948Y479543D02*
X230852Y479543D01*
X222567Y475400D02*
X227400Y489900D01*
X232233Y475400D01*
X243971Y475400D02*
X237067Y475400D01*
X237067Y489900D01*
X248805Y475400D02*
X248805Y489900D01*
X254329Y489900D01*
X255710Y489210D01*
X256400Y488519D01*
X257090Y487138D01*
X257090Y485067D01*
X256400Y483686D01*
X255710Y482995D01*
X254329Y482305D01*
X248805Y482305D01*
X263305Y475400D02*
X263305Y489900D01*
X263305Y482995D02*
X271590Y482995D01*
X271590Y475400D02*
X271590Y489900D01*
X277805Y479543D02*
X284710Y479543D01*
X276424Y475400D02*
X281257Y489900D01*
X286090Y475400D01*
X295757Y482995D02*
X297829Y482305D01*
X298519Y481614D01*
X299210Y480233D01*
X299210Y478162D01*
X298519Y476781D01*
X297829Y476090D01*
X296448Y475400D01*
X290924Y475400D01*
X290924Y489900D01*
X295757Y489900D01*
X297138Y489210D01*
X297829Y488519D01*
X298519Y487138D01*
X298519Y485757D01*
X297829Y484376D01*
X297138Y483686D01*
X295757Y482995D01*
X290924Y482995D01*
X305424Y482995D02*
X310257Y482995D01*
X312329Y475400D02*
X305424Y475400D01*
X305424Y489900D01*
X312329Y489900D01*
X316471Y489900D02*
X324757Y489900D01*
X320614Y475400D02*
X320614Y489900D01*
X67286Y457829D02*
X73000Y457829D01*
X66143Y454400D02*
X70143Y466400D01*
X74143Y454400D01*
X84771Y457829D02*
X90486Y457829D01*
X83629Y454400D02*
X87629Y466400D01*
X91629Y454400D01*
X101343Y454400D02*
X95629Y454400D01*
X95629Y466400D01*
X109343Y460686D02*
X105343Y460686D01*
X105343Y454400D02*
X105343Y466400D01*
X111057Y466400D01*
X115057Y457829D02*
X120771Y457829D01*
X113914Y454400D02*
X117914Y466400D01*
X121914Y454400D01*
X144314Y460686D02*
X146029Y460114D01*
X146600Y459543D01*
X147171Y458400D01*
X147171Y456686D01*
X146600Y455543D01*
X146029Y454971D01*
X144886Y454400D01*
X140314Y454400D01*
X140314Y466400D01*
X144314Y466400D01*
X145457Y465829D01*
X146029Y465257D01*
X146600Y464114D01*
X146600Y462971D01*
X146029Y461829D01*
X145457Y461257D01*
X144314Y460686D01*
X140314Y460686D01*
X163514Y460686D02*
X165229Y460114D01*
X165800Y459543D01*
X166371Y458400D01*
X166371Y456686D01*
X165800Y455543D01*
X165229Y454971D01*
X164086Y454400D01*
X159514Y454400D01*
X159514Y466400D01*
X163514Y466400D01*
X164657Y465829D01*
X165229Y465257D01*
X165800Y464114D01*
X165800Y462971D01*
X165229Y461829D01*
X164657Y461257D01*
X163514Y460686D01*
X159514Y460686D01*
X178371Y454400D02*
X174371Y460114D01*
X171514Y454400D02*
X171514Y466400D01*
X176086Y466400D01*
X177229Y465829D01*
X177800Y465257D01*
X178371Y464114D01*
X178371Y462400D01*
X177800Y461257D01*
X177229Y460686D01*
X176086Y460114D01*
X171514Y460114D01*
X182943Y457829D02*
X188657Y457829D01*
X181800Y454400D02*
X185800Y466400D01*
X189800Y454400D01*
X192086Y466400D02*
X196086Y454400D01*
X200086Y466400D01*
X206371Y466400D02*
X208657Y466400D01*
X209800Y465829D01*
X210943Y464686D01*
X211514Y462400D01*
X211514Y458400D01*
X210943Y456114D01*
X209800Y454971D01*
X208657Y454400D01*
X206371Y454400D01*
X205229Y454971D01*
X204086Y456114D01*
X203514Y458400D01*
X203514Y462400D01*
X204086Y464686D01*
X205229Y465829D01*
X206371Y466400D01*
X237914Y455543D02*
X237343Y454971D01*
X235629Y454400D01*
X234486Y454400D01*
X232771Y454971D01*
X231629Y456114D01*
X231057Y457257D01*
X230486Y459543D01*
X230486Y461257D01*
X231057Y463543D01*
X231629Y464686D01*
X232771Y465829D01*
X234486Y466400D01*
X235629Y466400D01*
X237343Y465829D01*
X237914Y465257D01*
X257114Y455543D02*
X256543Y454971D01*
X254829Y454400D01*
X253686Y454400D01*
X251971Y454971D01*
X250829Y456114D01*
X250257Y457257D01*
X249686Y459543D01*
X249686Y461257D01*
X250257Y463543D01*
X250829Y464686D01*
X251971Y465829D01*
X253686Y466400D01*
X254829Y466400D01*
X256543Y465829D01*
X257114Y465257D01*
X262257Y454400D02*
X262257Y466400D01*
X262257Y460686D02*
X269114Y460686D01*
X269114Y454400D02*
X269114Y466400D01*
X274257Y457829D02*
X279971Y457829D01*
X273114Y454400D02*
X277114Y466400D01*
X281114Y454400D01*
X291971Y454400D02*
X287971Y460114D01*
X285114Y454400D02*
X285114Y466400D01*
X289686Y466400D01*
X290829Y465829D01*
X291400Y465257D01*
X291971Y464114D01*
X291971Y462400D01*
X291400Y461257D01*
X290829Y460686D01*
X289686Y460114D01*
X285114Y460114D01*
X302829Y454400D02*
X297114Y454400D01*
X297114Y466400D01*
X306829Y454400D02*
X306829Y466400D01*
X312543Y460686D02*
X316543Y460686D01*
X318257Y454400D02*
X312543Y454400D01*
X312543Y466400D01*
X318257Y466400D01*
X337800Y454400D02*
X337800Y466400D01*
X340657Y466400D01*
X342371Y465829D01*
X343514Y464686D01*
X344086Y463543D01*
X344657Y461257D01*
X344657Y459543D01*
X344086Y457257D01*
X343514Y456114D01*
X342371Y454971D01*
X340657Y454400D01*
X337800Y454400D01*
X357000Y454400D02*
X357000Y466400D01*
X359857Y466400D01*
X361571Y465829D01*
X362714Y464686D01*
X363286Y463543D01*
X363857Y461257D01*
X363857Y459543D01*
X363286Y457257D01*
X362714Y456114D01*
X361571Y454971D01*
X359857Y454400D01*
X357000Y454400D01*
X369000Y460686D02*
X373000Y460686D01*
X374714Y454400D02*
X369000Y454400D01*
X369000Y466400D01*
X374714Y466400D01*
X385571Y454400D02*
X379857Y454400D01*
X379857Y466400D01*
X387857Y466400D02*
X394714Y466400D01*
X391286Y454400D02*
X391286Y466400D01*
X398143Y457829D02*
X403857Y457829D01*
X397000Y454400D02*
X401000Y466400D01*
X405000Y454400D01*
X423400Y460686D02*
X427400Y460686D01*
X429114Y454400D02*
X423400Y454400D01*
X423400Y466400D01*
X429114Y466400D01*
X441457Y460686D02*
X445457Y460686D01*
X447171Y454400D02*
X441457Y454400D01*
X441457Y466400D01*
X447171Y466400D01*
X459171Y455543D02*
X458600Y454971D01*
X456886Y454400D01*
X455743Y454400D01*
X454029Y454971D01*
X452886Y456114D01*
X452314Y457257D01*
X451743Y459543D01*
X451743Y461257D01*
X452314Y463543D01*
X452886Y464686D01*
X454029Y465829D01*
X455743Y466400D01*
X456886Y466400D01*
X458600Y465829D01*
X459171Y465257D01*
X464314Y454400D02*
X464314Y466400D01*
X464314Y460686D02*
X471171Y460686D01*
X471171Y454400D02*
X471171Y466400D01*
X479171Y466400D02*
X481457Y466400D01*
X482600Y465829D01*
X483743Y464686D01*
X484314Y462400D01*
X484314Y458400D01*
X483743Y456114D01*
X482600Y454971D01*
X481457Y454400D01*
X479171Y454400D01*
X478029Y454971D01*
X476886Y456114D01*
X476314Y458400D01*
X476314Y462400D01*
X476886Y464686D01*
X478029Y465829D01*
X479171Y466400D01*
X507857Y460686D02*
X503857Y460686D01*
X503857Y454400D02*
X503857Y466400D01*
X509571Y466400D01*
X525343Y460686D02*
X521343Y460686D01*
X521343Y454400D02*
X521343Y466400D01*
X527057Y466400D01*
X533914Y466400D02*
X536200Y466400D01*
X537343Y465829D01*
X538486Y464686D01*
X539057Y462400D01*
X539057Y458400D01*
X538486Y456114D01*
X537343Y454971D01*
X536200Y454400D01*
X533914Y454400D01*
X532771Y454971D01*
X531629Y456114D01*
X531057Y458400D01*
X531057Y462400D01*
X531629Y464686D01*
X532771Y465829D01*
X533914Y466400D01*
X543057Y466400D02*
X551057Y454400D01*
X551057Y466400D02*
X543057Y454400D01*
X553914Y466400D02*
X560771Y466400D01*
X557343Y454400D02*
X557343Y466400D01*
X571629Y454400D02*
X567629Y460114D01*
X564771Y454400D02*
X564771Y466400D01*
X569343Y466400D01*
X570486Y465829D01*
X571057Y465257D01*
X571629Y464114D01*
X571629Y462400D01*
X571057Y461257D01*
X570486Y460686D01*
X569343Y460114D01*
X564771Y460114D01*
X579057Y466400D02*
X581343Y466400D01*
X582486Y465829D01*
X583629Y464686D01*
X584200Y462400D01*
X584200Y458400D01*
X583629Y456114D01*
X582486Y454971D01*
X581343Y454400D01*
X579057Y454400D01*
X577914Y454971D01*
X576771Y456114D01*
X576200Y458400D01*
X576200Y462400D01*
X576771Y464686D01*
X577914Y465829D01*
X579057Y466400D01*
X587629Y466400D02*
X594486Y466400D01*
X591057Y454400D02*
X591057Y466400D01*
X619171Y465829D02*
X618029Y466400D01*
X616314Y466400D01*
X614600Y465829D01*
X613457Y464686D01*
X612886Y463543D01*
X612314Y461257D01*
X612314Y459543D01*
X612886Y457257D01*
X613457Y456114D01*
X614600Y454971D01*
X616314Y454400D01*
X617457Y454400D01*
X619171Y454971D01*
X619743Y455543D01*
X619743Y459543D01*
X617457Y459543D01*
X638371Y465829D02*
X637229Y466400D01*
X635514Y466400D01*
X633800Y465829D01*
X632657Y464686D01*
X632086Y463543D01*
X631514Y461257D01*
X631514Y459543D01*
X632086Y457257D01*
X632657Y456114D01*
X633800Y454971D01*
X635514Y454400D01*
X636657Y454400D01*
X638371Y454971D01*
X638943Y455543D01*
X638943Y459543D01*
X636657Y459543D01*
X646371Y466400D02*
X648657Y466400D01*
X649800Y465829D01*
X650943Y464686D01*
X651514Y462400D01*
X651514Y458400D01*
X650943Y456114D01*
X649800Y454971D01*
X648657Y454400D01*
X646371Y454400D01*
X645229Y454971D01*
X644086Y456114D01*
X643514Y458400D01*
X643514Y462400D01*
X644086Y464686D01*
X645229Y465829D01*
X646371Y466400D01*
X662371Y454400D02*
X656657Y454400D01*
X656657Y466400D01*
X670371Y460686D02*
X666371Y460686D01*
X666371Y454400D02*
X666371Y466400D01*
X672086Y466400D01*
X67857Y436900D02*
X67857Y448900D01*
X67857Y443186D02*
X74714Y443186D01*
X74714Y436900D02*
X74714Y448900D01*
X87629Y436900D02*
X87629Y448900D01*
X87629Y443186D02*
X94486Y443186D01*
X94486Y436900D02*
X94486Y448900D01*
X102486Y448900D02*
X104771Y448900D01*
X105914Y448329D01*
X107057Y447186D01*
X107629Y444900D01*
X107629Y440900D01*
X107057Y438614D01*
X105914Y437471D01*
X104771Y436900D01*
X102486Y436900D01*
X101343Y437471D01*
X100200Y438614D01*
X99629Y440900D01*
X99629Y444900D01*
X100200Y447186D01*
X101343Y448329D01*
X102486Y448900D01*
X111057Y448900D02*
X117914Y448900D01*
X114486Y436900D02*
X114486Y448900D01*
X121914Y443186D02*
X125914Y443186D01*
X127629Y436900D02*
X121914Y436900D01*
X121914Y448900D01*
X127629Y448900D01*
X138486Y436900D02*
X132771Y436900D01*
X132771Y448900D01*
X156886Y436900D02*
X156886Y448900D01*
X169800Y436900D02*
X169800Y448900D01*
X175514Y436900D02*
X175514Y448900D01*
X182371Y436900D01*
X182371Y448900D01*
X188086Y436900D02*
X188086Y448900D01*
X190943Y448900D01*
X192657Y448329D01*
X193800Y447186D01*
X194371Y446043D01*
X194943Y443757D01*
X194943Y442043D01*
X194371Y439757D01*
X193800Y438614D01*
X192657Y437471D01*
X190943Y436900D01*
X188086Y436900D01*
X200086Y436900D02*
X200086Y448900D01*
X205229Y440329D02*
X210943Y440329D01*
X204086Y436900D02*
X208086Y448900D01*
X212086Y436900D01*
X233914Y448900D02*
X233914Y440329D01*
X233343Y438614D01*
X232200Y437471D01*
X230486Y436900D01*
X229343Y436900D01*
X250257Y448900D02*
X250257Y440329D01*
X249686Y438614D01*
X248543Y437471D01*
X246829Y436900D01*
X245686Y436900D01*
X255971Y448900D02*
X255971Y439186D01*
X256543Y438043D01*
X257114Y437471D01*
X258257Y436900D01*
X260543Y436900D01*
X261686Y437471D01*
X262257Y438043D01*
X262829Y439186D01*
X262829Y448900D01*
X274257Y436900D02*
X268543Y436900D01*
X268543Y448900D01*
X278257Y436900D02*
X278257Y448900D01*
X283971Y443186D02*
X287971Y443186D01*
X289686Y436900D02*
X283971Y436900D01*
X283971Y448900D01*
X289686Y448900D01*
X293114Y448900D02*
X299971Y448900D01*
X296543Y436900D02*
X296543Y448900D01*
X302257Y448900D02*
X309114Y448900D01*
X305686Y436900D02*
X305686Y448900D01*
X327514Y436900D02*
X327514Y448900D01*
X334371Y436900D02*
X329229Y443757D01*
X334371Y448900D02*
X327514Y442043D01*
X346714Y436900D02*
X346714Y448900D01*
X353571Y436900D02*
X348429Y443757D01*
X353571Y448900D02*
X346714Y442043D01*
X358714Y436900D02*
X358714Y448900D01*
X370143Y436900D02*
X364429Y436900D01*
X364429Y448900D01*
X376429Y448900D02*
X378714Y448900D01*
X379857Y448329D01*
X381000Y447186D01*
X381571Y444900D01*
X381571Y440900D01*
X381000Y438614D01*
X379857Y437471D01*
X378714Y436900D01*
X376429Y436900D01*
X375286Y437471D01*
X374143Y438614D01*
X373571Y440900D01*
X373571Y444900D01*
X374143Y447186D01*
X375286Y448329D01*
X376429Y448900D01*
X406829Y436900D02*
X401114Y436900D01*
X401114Y448900D01*
X423743Y436900D02*
X418029Y436900D01*
X418029Y448900D01*
X427743Y436900D02*
X427743Y448900D01*
X433457Y436900D02*
X433457Y448900D01*
X437457Y440329D01*
X441457Y448900D01*
X441457Y436900D01*
X446600Y440329D02*
X452314Y440329D01*
X445457Y436900D02*
X449457Y448900D01*
X453457Y436900D01*
X471857Y436900D02*
X471857Y448900D01*
X475857Y440329D01*
X479857Y448900D01*
X479857Y436900D01*
X492771Y436900D02*
X492771Y448900D01*
X496771Y440329D01*
X500771Y448900D01*
X500771Y436900D01*
X506486Y436900D02*
X506486Y448900D01*
X512200Y436900D02*
X512200Y448900D01*
X519057Y436900D02*
X513914Y443757D01*
X519057Y448900D02*
X512200Y442043D01*
X524200Y443186D02*
X528200Y443186D01*
X529914Y436900D02*
X524200Y436900D01*
X524200Y448900D01*
X529914Y448900D01*
X549457Y436900D02*
X549457Y448900D01*
X556314Y436900D01*
X556314Y448900D01*
X569229Y436900D02*
X569229Y448900D01*
X576086Y436900D01*
X576086Y448900D01*
X584086Y448900D02*
X586371Y448900D01*
X587514Y448329D01*
X588657Y447186D01*
X589229Y444900D01*
X589229Y440900D01*
X588657Y438614D01*
X587514Y437471D01*
X586371Y436900D01*
X584086Y436900D01*
X582943Y437471D01*
X581800Y438614D01*
X581229Y440900D01*
X581229Y444900D01*
X581800Y447186D01*
X582943Y448329D01*
X584086Y448900D01*
X592657Y448900D02*
X596657Y436900D01*
X600657Y448900D01*
X604657Y443186D02*
X608657Y443186D01*
X610371Y436900D02*
X604657Y436900D01*
X604657Y448900D01*
X610371Y448900D01*
X615514Y436900D02*
X615514Y448900D01*
X619514Y440329D01*
X623514Y448900D01*
X623514Y436900D01*
X633229Y443186D02*
X634943Y442614D01*
X635514Y442043D01*
X636086Y440900D01*
X636086Y439186D01*
X635514Y438043D01*
X634943Y437471D01*
X633800Y436900D01*
X629229Y436900D01*
X629229Y448900D01*
X633229Y448900D01*
X634371Y448329D01*
X634943Y447757D01*
X635514Y446614D01*
X635514Y445471D01*
X634943Y444329D01*
X634371Y443757D01*
X633229Y443186D01*
X629229Y443186D01*
X641229Y443186D02*
X645229Y443186D01*
X646943Y436900D02*
X641229Y436900D01*
X641229Y448900D01*
X646943Y448900D01*
X658943Y436900D02*
X654943Y442614D01*
X652086Y436900D02*
X652086Y448900D01*
X656657Y448900D01*
X657800Y448329D01*
X658371Y447757D01*
X658943Y446614D01*
X658943Y444900D01*
X658371Y443757D01*
X657800Y443186D01*
X656657Y442614D01*
X652086Y442614D01*
X70143Y431400D02*
X72429Y431400D01*
X73571Y430829D01*
X74714Y429686D01*
X75286Y427400D01*
X75286Y423400D01*
X74714Y421114D01*
X73571Y419971D01*
X72429Y419400D01*
X70143Y419400D01*
X69000Y419971D01*
X67857Y421114D01*
X67286Y423400D01*
X67286Y427400D01*
X67857Y429686D01*
X69000Y430829D01*
X70143Y431400D01*
X89914Y431400D02*
X92200Y431400D01*
X93343Y430829D01*
X94486Y429686D01*
X95057Y427400D01*
X95057Y423400D01*
X94486Y421114D01*
X93343Y419971D01*
X92200Y419400D01*
X89914Y419400D01*
X88771Y419971D01*
X87629Y421114D01*
X87057Y423400D01*
X87057Y427400D01*
X87629Y429686D01*
X88771Y430829D01*
X89914Y431400D01*
X99629Y419971D02*
X101343Y419400D01*
X104200Y419400D01*
X105343Y419971D01*
X105914Y420543D01*
X106486Y421686D01*
X106486Y422829D01*
X105914Y423971D01*
X105343Y424543D01*
X104200Y425114D01*
X101914Y425686D01*
X100771Y426257D01*
X100200Y426829D01*
X99629Y427971D01*
X99629Y429114D01*
X100200Y430257D01*
X100771Y430829D01*
X101914Y431400D01*
X104771Y431400D01*
X106486Y430829D01*
X118486Y420543D02*
X117914Y419971D01*
X116200Y419400D01*
X115057Y419400D01*
X113343Y419971D01*
X112200Y421114D01*
X111629Y422257D01*
X111057Y424543D01*
X111057Y426257D01*
X111629Y428543D01*
X112200Y429686D01*
X113343Y430829D01*
X115057Y431400D01*
X116200Y431400D01*
X117914Y430829D01*
X118486Y430257D01*
X123057Y422829D02*
X128771Y422829D01*
X121914Y419400D02*
X125914Y431400D01*
X129914Y419400D01*
X140771Y419400D02*
X136771Y425114D01*
X133914Y419400D02*
X133914Y431400D01*
X138486Y431400D01*
X139629Y430829D01*
X140200Y430257D01*
X140771Y429114D01*
X140771Y427400D01*
X140200Y426257D01*
X139629Y425686D01*
X138486Y425114D01*
X133914Y425114D01*
X160314Y419400D02*
X160314Y431400D01*
X164886Y431400D01*
X166029Y430829D01*
X166600Y430257D01*
X167171Y429114D01*
X167171Y427400D01*
X166600Y426257D01*
X166029Y425686D01*
X164886Y425114D01*
X160314Y425114D01*
X179514Y419400D02*
X179514Y431400D01*
X184086Y431400D01*
X185229Y430829D01*
X185800Y430257D01*
X186371Y429114D01*
X186371Y427400D01*
X185800Y426257D01*
X185229Y425686D01*
X184086Y425114D01*
X179514Y425114D01*
X190943Y422829D02*
X196657Y422829D01*
X189800Y419400D02*
X193800Y431400D01*
X197800Y419400D01*
X201800Y419400D02*
X201800Y431400D01*
X206371Y431400D01*
X207514Y430829D01*
X208086Y430257D01*
X208657Y429114D01*
X208657Y427400D01*
X208086Y426257D01*
X207514Y425686D01*
X206371Y425114D01*
X201800Y425114D01*
X213229Y422829D02*
X218943Y422829D01*
X212086Y419400D02*
X216086Y431400D01*
X220086Y419400D01*
X246486Y418257D02*
X245343Y418829D01*
X244200Y419971D01*
X242486Y421686D01*
X241343Y422257D01*
X240200Y422257D01*
X240771Y419400D02*
X239629Y419971D01*
X238486Y421114D01*
X237914Y423400D01*
X237914Y427400D01*
X238486Y429686D01*
X239629Y430829D01*
X240771Y431400D01*
X243057Y431400D01*
X244200Y430829D01*
X245343Y429686D01*
X245914Y427400D01*
X245914Y423400D01*
X245343Y421114D01*
X244200Y419971D01*
X243057Y419400D01*
X240771Y419400D01*
X266257Y418257D02*
X265114Y418829D01*
X263971Y419971D01*
X262257Y421686D01*
X261114Y422257D01*
X259971Y422257D01*
X260543Y419400D02*
X259400Y419971D01*
X258257Y421114D01*
X257686Y423400D01*
X257686Y427400D01*
X258257Y429686D01*
X259400Y430829D01*
X260543Y431400D01*
X262829Y431400D01*
X263971Y430829D01*
X265114Y429686D01*
X265686Y427400D01*
X265686Y423400D01*
X265114Y421114D01*
X263971Y419971D01*
X262829Y419400D01*
X260543Y419400D01*
X270829Y431400D02*
X270829Y421686D01*
X271400Y420543D01*
X271971Y419971D01*
X273114Y419400D01*
X275400Y419400D01*
X276543Y419971D01*
X277114Y420543D01*
X277686Y421686D01*
X277686Y431400D01*
X283400Y425686D02*
X287400Y425686D01*
X289114Y419400D02*
X283400Y419400D01*
X283400Y431400D01*
X289114Y431400D01*
X298257Y425686D02*
X299971Y425114D01*
X300543Y424543D01*
X301114Y423400D01*
X301114Y421686D01*
X300543Y420543D01*
X299971Y419971D01*
X298829Y419400D01*
X294257Y419400D01*
X294257Y431400D01*
X298257Y431400D01*
X299400Y430829D01*
X299971Y430257D01*
X300543Y429114D01*
X300543Y427971D01*
X299971Y426829D01*
X299400Y426257D01*
X298257Y425686D01*
X294257Y425686D01*
X306257Y425686D02*
X310257Y425686D01*
X311971Y419400D02*
X306257Y419400D01*
X306257Y431400D01*
X311971Y431400D01*
X323971Y420543D02*
X323400Y419971D01*
X321686Y419400D01*
X320543Y419400D01*
X318829Y419971D01*
X317686Y421114D01*
X317114Y422257D01*
X316543Y424543D01*
X316543Y426257D01*
X317114Y428543D01*
X317686Y429686D01*
X318829Y430829D01*
X320543Y431400D01*
X321686Y431400D01*
X323400Y430829D01*
X323971Y430257D01*
X350371Y419400D02*
X346371Y425114D01*
X343514Y419400D02*
X343514Y431400D01*
X348086Y431400D01*
X349229Y430829D01*
X349800Y430257D01*
X350371Y429114D01*
X350371Y427400D01*
X349800Y426257D01*
X349229Y425686D01*
X348086Y425114D01*
X343514Y425114D01*
X369571Y419400D02*
X365571Y425114D01*
X362714Y419400D02*
X362714Y431400D01*
X367286Y431400D01*
X368429Y430829D01*
X369000Y430257D01*
X369571Y429114D01*
X369571Y427400D01*
X369000Y426257D01*
X368429Y425686D01*
X367286Y425114D01*
X362714Y425114D01*
X377000Y431400D02*
X379286Y431400D01*
X380429Y430829D01*
X381571Y429686D01*
X382143Y427400D01*
X382143Y423400D01*
X381571Y421114D01*
X380429Y419971D01*
X379286Y419400D01*
X377000Y419400D01*
X375857Y419971D01*
X374714Y421114D01*
X374143Y423400D01*
X374143Y427400D01*
X374714Y429686D01*
X375857Y430829D01*
X377000Y431400D01*
X387286Y419400D02*
X387286Y431400D01*
X391286Y422829D01*
X395286Y431400D01*
X395286Y419400D01*
X401000Y425686D02*
X405000Y425686D01*
X406714Y419400D02*
X401000Y419400D01*
X401000Y431400D01*
X406714Y431400D01*
X414143Y431400D02*
X416429Y431400D01*
X417571Y430829D01*
X418714Y429686D01*
X419286Y427400D01*
X419286Y423400D01*
X418714Y421114D01*
X417571Y419971D01*
X416429Y419400D01*
X414143Y419400D01*
X413000Y419971D01*
X411857Y421114D01*
X411286Y423400D01*
X411286Y427400D01*
X411857Y429686D01*
X413000Y430829D01*
X414143Y431400D01*
X438257Y419971D02*
X439971Y419400D01*
X442829Y419400D01*
X443971Y419971D01*
X444543Y420543D01*
X445114Y421686D01*
X445114Y422829D01*
X444543Y423971D01*
X443971Y424543D01*
X442829Y425114D01*
X440543Y425686D01*
X439400Y426257D01*
X438829Y426829D01*
X438257Y427971D01*
X438257Y429114D01*
X438829Y430257D01*
X439400Y430829D01*
X440543Y431400D01*
X443400Y431400D01*
X445114Y430829D01*
X456886Y419971D02*
X458600Y419400D01*
X461457Y419400D01*
X462600Y419971D01*
X463171Y420543D01*
X463743Y421686D01*
X463743Y422829D01*
X463171Y423971D01*
X462600Y424543D01*
X461457Y425114D01*
X459171Y425686D01*
X458029Y426257D01*
X457457Y426829D01*
X456886Y427971D01*
X456886Y429114D01*
X457457Y430257D01*
X458029Y430829D01*
X459171Y431400D01*
X462029Y431400D01*
X463743Y430829D01*
X468886Y419400D02*
X468886Y431400D01*
X474600Y425686D02*
X478600Y425686D01*
X480314Y419400D02*
X474600Y419400D01*
X474600Y431400D01*
X480314Y431400D01*
X492314Y419400D02*
X488314Y425114D01*
X485457Y419400D02*
X485457Y431400D01*
X490029Y431400D01*
X491171Y430829D01*
X491743Y430257D01*
X492314Y429114D01*
X492314Y427400D01*
X491743Y426257D01*
X491171Y425686D01*
X490029Y425114D01*
X485457Y425114D01*
X504314Y419400D02*
X500314Y425114D01*
X497457Y419400D02*
X497457Y431400D01*
X502029Y431400D01*
X503171Y430829D01*
X503743Y430257D01*
X504314Y429114D01*
X504314Y427400D01*
X503743Y426257D01*
X503171Y425686D01*
X502029Y425114D01*
X497457Y425114D01*
X508886Y422829D02*
X514600Y422829D01*
X507743Y419400D02*
X511743Y431400D01*
X515743Y419400D01*
X532429Y431400D02*
X539286Y431400D01*
X535857Y419400D02*
X535857Y431400D01*
X548771Y431400D02*
X555629Y431400D01*
X552200Y419400D02*
X552200Y431400D01*
X559057Y422829D02*
X564771Y422829D01*
X557914Y419400D02*
X561914Y431400D01*
X565914Y419400D01*
X569914Y419400D02*
X569914Y431400D01*
X576771Y419400D01*
X576771Y431400D01*
X588771Y430829D02*
X587629Y431400D01*
X585914Y431400D01*
X584200Y430829D01*
X583057Y429686D01*
X582486Y428543D01*
X581914Y426257D01*
X581914Y424543D01*
X582486Y422257D01*
X583057Y421114D01*
X584200Y419971D01*
X585914Y419400D01*
X587057Y419400D01*
X588771Y419971D01*
X589343Y420543D01*
X589343Y424543D01*
X587057Y424543D01*
X596771Y431400D02*
X599057Y431400D01*
X600200Y430829D01*
X601343Y429686D01*
X601914Y427400D01*
X601914Y423400D01*
X601343Y421114D01*
X600200Y419971D01*
X599057Y419400D01*
X596771Y419400D01*
X595629Y419971D01*
X594486Y421114D01*
X593914Y423400D01*
X593914Y427400D01*
X594486Y429686D01*
X595629Y430829D01*
X596771Y431400D01*
X621457Y431400D02*
X621457Y421686D01*
X622029Y420543D01*
X622600Y419971D01*
X623743Y419400D01*
X626029Y419400D01*
X627171Y419971D01*
X627743Y420543D01*
X628314Y421686D01*
X628314Y431400D01*
X641229Y431400D02*
X641229Y421686D01*
X641800Y420543D01*
X642371Y419971D01*
X643514Y419400D01*
X645800Y419400D01*
X646943Y419971D01*
X647514Y420543D01*
X648086Y421686D01*
X648086Y431400D01*
X653800Y419400D02*
X653800Y431400D01*
X660657Y419400D01*
X660657Y431400D01*
X666371Y419400D02*
X666371Y431400D01*
X676086Y425686D02*
X672086Y425686D01*
X672086Y419400D02*
X672086Y431400D01*
X677800Y431400D01*
X684657Y431400D02*
X686943Y431400D01*
X688086Y430829D01*
X689229Y429686D01*
X689800Y427400D01*
X689800Y423400D01*
X689229Y421114D01*
X688086Y419971D01*
X686943Y419400D01*
X684657Y419400D01*
X683514Y419971D01*
X682371Y421114D01*
X681800Y423400D01*
X681800Y427400D01*
X682371Y429686D01*
X683514Y430829D01*
X684657Y431400D01*
X701800Y419400D02*
X697800Y425114D01*
X694943Y419400D02*
X694943Y431400D01*
X699514Y431400D01*
X700657Y430829D01*
X701229Y430257D01*
X701800Y429114D01*
X701800Y427400D01*
X701229Y426257D01*
X700657Y425686D01*
X699514Y425114D01*
X694943Y425114D01*
X706943Y419400D02*
X706943Y431400D01*
X710943Y422829D01*
X714943Y431400D01*
X714943Y419400D01*
X66143Y413900D02*
X70143Y401900D01*
X74143Y413900D01*
X83629Y413900D02*
X87629Y401900D01*
X91629Y413900D01*
X95629Y401900D02*
X95629Y413900D01*
X108200Y403043D02*
X107629Y402471D01*
X105914Y401900D01*
X104771Y401900D01*
X103057Y402471D01*
X101914Y403614D01*
X101343Y404757D01*
X100771Y407043D01*
X100771Y408757D01*
X101343Y411043D01*
X101914Y412186D01*
X103057Y413329D01*
X104771Y413900D01*
X105914Y413900D01*
X107629Y413329D01*
X108200Y412757D01*
X111629Y413900D02*
X118486Y413900D01*
X115057Y401900D02*
X115057Y413900D01*
X124771Y413900D02*
X127057Y413900D01*
X128200Y413329D01*
X129343Y412186D01*
X129914Y409900D01*
X129914Y405900D01*
X129343Y403614D01*
X128200Y402471D01*
X127057Y401900D01*
X124771Y401900D01*
X123629Y402471D01*
X122486Y403614D01*
X121914Y405900D01*
X121914Y409900D01*
X122486Y412186D01*
X123629Y413329D01*
X124771Y413900D01*
X141914Y401900D02*
X137914Y407614D01*
X135057Y401900D02*
X135057Y413900D01*
X139629Y413900D01*
X140771Y413329D01*
X141343Y412757D01*
X141914Y411614D01*
X141914Y409900D01*
X141343Y408757D01*
X140771Y408186D01*
X139629Y407614D01*
X135057Y407614D01*
X160314Y413900D02*
X163171Y401900D01*
X165457Y410471D01*
X167743Y401900D01*
X170600Y413900D01*
X181229Y413900D02*
X184086Y401900D01*
X186371Y410471D01*
X188657Y401900D01*
X191514Y413900D01*
X196086Y401900D02*
X196086Y413900D01*
X196086Y408186D02*
X202943Y408186D01*
X202943Y401900D02*
X202943Y413900D01*
X208657Y401900D02*
X208657Y413900D01*
X213800Y402471D02*
X215514Y401900D01*
X218371Y401900D01*
X219514Y402471D01*
X220086Y403043D01*
X220657Y404186D01*
X220657Y405329D01*
X220086Y406471D01*
X219514Y407043D01*
X218371Y407614D01*
X216086Y408186D01*
X214943Y408757D01*
X214371Y409329D01*
X213800Y410471D01*
X213800Y411614D01*
X214371Y412757D01*
X214943Y413329D01*
X216086Y413900D01*
X218943Y413900D01*
X220657Y413329D01*
X225800Y401900D02*
X225800Y413900D01*
X232657Y401900D02*
X227514Y408757D01*
X232657Y413900D02*
X225800Y407043D01*
X237800Y408186D02*
X241800Y408186D01*
X243514Y401900D02*
X237800Y401900D01*
X237800Y413900D01*
X243514Y413900D01*
X250943Y407614D02*
X250943Y401900D01*
X246943Y413900D02*
X250943Y407614D01*
X254943Y413900D01*
X272200Y413900D02*
X280200Y401900D01*
X280200Y413900D02*
X272200Y401900D01*
X290829Y413900D02*
X298829Y401900D01*
X298829Y413900D02*
X290829Y401900D01*
X310257Y401900D02*
X306257Y407614D01*
X303400Y401900D02*
X303400Y413900D01*
X307971Y413900D01*
X309114Y413329D01*
X309686Y412757D01*
X310257Y411614D01*
X310257Y409900D01*
X309686Y408757D01*
X309114Y408186D01*
X307971Y407614D01*
X303400Y407614D01*
X314829Y405329D02*
X320543Y405329D01*
X313686Y401900D02*
X317686Y413900D01*
X321686Y401900D01*
X327971Y407614D02*
X327971Y401900D01*
X323971Y413900D02*
X327971Y407614D01*
X331971Y413900D01*
X352657Y407614D02*
X352657Y401900D01*
X348657Y413900D02*
X352657Y407614D01*
X356657Y413900D01*
X370143Y407614D02*
X370143Y401900D01*
X366143Y413900D02*
X370143Y407614D01*
X374143Y413900D01*
X377571Y405329D02*
X383286Y405329D01*
X376429Y401900D02*
X380429Y413900D01*
X384429Y401900D01*
X388429Y401900D02*
X388429Y413900D01*
X395286Y401900D01*
X395286Y413900D01*
X401000Y401900D02*
X401000Y413900D01*
X407857Y401900D02*
X402714Y408757D01*
X407857Y413900D02*
X401000Y407043D01*
X413000Y408186D02*
X417000Y408186D01*
X418714Y401900D02*
X413000Y401900D01*
X413000Y413900D01*
X418714Y413900D01*
X423857Y408186D02*
X427857Y408186D01*
X429571Y401900D02*
X423857Y401900D01*
X423857Y413900D01*
X429571Y413900D01*
X447971Y413900D02*
X455971Y413900D01*
X447971Y401900D01*
X455971Y401900D01*
X466600Y413900D02*
X474600Y413900D01*
X466600Y401900D01*
X474600Y401900D01*
X479171Y413900D02*
X479171Y404186D01*
X479743Y403043D01*
X480314Y402471D01*
X481457Y401900D01*
X483743Y401900D01*
X484886Y402471D01*
X485457Y403043D01*
X486029Y404186D01*
X486029Y413900D01*
X497457Y401900D02*
X491743Y401900D01*
X491743Y413900D01*
X501457Y413900D02*
X501457Y404186D01*
X502029Y403043D01*
X502600Y402471D01*
X503743Y401900D01*
X506029Y401900D01*
X507171Y402471D01*
X507743Y403043D01*
X508314Y404186D01*
X508314Y413900D01*
X67762Y287643D02*
X74667Y287643D01*
X66381Y283500D02*
X71214Y298000D01*
X76048Y283500D01*
X80881Y283500D02*
X80881Y298000D01*
X89167Y283500D01*
X89167Y298000D01*
X94000Y298000D02*
X102286Y298000D01*
X98143Y283500D02*
X98143Y298000D01*
X107119Y291095D02*
X111952Y291095D01*
X114024Y283500D02*
X107119Y283500D01*
X107119Y298000D01*
X114024Y298000D01*
X120238Y283500D02*
X120238Y298000D01*
X128524Y283500D01*
X128524Y298000D01*
X135429Y283500D02*
X135429Y298000D01*
X143714Y283500D01*
X143714Y298000D01*
X149929Y287643D02*
X156833Y287643D01*
X148548Y283500D02*
X153381Y298000D01*
X158214Y283500D01*
X163738Y284190D02*
X163738Y283500D01*
X163048Y282119D01*
X162357Y281429D01*
X177962Y284190D02*
X180033Y283500D01*
X183486Y283500D01*
X184867Y284190D01*
X185557Y284881D01*
X186248Y286262D01*
X186248Y287643D01*
X185557Y289024D01*
X184867Y289714D01*
X183486Y290405D01*
X180724Y291095D01*
X179343Y291786D01*
X178652Y292476D01*
X177962Y293857D01*
X177962Y295238D01*
X178652Y296619D01*
X179343Y297310D01*
X180724Y298000D01*
X184176Y298000D01*
X186248Y297310D01*
X192462Y283500D02*
X192462Y298000D01*
X206962Y297310D02*
X205581Y298000D01*
X203510Y298000D01*
X201438Y297310D01*
X200057Y295929D01*
X199367Y294548D01*
X198676Y291786D01*
X198676Y289714D01*
X199367Y286952D01*
X200057Y285571D01*
X201438Y284190D01*
X203510Y283500D01*
X204890Y283500D01*
X206962Y284190D01*
X207652Y284881D01*
X207652Y289714D01*
X204890Y289714D01*
X213867Y283500D02*
X213867Y298000D01*
X222152Y283500D01*
X222152Y298000D01*
X228367Y287643D02*
X235271Y287643D01*
X226986Y283500D02*
X231819Y298000D01*
X236652Y283500D01*
X248390Y283500D02*
X241486Y283500D01*
X241486Y298000D01*
X261233Y287643D02*
X268138Y287643D01*
X259852Y283500D02*
X264686Y298000D01*
X269519Y283500D01*
X274352Y283500D02*
X274352Y298000D01*
X282638Y283500D01*
X282638Y298000D01*
X289543Y283500D02*
X289543Y298000D01*
X292995Y298000D01*
X295067Y297310D01*
X296448Y295929D01*
X297138Y294548D01*
X297829Y291786D01*
X297829Y289714D01*
X297138Y286952D01*
X296448Y285571D01*
X295067Y284190D01*
X292995Y283500D01*
X289543Y283500D01*
X310671Y298000D02*
X318957Y298000D01*
X314814Y283500D02*
X314814Y298000D01*
X323790Y283500D02*
X323790Y298000D01*
X330695Y283500D02*
X330695Y298000D01*
X335529Y287643D01*
X340362Y298000D01*
X340362Y283500D01*
X347267Y291095D02*
X352100Y291095D01*
X354171Y283500D02*
X347267Y283500D01*
X347267Y298000D01*
X354171Y298000D01*
X67857Y262500D02*
X67857Y274500D01*
X67857Y268786D02*
X74714Y268786D01*
X74714Y262500D02*
X74714Y274500D01*
X79857Y265929D02*
X85571Y265929D01*
X78714Y262500D02*
X82714Y274500D01*
X86714Y262500D01*
X96429Y262500D02*
X90714Y262500D01*
X90714Y274500D01*
X104429Y268786D02*
X100429Y268786D01*
X100429Y262500D02*
X100429Y274500D01*
X106143Y274500D01*
X110714Y267071D02*
X119857Y267071D01*
X124429Y274500D02*
X127286Y262500D01*
X129571Y271071D01*
X131857Y262500D01*
X134714Y274500D01*
X138714Y265929D02*
X144429Y265929D01*
X137571Y262500D02*
X141571Y274500D01*
X145571Y262500D01*
X147857Y274500D02*
X151857Y262500D01*
X155857Y274500D01*
X159857Y268786D02*
X163857Y268786D01*
X165571Y262500D02*
X159857Y262500D01*
X159857Y274500D01*
X165571Y274500D01*
X177914Y262500D02*
X177914Y274500D01*
X180771Y274500D01*
X182486Y273929D01*
X183629Y272786D01*
X184200Y271643D01*
X184771Y269357D01*
X184771Y267643D01*
X184200Y265357D01*
X183629Y264214D01*
X182486Y263071D01*
X180771Y262500D01*
X177914Y262500D01*
X189914Y262500D02*
X189914Y274500D01*
X195629Y262500D02*
X195629Y274500D01*
X200200Y274500D01*
X201343Y273929D01*
X201914Y273357D01*
X202486Y272214D01*
X202486Y270500D01*
X201914Y269357D01*
X201343Y268786D01*
X200200Y268214D01*
X195629Y268214D01*
X209914Y274500D02*
X212200Y274500D01*
X213343Y273929D01*
X214486Y272786D01*
X215057Y270500D01*
X215057Y266500D01*
X214486Y264214D01*
X213343Y263071D01*
X212200Y262500D01*
X209914Y262500D01*
X208771Y263071D01*
X207629Y264214D01*
X207057Y266500D01*
X207057Y270500D01*
X207629Y272786D01*
X208771Y273929D01*
X209914Y274500D01*
X225914Y262500D02*
X220200Y262500D01*
X220200Y274500D01*
X229914Y268786D02*
X233914Y268786D01*
X235629Y262500D02*
X229914Y262500D01*
X229914Y274500D01*
X235629Y274500D01*
X253114Y270500D02*
X253114Y262500D01*
X250257Y275071D02*
X247400Y266500D01*
X254829Y266500D01*
X264543Y274500D02*
X262257Y274500D01*
X261114Y273929D01*
X260543Y273357D01*
X259400Y271643D01*
X258829Y269357D01*
X258829Y264786D01*
X259400Y263643D01*
X259971Y263071D01*
X261114Y262500D01*
X263400Y262500D01*
X264543Y263071D01*
X265114Y263643D01*
X265686Y264786D01*
X265686Y267643D01*
X265114Y268786D01*
X264543Y269357D01*
X263400Y269929D01*
X261114Y269929D01*
X259971Y269357D01*
X259400Y268786D01*
X258829Y267643D01*
X272543Y269357D02*
X271400Y269929D01*
X270829Y270500D01*
X270257Y271643D01*
X270257Y272214D01*
X270829Y273357D01*
X271400Y273929D01*
X272543Y274500D01*
X274829Y274500D01*
X275971Y273929D01*
X276543Y273357D01*
X277114Y272214D01*
X277114Y271643D01*
X276543Y270500D01*
X275971Y269929D01*
X274829Y269357D01*
X272543Y269357D01*
X271400Y268786D01*
X270829Y268214D01*
X270257Y267071D01*
X270257Y264786D01*
X270829Y263643D01*
X271400Y263071D01*
X272543Y262500D01*
X274829Y262500D01*
X275971Y263071D01*
X276543Y263643D01*
X277114Y264786D01*
X277114Y267071D01*
X276543Y268214D01*
X275971Y268786D01*
X274829Y269357D01*
X290829Y275071D02*
X280543Y259643D01*
X293114Y270500D02*
X297686Y270500D01*
X294829Y262500D02*
X294829Y272786D01*
X295400Y273929D01*
X296543Y274500D01*
X297686Y274500D01*
X305114Y257929D02*
X304543Y258500D01*
X303400Y260214D01*
X302829Y261357D01*
X302257Y263071D01*
X301686Y265929D01*
X301686Y268214D01*
X302257Y271071D01*
X302829Y272786D01*
X303400Y273929D01*
X304543Y275643D01*
X305114Y276214D01*
X309686Y262500D02*
X309686Y274500D01*
X313686Y265929D01*
X317686Y274500D01*
X317686Y262500D01*
X323400Y262500D02*
X323400Y274500D01*
X323400Y268786D02*
X330257Y268786D01*
X330257Y262500D02*
X330257Y274500D01*
X334829Y270500D02*
X341114Y270500D01*
X334829Y262500D01*
X341114Y262500D01*
X344543Y257929D02*
X345114Y258500D01*
X346257Y260214D01*
X346829Y261357D01*
X347400Y263071D01*
X347971Y265929D01*
X347971Y268214D01*
X347400Y271071D01*
X346829Y272786D01*
X346257Y273929D01*
X345114Y275643D01*
X344543Y276214D01*
X359171Y270500D02*
X363743Y270500D01*
X360886Y262500D02*
X360886Y272786D01*
X361457Y273929D01*
X362600Y274500D01*
X363743Y274500D01*
X366029Y270500D02*
X370600Y270500D01*
X367743Y274500D02*
X367743Y264214D01*
X368314Y263071D01*
X369457Y262500D01*
X370600Y262500D01*
X404200Y261357D02*
X403057Y261929D01*
X401914Y263071D01*
X400200Y264786D01*
X399057Y265357D01*
X397914Y265357D01*
X398486Y262500D02*
X397343Y263071D01*
X396200Y264214D01*
X395629Y266500D01*
X395629Y270500D01*
X396200Y272786D01*
X397343Y273929D01*
X398486Y274500D01*
X400771Y274500D01*
X401914Y273929D01*
X403057Y272786D01*
X403629Y270500D01*
X403629Y266500D01*
X403057Y264214D01*
X401914Y263071D01*
X400771Y262500D01*
X398486Y262500D01*
X408771Y274500D02*
X408771Y264786D01*
X409343Y263643D01*
X409914Y263071D01*
X411057Y262500D01*
X413343Y262500D01*
X414486Y263071D01*
X415057Y263643D01*
X415629Y264786D01*
X415629Y274500D01*
X420771Y265929D02*
X426486Y265929D01*
X419629Y262500D02*
X423629Y274500D01*
X427629Y262500D01*
X438486Y262500D02*
X434486Y268214D01*
X431629Y262500D02*
X431629Y274500D01*
X436200Y274500D01*
X437343Y273929D01*
X437914Y273357D01*
X438486Y272214D01*
X438486Y270500D01*
X437914Y269357D01*
X437343Y268786D01*
X436200Y268214D01*
X431629Y268214D01*
X441914Y274500D02*
X448771Y274500D01*
X445343Y262500D02*
X445343Y274500D01*
X452771Y268786D02*
X456771Y268786D01*
X458486Y262500D02*
X452771Y262500D01*
X452771Y274500D01*
X458486Y274500D01*
X470486Y262500D02*
X466486Y268214D01*
X463629Y262500D02*
X463629Y274500D01*
X468200Y274500D01*
X469343Y273929D01*
X469914Y273357D01*
X470486Y272214D01*
X470486Y270500D01*
X469914Y269357D01*
X469343Y268786D01*
X468200Y268214D01*
X463629Y268214D01*
X475629Y267071D02*
X484771Y267071D01*
X489343Y274500D02*
X492200Y262500D01*
X494486Y271071D01*
X496771Y262500D01*
X499629Y274500D01*
X503629Y265929D02*
X509343Y265929D01*
X502486Y262500D02*
X506486Y274500D01*
X510486Y262500D01*
X512771Y274500D02*
X516771Y262500D01*
X520771Y274500D01*
X524771Y268786D02*
X528771Y268786D01*
X530486Y262500D02*
X524771Y262500D01*
X524771Y274500D01*
X530486Y274500D01*
X541114Y274500D02*
X545114Y262500D01*
X549114Y274500D01*
X553114Y268786D02*
X557114Y268786D01*
X558829Y262500D02*
X553114Y262500D01*
X553114Y274500D01*
X558829Y274500D01*
X570829Y262500D02*
X566829Y268214D01*
X563971Y262500D02*
X563971Y274500D01*
X568543Y274500D01*
X569686Y273929D01*
X570257Y273357D01*
X570829Y272214D01*
X570829Y270500D01*
X570257Y269357D01*
X569686Y268786D01*
X568543Y268214D01*
X563971Y268214D01*
X574257Y274500D02*
X581114Y274500D01*
X577686Y262500D02*
X577686Y274500D01*
X591743Y273357D02*
X592314Y273929D01*
X593457Y274500D01*
X596314Y274500D01*
X597457Y273929D01*
X598029Y273357D01*
X598600Y272214D01*
X598600Y271071D01*
X598029Y269357D01*
X591171Y262500D01*
X598600Y262500D01*
X602600Y274500D02*
X610029Y274500D01*
X606029Y269929D01*
X607743Y269929D01*
X608886Y269357D01*
X609457Y268786D01*
X610029Y267643D01*
X610029Y264786D01*
X609457Y263643D01*
X608886Y263071D01*
X607743Y262500D01*
X604314Y262500D01*
X603171Y263071D01*
X602600Y263643D01*
X620314Y270500D02*
X620314Y262500D01*
X617457Y275071D02*
X614600Y266500D01*
X622029Y266500D01*
X635171Y275071D02*
X624886Y259643D01*
X637457Y270500D02*
X642029Y270500D01*
X639171Y262500D02*
X639171Y272786D01*
X639743Y273929D01*
X640886Y274500D01*
X642029Y274500D01*
X651514Y270500D02*
X656086Y270500D01*
X653229Y262500D02*
X653229Y272786D01*
X653800Y273929D01*
X654943Y274500D01*
X656086Y274500D01*
X658371Y270500D02*
X662943Y270500D01*
X660086Y274500D02*
X660086Y264214D01*
X660657Y263071D01*
X661800Y262500D01*
X662943Y262500D01*
X66714Y256725D02*
X69571Y244725D01*
X71857Y253296D01*
X74143Y244725D01*
X77000Y256725D01*
X81000Y248154D02*
X86714Y248154D01*
X79857Y244725D02*
X83857Y256725D01*
X87857Y244725D01*
X90143Y256725D02*
X94143Y244725D01*
X98143Y256725D01*
X102143Y251011D02*
X106143Y251011D01*
X107857Y244725D02*
X102143Y244725D01*
X102143Y256725D01*
X107857Y256725D01*
X118714Y244725D02*
X113000Y244725D01*
X113000Y256725D01*
X122714Y251011D02*
X126714Y251011D01*
X128429Y244725D02*
X122714Y244725D01*
X122714Y256725D01*
X128429Y256725D01*
X133571Y244725D02*
X133571Y256725D01*
X140429Y244725D01*
X140429Y256725D01*
X152429Y256154D02*
X151286Y256725D01*
X149571Y256725D01*
X147857Y256154D01*
X146714Y255011D01*
X146143Y253868D01*
X145571Y251582D01*
X145571Y249868D01*
X146143Y247582D01*
X146714Y246439D01*
X147857Y245296D01*
X149571Y244725D01*
X150714Y244725D01*
X152429Y245296D01*
X153000Y245868D01*
X153000Y249868D01*
X150714Y249868D01*
X156429Y256725D02*
X163286Y256725D01*
X159857Y244725D02*
X159857Y256725D01*
X167286Y244725D02*
X167286Y256725D01*
X167286Y251011D02*
X174143Y251011D01*
X174143Y244725D02*
X174143Y256725D01*
X185914Y256725D02*
X193343Y256725D01*
X189343Y252154D01*
X191057Y252154D01*
X192200Y251582D01*
X192771Y251011D01*
X193343Y249868D01*
X193343Y247011D01*
X192771Y245868D01*
X192200Y245296D01*
X191057Y244725D01*
X187629Y244725D01*
X186486Y245296D01*
X185914Y245868D01*
X200771Y256725D02*
X201914Y256725D01*
X203057Y256154D01*
X203629Y255582D01*
X204200Y254439D01*
X204771Y252154D01*
X204771Y249296D01*
X204200Y247011D01*
X203629Y245868D01*
X203057Y245296D01*
X201914Y244725D01*
X200771Y244725D01*
X199629Y245296D01*
X199057Y245868D01*
X198486Y247011D01*
X197914Y249296D01*
X197914Y252154D01*
X198486Y254439D01*
X199057Y255582D01*
X199629Y256154D01*
X200771Y256725D01*
X212200Y256725D02*
X213343Y256725D01*
X214486Y256154D01*
X215057Y255582D01*
X215629Y254439D01*
X216200Y252154D01*
X216200Y249296D01*
X215629Y247011D01*
X215057Y245868D01*
X214486Y245296D01*
X213343Y244725D01*
X212200Y244725D01*
X211057Y245296D01*
X210486Y245868D01*
X209914Y247011D01*
X209343Y249296D01*
X209343Y252154D01*
X209914Y254439D01*
X210486Y255582D01*
X211057Y256154D01*
X212200Y256725D01*
X229914Y257296D02*
X219629Y241868D01*
X232200Y252725D02*
X236771Y252725D01*
X233914Y244725D02*
X233914Y255011D01*
X234486Y256154D01*
X235629Y256725D01*
X236771Y256725D01*
X244200Y240154D02*
X243629Y240725D01*
X242486Y242439D01*
X241914Y243582D01*
X241343Y245296D01*
X240771Y248154D01*
X240771Y250439D01*
X241343Y253296D01*
X241914Y255011D01*
X242486Y256154D01*
X243629Y257868D01*
X244200Y258439D01*
X248771Y244725D02*
X248771Y256725D01*
X252771Y248154D01*
X256771Y256725D01*
X256771Y244725D01*
X262486Y244725D02*
X262486Y256725D01*
X262486Y251011D02*
X269343Y251011D01*
X269343Y244725D02*
X269343Y256725D01*
X273914Y252725D02*
X280200Y252725D01*
X273914Y244725D01*
X280200Y244725D01*
X283629Y240154D02*
X284200Y240725D01*
X285343Y242439D01*
X285914Y243582D01*
X286486Y245296D01*
X287057Y248154D01*
X287057Y250439D01*
X286486Y253296D01*
X285914Y255011D01*
X285343Y256154D01*
X284200Y257868D01*
X283629Y258439D01*
X299971Y244725D02*
X299971Y252725D01*
X299971Y251582D02*
X300543Y252154D01*
X301686Y252725D01*
X303400Y252725D01*
X304543Y252154D01*
X305114Y251011D01*
X305114Y244725D01*
X305114Y251011D02*
X305686Y252154D01*
X306829Y252725D01*
X308543Y252725D01*
X309686Y252154D01*
X310257Y251011D01*
X310257Y244725D01*
X343857Y244725D02*
X337000Y244725D01*
X340429Y244725D02*
X340429Y256725D01*
X339286Y255011D01*
X338143Y253868D01*
X337000Y253296D01*
X355629Y245296D02*
X357343Y244725D01*
X360200Y244725D01*
X361343Y245296D01*
X361914Y245868D01*
X362486Y247011D01*
X362486Y248154D01*
X361914Y249296D01*
X361343Y249868D01*
X360200Y250439D01*
X357914Y251011D01*
X356771Y251582D01*
X356200Y252154D01*
X355629Y253296D01*
X355629Y254439D01*
X356200Y255582D01*
X356771Y256154D01*
X357914Y256725D01*
X360771Y256725D01*
X362486Y256154D01*
X367629Y249296D02*
X376771Y249296D01*
X382486Y256725D02*
X382486Y247011D01*
X383057Y245868D01*
X383629Y245296D01*
X384771Y244725D01*
X387057Y244725D01*
X388200Y245296D01*
X388771Y245868D01*
X389343Y247011D01*
X389343Y256725D01*
X395057Y244725D02*
X395057Y256725D01*
X401914Y244725D01*
X401914Y256725D01*
X407629Y244725D02*
X407629Y256725D01*
X411629Y256725D02*
X418486Y256725D01*
X415057Y244725D02*
X415057Y256725D01*
X429686Y251011D02*
X438829Y251011D01*
X438829Y247582D02*
X429686Y247582D01*
X456886Y256725D02*
X454600Y256725D01*
X453457Y256154D01*
X452886Y255582D01*
X451743Y253868D01*
X451171Y251582D01*
X451171Y247011D01*
X451743Y245868D01*
X452314Y245296D01*
X453457Y244725D01*
X455743Y244725D01*
X456886Y245296D01*
X457457Y245868D01*
X458029Y247011D01*
X458029Y249868D01*
X457457Y251011D01*
X456886Y251582D01*
X455743Y252154D01*
X453457Y252154D01*
X452314Y251582D01*
X451743Y251011D01*
X451171Y249868D01*
X475514Y244725D02*
X475514Y256725D01*
X475514Y245296D02*
X474371Y244725D01*
X472086Y244725D01*
X470943Y245296D01*
X470371Y245868D01*
X469800Y247011D01*
X469800Y250439D01*
X470371Y251582D01*
X470943Y252154D01*
X472086Y252725D01*
X474371Y252725D01*
X475514Y252154D01*
X485229Y251011D02*
X486943Y250439D01*
X487514Y249868D01*
X488086Y248725D01*
X488086Y247011D01*
X487514Y245868D01*
X486943Y245296D01*
X485800Y244725D01*
X481229Y244725D01*
X481229Y256725D01*
X485229Y256725D01*
X486371Y256154D01*
X486943Y255582D01*
X487514Y254439D01*
X487514Y253296D01*
X486943Y252154D01*
X486371Y251582D01*
X485229Y251011D01*
X481229Y251011D01*
X514257Y245296D02*
X515971Y244725D01*
X518829Y244725D01*
X519971Y245296D01*
X520543Y245868D01*
X521114Y247011D01*
X521114Y248154D01*
X520543Y249296D01*
X519971Y249868D01*
X518829Y250439D01*
X516543Y251011D01*
X515400Y251582D01*
X514829Y252154D01*
X514257Y253296D01*
X514257Y254439D01*
X514829Y255582D01*
X515400Y256154D01*
X516543Y256725D01*
X519400Y256725D01*
X521114Y256154D01*
X526829Y244725D02*
X529114Y244725D01*
X530257Y245296D01*
X530829Y245868D01*
X531971Y247582D01*
X532543Y249868D01*
X532543Y254439D01*
X531971Y255582D01*
X531400Y256154D01*
X530257Y256725D01*
X527971Y256725D01*
X526829Y256154D01*
X526257Y255582D01*
X525686Y254439D01*
X525686Y251582D01*
X526257Y250439D01*
X526829Y249868D01*
X527971Y249296D01*
X530257Y249296D01*
X531400Y249868D01*
X531971Y250439D01*
X532543Y251582D01*
X544886Y251011D02*
X554029Y251011D01*
X554029Y247582D02*
X544886Y247582D01*
X572657Y256725D02*
X566943Y256725D01*
X566371Y251011D01*
X566943Y251582D01*
X568086Y252154D01*
X570943Y252154D01*
X572086Y251582D01*
X572657Y251011D01*
X573229Y249868D01*
X573229Y247011D01*
X572657Y245868D01*
X572086Y245296D01*
X570943Y244725D01*
X568086Y244725D01*
X566943Y245296D01*
X566371Y245868D01*
X580657Y256725D02*
X581800Y256725D01*
X582943Y256154D01*
X583514Y255582D01*
X584086Y254439D01*
X584657Y252154D01*
X584657Y249296D01*
X584086Y247011D01*
X583514Y245868D01*
X582943Y245296D01*
X581800Y244725D01*
X580657Y244725D01*
X579514Y245296D01*
X578943Y245868D01*
X578371Y247011D01*
X577800Y249296D01*
X577800Y252154D01*
X578371Y254439D01*
X578943Y255582D01*
X579514Y256154D01*
X580657Y256725D01*
X602143Y252725D02*
X602143Y244725D01*
X597000Y252725D02*
X597000Y246439D01*
X597571Y245296D01*
X598714Y244725D01*
X600429Y244725D01*
X601571Y245296D01*
X602143Y245868D01*
X606143Y256725D02*
X610143Y244725D01*
X614143Y256725D01*
X67857Y226950D02*
X67857Y238950D01*
X70714Y238950D01*
X72429Y238379D01*
X73571Y237236D01*
X74143Y236093D01*
X74714Y233807D01*
X74714Y232093D01*
X74143Y229807D01*
X73571Y228664D01*
X72429Y227521D01*
X70714Y226950D01*
X67857Y226950D01*
X82143Y238950D02*
X84429Y238950D01*
X85571Y238379D01*
X86714Y237236D01*
X87286Y234950D01*
X87286Y230950D01*
X86714Y228664D01*
X85571Y227521D01*
X84429Y226950D01*
X82143Y226950D01*
X81000Y227521D01*
X79857Y228664D01*
X79286Y230950D01*
X79286Y234950D01*
X79857Y237236D01*
X81000Y238379D01*
X82143Y238950D01*
X92429Y238950D02*
X92429Y229236D01*
X93000Y228093D01*
X93571Y227521D01*
X94714Y226950D01*
X97000Y226950D01*
X98143Y227521D01*
X98714Y228093D01*
X99286Y229236D01*
X99286Y238950D01*
X109000Y233236D02*
X110714Y232664D01*
X111286Y232093D01*
X111857Y230950D01*
X111857Y229236D01*
X111286Y228093D01*
X110714Y227521D01*
X109571Y226950D01*
X105000Y226950D01*
X105000Y238950D01*
X109000Y238950D01*
X110143Y238379D01*
X110714Y237807D01*
X111286Y236664D01*
X111286Y235521D01*
X110714Y234379D01*
X110143Y233807D01*
X109000Y233236D01*
X105000Y233236D01*
X122714Y226950D02*
X117000Y226950D01*
X117000Y238950D01*
X126714Y233236D02*
X130714Y233236D01*
X132429Y226950D02*
X126714Y226950D01*
X126714Y238950D01*
X132429Y238950D01*
X144771Y226950D02*
X144771Y238950D01*
X149343Y238950D01*
X150486Y238379D01*
X151057Y237807D01*
X151629Y236664D01*
X151629Y234950D01*
X151057Y233807D01*
X150486Y233236D01*
X149343Y232664D01*
X144771Y232664D01*
X159057Y238950D02*
X161343Y238950D01*
X162486Y238379D01*
X163629Y237236D01*
X164200Y234950D01*
X164200Y230950D01*
X163629Y228664D01*
X162486Y227521D01*
X161343Y226950D01*
X159057Y226950D01*
X157914Y227521D01*
X156771Y228664D01*
X156200Y230950D01*
X156200Y234950D01*
X156771Y237236D01*
X157914Y238379D01*
X159057Y238950D01*
X168200Y238950D02*
X171057Y226950D01*
X173343Y235521D01*
X175629Y226950D01*
X178486Y238950D01*
X183057Y233236D02*
X187057Y233236D01*
X188771Y226950D02*
X183057Y226950D01*
X183057Y238950D01*
X188771Y238950D01*
X200771Y226950D02*
X196771Y232664D01*
X193914Y226950D02*
X193914Y238950D01*
X198486Y238950D01*
X199629Y238379D01*
X200200Y237807D01*
X200771Y236664D01*
X200771Y234950D01*
X200200Y233807D01*
X199629Y233236D01*
X198486Y232664D01*
X193914Y232664D01*
X213114Y233236D02*
X222257Y233236D01*
X222257Y229807D02*
X213114Y229807D01*
X235171Y231521D02*
X244314Y231521D01*
X239743Y226950D02*
X239743Y236093D01*
X248886Y238950D02*
X256314Y238950D01*
X252314Y234379D01*
X254029Y234379D01*
X255171Y233807D01*
X255743Y233236D01*
X256314Y232093D01*
X256314Y229236D01*
X255743Y228093D01*
X255171Y227521D01*
X254029Y226950D01*
X250600Y226950D01*
X249457Y227521D01*
X248886Y228093D01*
X273800Y226950D02*
X273800Y238950D01*
X273800Y227521D02*
X272657Y226950D01*
X270371Y226950D01*
X269229Y227521D01*
X268657Y228093D01*
X268086Y229236D01*
X268086Y232664D01*
X268657Y233807D01*
X269229Y234379D01*
X270371Y234950D01*
X272657Y234950D01*
X273800Y234379D01*
X283514Y233236D02*
X285229Y232664D01*
X285800Y232093D01*
X286371Y230950D01*
X286371Y229236D01*
X285800Y228093D01*
X285229Y227521D01*
X284086Y226950D01*
X279514Y226950D01*
X279514Y238950D01*
X283514Y238950D01*
X284657Y238379D01*
X285229Y237807D01*
X285800Y236664D01*
X285800Y235521D01*
X285229Y234379D01*
X284657Y233807D01*
X283514Y233236D01*
X279514Y233236D01*
X313114Y238950D02*
X313114Y229236D01*
X313686Y228093D01*
X314257Y227521D01*
X315400Y226950D01*
X317686Y226950D01*
X318829Y227521D01*
X319400Y228093D01*
X319971Y229236D01*
X319971Y238950D01*
X323971Y238950D02*
X330829Y238950D01*
X327400Y226950D02*
X327400Y238950D01*
X341686Y228093D02*
X341114Y227521D01*
X339400Y226950D01*
X338257Y226950D01*
X336543Y227521D01*
X335400Y228664D01*
X334829Y229807D01*
X334257Y232093D01*
X334257Y233807D01*
X334829Y236093D01*
X335400Y237236D01*
X336543Y238379D01*
X338257Y238950D01*
X339400Y238950D01*
X341114Y238379D01*
X341686Y237807D01*
X354029Y233236D02*
X363171Y233236D01*
X363171Y229807D02*
X354029Y229807D01*
X376086Y226950D02*
X376086Y238950D01*
X380657Y238950D01*
X381800Y238379D01*
X382371Y237807D01*
X382943Y236664D01*
X382943Y234950D01*
X382371Y233807D01*
X381800Y233236D01*
X380657Y232664D01*
X376086Y232664D01*
X387514Y227521D02*
X389229Y226950D01*
X392086Y226950D01*
X393229Y227521D01*
X393800Y228093D01*
X394371Y229236D01*
X394371Y230379D01*
X393800Y231521D01*
X393229Y232093D01*
X392086Y232664D01*
X389800Y233236D01*
X388657Y233807D01*
X388086Y234379D01*
X387514Y235521D01*
X387514Y236664D01*
X388086Y237807D01*
X388657Y238379D01*
X389800Y238950D01*
X392657Y238950D01*
X394371Y238379D01*
X397800Y238950D02*
X404657Y238950D01*
X401229Y226950D02*
X401229Y238950D01*
X415857Y231521D02*
X425000Y231521D01*
X420429Y226950D02*
X420429Y236093D01*
X439629Y233807D02*
X438486Y234379D01*
X437914Y234950D01*
X437343Y236093D01*
X437343Y236664D01*
X437914Y237807D01*
X438486Y238379D01*
X439629Y238950D01*
X441914Y238950D01*
X443057Y238379D01*
X443629Y237807D01*
X444200Y236664D01*
X444200Y236093D01*
X443629Y234950D01*
X443057Y234379D01*
X441914Y233807D01*
X439629Y233807D01*
X438486Y233236D01*
X437914Y232664D01*
X437343Y231521D01*
X437343Y229236D01*
X437914Y228093D01*
X438486Y227521D01*
X439629Y226950D01*
X441914Y226950D01*
X443057Y227521D01*
X443629Y228093D01*
X444200Y229236D01*
X444200Y231521D01*
X443629Y232664D01*
X443057Y233236D01*
X441914Y233807D01*
X456543Y226950D02*
X456543Y238950D01*
X461686Y226950D02*
X461686Y233236D01*
X461114Y234379D01*
X459971Y234950D01*
X458257Y234950D01*
X457114Y234379D01*
X456543Y233807D01*
X474600Y233236D02*
X483743Y233236D01*
X483743Y229807D02*
X474600Y229807D01*
X496657Y226950D02*
X496657Y238950D01*
X501229Y238950D01*
X502371Y238379D01*
X502943Y237807D01*
X503514Y236664D01*
X503514Y234950D01*
X502943Y233807D01*
X502371Y233236D01*
X501229Y232664D01*
X496657Y232664D01*
X508657Y226950D02*
X508657Y238950D01*
X511514Y238950D01*
X513229Y238379D01*
X514371Y237236D01*
X514943Y236093D01*
X515514Y233807D01*
X515514Y232093D01*
X514943Y229807D01*
X514371Y228664D01*
X513229Y227521D01*
X511514Y226950D01*
X508657Y226950D01*
X518943Y238950D02*
X525800Y238950D01*
X522371Y226950D02*
X522371Y238950D01*
X537000Y231521D02*
X546143Y231521D01*
X541571Y226950D02*
X541571Y236093D01*
X557914Y238950D02*
X565914Y238950D01*
X560771Y226950D01*
X577686Y226950D02*
X577686Y238950D01*
X582829Y226950D02*
X582829Y233236D01*
X582257Y234379D01*
X581114Y234950D01*
X579400Y234950D01*
X578257Y234379D01*
X577686Y233807D01*
M02*
