G04 RFH-2 top cover - generated from RFH-2.brd*
G75*
%MOMM*%
%FSLAX44Y44*%
%LPD*%
%INSilkscreen Top*%
%IPPOS*%
G01*
%ADD10C,0.200000*%
D10*
X278279Y747400D02*
X256507Y747400D01*
X267393Y747400D02*
X267393Y785500D01*
X263764Y780057D01*
X260136Y776429D01*
X256507Y774614D01*
X472407Y781871D02*
X474221Y783686D01*
X477850Y785500D01*
X486921Y785500D01*
X490550Y783686D01*
X492364Y781871D01*
X494179Y778243D01*
X494179Y774614D01*
X492364Y769171D01*
X470593Y747400D01*
X494179Y747400D01*
X673793Y785500D02*
X697379Y785500D01*
X684679Y770986D01*
X690121Y770986D01*
X693750Y769171D01*
X695564Y767357D01*
X697379Y763729D01*
X697379Y754657D01*
X695564Y751029D01*
X693750Y749214D01*
X690121Y747400D01*
X679236Y747400D01*
X675607Y749214D01*
X673793Y751029D01*
X274650Y582300D02*
X274650Y556900D01*
X265579Y596814D02*
X256507Y569600D01*
X280093Y569600D01*
X695564Y595000D02*
X677421Y595000D01*
X675607Y576857D01*
X677421Y578671D01*
X681050Y580486D01*
X690121Y580486D01*
X693750Y578671D01*
X695564Y576857D01*
X697379Y573229D01*
X697379Y564157D01*
X695564Y560529D01*
X693750Y558714D01*
X690121Y556900D01*
X681050Y556900D01*
X677421Y558714D01*
X675607Y560529D01*
X445798Y556900D02*
X445798Y582300D01*
X454264Y564157D01*
X462731Y582300D01*
X462731Y556900D01*
X474826Y570205D02*
X483293Y570205D01*
X486921Y556900D02*
X474826Y556900D01*
X474826Y582300D01*
X486921Y582300D01*
X497807Y556900D02*
X497807Y582300D01*
X506274Y564157D01*
X514740Y582300D01*
X514740Y556900D01*
X242598Y366400D02*
X242598Y391800D01*
X248645Y391800D01*
X252274Y390590D01*
X254693Y388171D01*
X255902Y385752D01*
X257112Y380914D01*
X257112Y377286D01*
X255902Y372448D01*
X254693Y370029D01*
X252274Y367610D01*
X248645Y366400D01*
X242598Y366400D01*
X267998Y379705D02*
X276464Y379705D01*
X280093Y366400D02*
X267998Y366400D01*
X267998Y391800D01*
X280093Y391800D01*
X305493Y368819D02*
X304283Y367610D01*
X300655Y366400D01*
X298236Y366400D01*
X294607Y367610D01*
X292188Y370029D01*
X290979Y372448D01*
X289769Y377286D01*
X289769Y380914D01*
X290979Y385752D01*
X292188Y388171D01*
X294607Y390590D01*
X298236Y391800D01*
X300655Y391800D01*
X304283Y390590D01*
X305493Y389381D01*
X661698Y368300D02*
X661698Y393700D01*
X671374Y393700D01*
X673793Y392490D01*
X675002Y391281D01*
X676212Y388862D01*
X676212Y385233D01*
X675002Y382814D01*
X673793Y381605D01*
X671374Y380395D01*
X661698Y380395D01*
X705240Y394910D02*
X683469Y362252D01*
X722174Y381605D02*
X725802Y380395D01*
X727012Y379186D01*
X728221Y376767D01*
X728221Y373138D01*
X727012Y370719D01*
X725802Y369510D01*
X723383Y368300D01*
X713707Y368300D01*
X713707Y393700D01*
X722174Y393700D01*
X724593Y392490D01*
X725802Y391281D01*
X727012Y388862D01*
X727012Y386443D01*
X725802Y384024D01*
X724593Y382814D01*
X722174Y381605D01*
X713707Y381605D01*
G36*
X452450Y328300D02*
X503250Y328300D01*
X503250Y341000D01*
X477850Y366400D01*
X452450Y341000D01*
X452450Y328300D01*
G37*
G36*
X452450Y201300D02*
X503250Y201300D01*
X503250Y188600D01*
X477850Y163200D01*
X452450Y188600D01*
X452450Y201300D01*
G37*
G36*
X270840Y220350D02*
X270840Y169550D01*
X258140Y169550D01*
X232740Y194950D01*
X258140Y220350D01*
X270840Y220350D01*
G37*
G36*
X655650Y214000D02*
X655650Y163200D01*
X668350Y163200D01*
X693750Y188600D01*
X668350Y214000D01*
X655650Y214000D01*
G37*
X50000Y314571D02*
X41429Y308571D01*
X50000Y304286D02*
X32000Y304286D01*
X32000Y311143D01*
X32857Y312857D01*
X33714Y313714D01*
X35429Y314571D01*
X38000Y314571D01*
X39714Y313714D01*
X40571Y312857D01*
X41429Y311143D01*
X41429Y304286D01*
X40571Y328286D02*
X40571Y322286D01*
X50000Y322286D02*
X32000Y322286D01*
X32000Y330857D01*
X50000Y337714D02*
X32000Y337714D01*
X40571Y337714D02*
X40571Y348000D01*
X50000Y348000D02*
X32000Y348000D01*
X43143Y356571D02*
X43143Y370286D01*
X33714Y378000D02*
X32857Y378857D01*
X32000Y380571D01*
X32000Y384857D01*
X32857Y386571D01*
X33714Y387429D01*
X35429Y388286D01*
X37143Y388286D01*
X39714Y387429D01*
X50000Y377143D01*
X50000Y388286D01*
X32000Y404229D02*
X32000Y414514D01*
X50000Y409371D02*
X32000Y409371D01*
X32000Y423943D02*
X32000Y427371D01*
X32857Y429086D01*
X34571Y430800D01*
X38000Y431657D01*
X44000Y431657D01*
X47429Y430800D01*
X49143Y429086D01*
X50000Y427371D01*
X50000Y423943D01*
X49143Y422229D01*
X47429Y420514D01*
X44000Y419657D01*
X38000Y419657D01*
X34571Y420514D01*
X32857Y422229D01*
X32000Y423943D01*
X50000Y439371D02*
X32000Y439371D01*
X32000Y446229D01*
X32857Y447943D01*
X33714Y448800D01*
X35429Y449657D01*
X38000Y449657D01*
X39714Y448800D01*
X40571Y447943D01*
X41429Y446229D01*
X41429Y439371D01*
X48286Y478457D02*
X49143Y477600D01*
X50000Y475029D01*
X50000Y473314D01*
X49143Y470743D01*
X47429Y469029D01*
X45714Y468171D01*
X42286Y467314D01*
X39714Y467314D01*
X36286Y468171D01*
X34571Y469029D01*
X32857Y470743D01*
X32000Y473314D01*
X32000Y475029D01*
X32857Y477600D01*
X33714Y478457D01*
X32000Y489600D02*
X32000Y493029D01*
X32857Y494743D01*
X34571Y496457D01*
X38000Y497314D01*
X44000Y497314D01*
X47429Y496457D01*
X49143Y494743D01*
X50000Y493029D01*
X50000Y489600D01*
X49143Y487886D01*
X47429Y486171D01*
X44000Y485314D01*
X38000Y485314D01*
X34571Y486171D01*
X32857Y487886D01*
X32000Y489600D01*
X32000Y502457D02*
X50000Y508457D01*
X32000Y514457D01*
X40571Y520457D02*
X40571Y526457D01*
X50000Y529029D02*
X50000Y520457D01*
X32000Y520457D01*
X32000Y529029D01*
X50000Y547029D02*
X41429Y541029D01*
X50000Y536743D02*
X32000Y536743D01*
X32000Y543600D01*
X32857Y545314D01*
X33714Y546171D01*
X35429Y547029D01*
X38000Y547029D01*
X39714Y546171D01*
X40571Y545314D01*
X41429Y543600D01*
X41429Y536743D01*
X200971Y74000D02*
X200971Y100000D01*
X215829Y74000D02*
X204686Y88857D01*
X215829Y100000D02*
X200971Y85143D01*
X226971Y74000D02*
X226971Y100000D01*
X235638Y81429D01*
X244305Y100000D01*
X244305Y74000D01*
X254210Y100000D02*
X271543Y100000D01*
X260400Y74000D01*
X281448Y74000D02*
X281448Y100000D01*
X281448Y87619D02*
X296305Y87619D01*
X296305Y74000D02*
X296305Y100000D01*
X308686Y74000D02*
X308686Y100000D01*
X323543Y74000D02*
X312400Y88857D01*
X323543Y100000D02*
X308686Y85143D01*
X334686Y74000D02*
X334686Y100000D01*
X343352Y81429D01*
X352019Y100000D01*
X352019Y74000D01*
X398571Y101238D02*
X376286Y67810D01*
X420362Y100000D02*
X426552Y74000D01*
X431505Y92571D01*
X436457Y74000D01*
X442648Y100000D01*
X451314Y81429D02*
X463695Y81429D01*
X448838Y74000D02*
X457505Y100000D01*
X466171Y74000D01*
X472362Y100000D02*
X489695Y100000D01*
X478552Y74000D01*
X499600Y74000D02*
X499600Y100000D01*
X505790Y100000D01*
X509505Y98762D01*
X511981Y96286D01*
X513219Y93810D01*
X514457Y88857D01*
X514457Y85143D01*
X513219Y80190D01*
X511981Y77714D01*
X509505Y75238D01*
X505790Y74000D01*
X499600Y74000D01*
X524362Y81429D02*
X536743Y81429D01*
X521886Y74000D02*
X530552Y100000D01*
X539219Y74000D01*
X547886Y74000D02*
X547886Y100000D01*
X556552Y81429D01*
X565219Y100000D01*
X565219Y74000D01*
M02*
