G04 RFH-2 top cover - generated from RFH-2.brd*
G75*
%MOMM*%
%FSLAX44Y44*%
%LPD*%
%INSilkscreen Top*%
%IPPOS*%
G01*
%ADD10C,0.200000*%
D10*
X278279Y747400D02*
X256507Y747400D01*
X267393Y747400D02*
X267393Y785500D01*
X263764Y780057D01*
X260136Y776429D01*
X256507Y774614D01*
X472407Y781871D02*
X474221Y783686D01*
X477850Y785500D01*
X486921Y785500D01*
X490550Y783686D01*
X492364Y781871D01*
X494179Y778243D01*
X494179Y774614D01*
X492364Y769171D01*
X470593Y747400D01*
X494179Y747400D01*
X673793Y785500D02*
X697379Y785500D01*
X684679Y770986D01*
X690121Y770986D01*
X693750Y769171D01*
X695564Y767357D01*
X697379Y763729D01*
X697379Y754657D01*
X695564Y751029D01*
X693750Y749214D01*
X690121Y747400D01*
X679236Y747400D01*
X675607Y749214D01*
X673793Y751029D01*
X274650Y582300D02*
X274650Y556900D01*
X265579Y596814D02*
X256507Y569600D01*
X280093Y569600D01*
X695564Y595000D02*
X677421Y595000D01*
X675607Y576857D01*
X677421Y578671D01*
X681050Y580486D01*
X690121Y580486D01*
X693750Y578671D01*
X695564Y576857D01*
X697379Y573229D01*
X697379Y564157D01*
X695564Y560529D01*
X693750Y558714D01*
X690121Y556900D01*
X681050Y556900D01*
X677421Y558714D01*
X675607Y560529D01*
X445798Y556900D02*
X445798Y582300D01*
X454264Y564157D01*
X462731Y582300D01*
X462731Y556900D01*
X474826Y570205D02*
X483293Y570205D01*
X486921Y556900D02*
X474826Y556900D01*
X474826Y582300D01*
X486921Y582300D01*
X497807Y556900D02*
X497807Y582300D01*
X506274Y564157D01*
X514740Y582300D01*
X514740Y556900D01*
X242598Y366400D02*
X242598Y391800D01*
X248645Y391800D01*
X252274Y390590D01*
X254693Y388171D01*
X255902Y385752D01*
X257112Y380914D01*
X257112Y377286D01*
X255902Y372448D01*
X254693Y370029D01*
X252274Y367610D01*
X248645Y366400D01*
X242598Y366400D01*
X267998Y379705D02*
X276464Y379705D01*
X280093Y366400D02*
X267998Y366400D01*
X267998Y391800D01*
X280093Y391800D01*
X305493Y368819D02*
X304283Y367610D01*
X300655Y366400D01*
X298236Y366400D01*
X294607Y367610D01*
X292188Y370029D01*
X290979Y372448D01*
X289769Y377286D01*
X289769Y380914D01*
X290979Y385752D01*
X292188Y388171D01*
X294607Y390590D01*
X298236Y391800D01*
X300655Y391800D01*
X304283Y390590D01*
X305493Y389381D01*
X661698Y368300D02*
X661698Y393700D01*
X671374Y393700D01*
X673793Y392490D01*
X675002Y391281D01*
X676212Y388862D01*
X676212Y385233D01*
X675002Y382814D01*
X673793Y381605D01*
X671374Y380395D01*
X661698Y380395D01*
X705240Y394910D02*
X683469Y362252D01*
X722174Y381605D02*
X725802Y380395D01*
X727012Y379186D01*
X728221Y376767D01*
X728221Y373138D01*
X727012Y370719D01*
X725802Y369510D01*
X723383Y368300D01*
X713707Y368300D01*
X713707Y393700D01*
X722174Y393700D01*
X724593Y392490D01*
X725802Y391281D01*
X727012Y388862D01*
X727012Y386443D01*
X725802Y384024D01*
X724593Y382814D01*
X722174Y381605D01*
X713707Y381605D01*
G36*
X452450Y328300D02*
X503250Y328300D01*
X503250Y341000D01*
X477850Y366400D01*
X452450Y341000D01*
X452450Y328300D01*
G37*
G36*
X452450Y201300D02*
X503250Y201300D01*
X503250Y188600D01*
X477850Y163200D01*
X452450Y188600D01*
X452450Y201300D01*
G37*
G36*
X270840Y220350D02*
X270840Y169550D01*
X258140Y169550D01*
X232740Y194950D01*
X258140Y220350D01*
X270840Y220350D01*
G37*
G36*
X655650Y214000D02*
X655650Y163200D01*
X668350Y163200D01*
X693750Y188600D01*
X668350Y214000D01*
X655650Y214000D01*
G37*
X50000Y314571D02*
X41429Y308571D01*
X50000Y304286D02*
X32000Y304286D01*
X32000Y311143D01*
X32857Y312857D01*
X33714Y313714D01*
X35429Y314571D01*
X38000Y314571D01*
X39714Y313714D01*
X40571Y312857D01*
X41429Y311143D01*
X41429Y304286D01*
X40571Y328286D02*
X40571Y322286D01*
X50000Y322286D02*
X32000Y322286D01*
X32000Y330857D01*
X50000Y337714D02*
X32000Y337714D01*
X40571Y337714D02*
X40571Y348000D01*
X50000Y348000D02*
X32000Y348000D01*
X43143Y356571D02*
X43143Y370286D01*
X33714Y378000D02*
X32857Y378857D01*
X32000Y380571D01*
X32000Y384857D01*
X32857Y386571D01*
X33714Y387429D01*
X35429Y388286D01*
X37143Y388286D01*
X39714Y387429D01*
X50000Y377143D01*
X50000Y388286D01*
X32000Y404229D02*
X32000Y414514D01*
X50000Y409371D02*
X32000Y409371D01*
X32000Y423943D02*
X32000Y427371D01*
X32857Y429086D01*
X34571Y430800D01*
X38000Y431657D01*
X44000Y431657D01*
X47429Y430800D01*
X49143Y429086D01*
X50000Y427371D01*
X50000Y423943D01*
X49143Y422229D01*
X47429Y420514D01*
X44000Y419657D01*
X38000Y419657D01*
X34571Y420514D01*
X32857Y422229D01*
X32000Y423943D01*
X50000Y439371D02*
X32000Y439371D01*
X32000Y446229D01*
X32857Y447943D01*
X33714Y448800D01*
X35429Y449657D01*
X38000Y449657D01*
X39714Y448800D01*
X40571Y447943D01*
X41429Y446229D01*
X41429Y439371D01*
X48286Y478457D02*
X49143Y477600D01*
X50000Y475029D01*
X50000Y473314D01*
X49143Y470743D01*
X47429Y469029D01*
X45714Y468171D01*
X42286Y467314D01*
X39714Y467314D01*
X36286Y468171D01*
X34571Y469029D01*
X32857Y470743D01*
X32000Y473314D01*
X32000Y475029D01*
X32857Y477600D01*
X33714Y478457D01*
X32000Y489600D02*
X32000Y493029D01*
X32857Y494743D01*
X34571Y496457D01*
X38000Y497314D01*
X44000Y497314D01*
X47429Y496457D01*
X49143Y494743D01*
X50000Y493029D01*
X50000Y489600D01*
X49143Y487886D01*
X47429Y486171D01*
X44000Y485314D01*
X38000Y485314D01*
X34571Y486171D01*
X32857Y487886D01*
X32000Y489600D01*
X32000Y502457D02*
X50000Y508457D01*
X32000Y514457D01*
X40571Y520457D02*
X40571Y526457D01*
X50000Y529029D02*
X50000Y520457D01*
X32000Y520457D01*
X32000Y529029D01*
X50000Y547029D02*
X41429Y541029D01*
X50000Y536743D02*
X32000Y536743D01*
X32000Y543600D01*
X32857Y545314D01*
X33714Y546171D01*
X35429Y547029D01*
X38000Y547029D01*
X39714Y546171D01*
X40571Y545314D01*
X41429Y543600D01*
X41429Y536743D01*
X200971Y74000D02*
X200971Y100000D01*
X215829Y74000D02*
X204686Y88857D01*
X215829Y100000D02*
X200971Y85143D01*
X226971Y74000D02*
X226971Y100000D01*
X235638Y81429D01*
X244305Y100000D01*
X244305Y74000D01*
X254210Y100000D02*
X271543Y100000D01*
X260400Y74000D01*
X281448Y74000D02*
X281448Y100000D01*
X281448Y87619D02*
X296305Y87619D01*
X296305Y74000D02*
X296305Y100000D01*
X308686Y74000D02*
X308686Y100000D01*
X323543Y74000D02*
X312400Y88857D01*
X323543Y100000D02*
X308686Y85143D01*
X334686Y74000D02*
X334686Y100000D01*
X343352Y81429D01*
X352019Y100000D01*
X352019Y74000D01*
X398571Y101238D02*
X376286Y67810D01*
X420362Y100000D02*
X426552Y74000D01*
X431505Y92571D01*
X436457Y74000D01*
X442648Y100000D01*
X451314Y81429D02*
X463695Y81429D01*
X448838Y74000D02*
X457505Y100000D01*
X466171Y74000D01*
X472362Y100000D02*
X489695Y100000D01*
X478552Y74000D01*
X499600Y74000D02*
X499600Y100000D01*
X505790Y100000D01*
X509505Y98762D01*
X511981Y96286D01*
X513219Y93810D01*
X514457Y88857D01*
X514457Y85143D01*
X513219Y80190D01*
X511981Y77714D01*
X509505Y75238D01*
X505790Y74000D01*
X499600Y74000D01*
X524362Y81429D02*
X536743Y81429D01*
X521886Y74000D02*
X530552Y100000D01*
X539219Y74000D01*
X547886Y74000D02*
X547886Y100000D01*
X556552Y81429D01*
X565219Y100000D01*
X565219Y74000D01*
X68452Y664500D02*
X68452Y679000D01*
X73286Y668643D01*
X78119Y679000D01*
X78119Y664500D01*
X87786Y679000D02*
X90548Y679000D01*
X91929Y678310D01*
X93310Y676929D01*
X94000Y674167D01*
X94000Y669333D01*
X93310Y666571D01*
X91929Y665190D01*
X90548Y664500D01*
X87786Y664500D01*
X86405Y665190D01*
X85024Y666571D01*
X84333Y669333D01*
X84333Y674167D01*
X85024Y676929D01*
X86405Y678310D01*
X87786Y679000D01*
X108500Y664500D02*
X103667Y671405D01*
X100214Y664500D02*
X100214Y679000D01*
X105738Y679000D01*
X107119Y678310D01*
X107810Y677619D01*
X108500Y676238D01*
X108500Y674167D01*
X107810Y672786D01*
X107119Y672095D01*
X105738Y671405D01*
X100214Y671405D01*
X114024Y665190D02*
X116095Y664500D01*
X119548Y664500D01*
X120929Y665190D01*
X121619Y665881D01*
X122310Y667262D01*
X122310Y668643D01*
X121619Y670024D01*
X120929Y670714D01*
X119548Y671405D01*
X116786Y672095D01*
X115405Y672786D01*
X114714Y673476D01*
X114024Y674857D01*
X114024Y676238D01*
X114714Y677619D01*
X115405Y678310D01*
X116786Y679000D01*
X120238Y679000D01*
X122310Y678310D01*
X128524Y672095D02*
X133357Y672095D01*
X135429Y664500D02*
X128524Y664500D01*
X128524Y679000D01*
X135429Y679000D01*
X158629Y665881D02*
X157938Y665190D01*
X155867Y664500D01*
X154486Y664500D01*
X152414Y665190D01*
X151033Y666571D01*
X150343Y667952D01*
X149652Y670714D01*
X149652Y672786D01*
X150343Y675548D01*
X151033Y676929D01*
X152414Y678310D01*
X154486Y679000D01*
X155867Y679000D01*
X157938Y678310D01*
X158629Y677619D01*
X167605Y679000D02*
X170367Y679000D01*
X171748Y678310D01*
X173129Y676929D01*
X173819Y674167D01*
X173819Y669333D01*
X173129Y666571D01*
X171748Y665190D01*
X170367Y664500D01*
X167605Y664500D01*
X166224Y665190D01*
X164843Y666571D01*
X164152Y669333D01*
X164152Y674167D01*
X164843Y676929D01*
X166224Y678310D01*
X167605Y679000D01*
X180033Y664500D02*
X180033Y679000D01*
X183486Y679000D01*
X185557Y678310D01*
X186938Y676929D01*
X187629Y675548D01*
X188319Y672786D01*
X188319Y670714D01*
X187629Y667952D01*
X186938Y666571D01*
X185557Y665190D01*
X183486Y664500D01*
X180033Y664500D01*
X194533Y672095D02*
X199367Y672095D01*
X201438Y664500D02*
X194533Y664500D01*
X194533Y679000D01*
X201438Y679000D01*
X67286Y646929D02*
X73000Y646929D01*
X66143Y643500D02*
X70143Y655500D01*
X74143Y643500D01*
X85343Y644643D02*
X85914Y644071D01*
X85343Y643500D01*
X84771Y644071D01*
X85343Y644643D01*
X85343Y643500D01*
X91057Y648071D02*
X100200Y648071D01*
X138714Y649786D02*
X140429Y649214D01*
X141000Y648643D01*
X141571Y647500D01*
X141571Y645786D01*
X141000Y644643D01*
X140429Y644071D01*
X139286Y643500D01*
X134714Y643500D01*
X134714Y655500D01*
X138714Y655500D01*
X139857Y654929D01*
X140429Y654357D01*
X141000Y653214D01*
X141000Y652071D01*
X140429Y650929D01*
X139857Y650357D01*
X138714Y649786D01*
X134714Y649786D01*
X153914Y648071D02*
X163057Y648071D01*
X168771Y644643D02*
X169343Y644071D01*
X168771Y643500D01*
X168200Y644071D01*
X168771Y644643D01*
X168771Y643500D01*
X174486Y644643D02*
X175057Y644071D01*
X174486Y643500D01*
X173914Y644071D01*
X174486Y644643D01*
X174486Y643500D01*
X180200Y644643D02*
X180771Y644071D01*
X180200Y643500D01*
X179629Y644071D01*
X180200Y644643D01*
X180200Y643500D01*
X207171Y644643D02*
X206600Y644071D01*
X204886Y643500D01*
X203743Y643500D01*
X202029Y644071D01*
X200886Y645214D01*
X200314Y646357D01*
X199743Y648643D01*
X199743Y650357D01*
X200314Y652643D01*
X200886Y653786D01*
X202029Y654929D01*
X203743Y655500D01*
X204886Y655500D01*
X206600Y654929D01*
X207171Y654357D01*
X219514Y648071D02*
X228657Y648071D01*
X234371Y644643D02*
X234943Y644071D01*
X234371Y643500D01*
X233800Y644071D01*
X234371Y644643D01*
X234371Y643500D01*
X240086Y648071D02*
X249229Y648071D01*
X254943Y644643D02*
X255514Y644071D01*
X254943Y643500D01*
X254371Y644071D01*
X254943Y644643D01*
X254943Y643500D01*
X275057Y643500D02*
X275057Y655500D01*
X277914Y655500D01*
X279629Y654929D01*
X280771Y653786D01*
X281343Y652643D01*
X281914Y650357D01*
X281914Y648643D01*
X281343Y646357D01*
X280771Y645214D01*
X279629Y644071D01*
X277914Y643500D01*
X275057Y643500D01*
X294257Y648071D02*
X303400Y648071D01*
X309114Y644643D02*
X309686Y644071D01*
X309114Y643500D01*
X308543Y644071D01*
X309114Y644643D01*
X309114Y643500D01*
X314829Y644643D02*
X315400Y644071D01*
X314829Y643500D01*
X314257Y644071D01*
X314829Y644643D01*
X314829Y643500D01*
X342143Y649786D02*
X346143Y649786D01*
X347857Y643500D02*
X342143Y643500D01*
X342143Y655500D01*
X347857Y655500D01*
X360200Y644643D02*
X360771Y644071D01*
X360200Y643500D01*
X359629Y644071D01*
X360200Y644643D01*
X360200Y643500D01*
X405914Y649786D02*
X401914Y649786D01*
X401914Y643500D02*
X401914Y655500D01*
X407629Y655500D01*
X419400Y644643D02*
X419971Y644071D01*
X419400Y643500D01*
X418829Y644071D01*
X419400Y644643D01*
X419400Y643500D01*
X425114Y644643D02*
X425686Y644071D01*
X425114Y643500D01*
X424543Y644071D01*
X425114Y644643D01*
X425114Y643500D01*
X430829Y648071D02*
X439971Y648071D01*
X445686Y644643D02*
X446257Y644071D01*
X445686Y643500D01*
X445114Y644071D01*
X445686Y644643D01*
X445686Y643500D01*
X472086Y654929D02*
X470943Y655500D01*
X469229Y655500D01*
X467514Y654929D01*
X466371Y653786D01*
X465800Y652643D01*
X465229Y650357D01*
X465229Y648643D01*
X465800Y646357D01*
X466371Y645214D01*
X467514Y644071D01*
X469229Y643500D01*
X470371Y643500D01*
X472086Y644071D01*
X472657Y644643D01*
X472657Y648643D01*
X470371Y648643D01*
X485000Y648071D02*
X494143Y648071D01*
X499857Y648071D02*
X509000Y648071D01*
X514714Y644643D02*
X515286Y644071D01*
X514714Y643500D01*
X514143Y644071D01*
X514714Y644643D01*
X514714Y643500D01*
X542029Y643500D02*
X542029Y655500D01*
X542029Y649786D02*
X548886Y649786D01*
X548886Y643500D02*
X548886Y655500D01*
X561800Y644643D02*
X562371Y644071D01*
X561800Y643500D01*
X561229Y644071D01*
X561800Y644643D01*
X561800Y643500D01*
X567514Y644643D02*
X568086Y644071D01*
X567514Y643500D01*
X566943Y644071D01*
X567514Y644643D01*
X567514Y643500D01*
X573229Y644643D02*
X573800Y644071D01*
X573229Y643500D01*
X572657Y644071D01*
X573229Y644643D01*
X573229Y643500D01*
X578943Y644643D02*
X579514Y644071D01*
X578943Y643500D01*
X578371Y644071D01*
X578943Y644643D01*
X578943Y643500D01*
X599057Y643500D02*
X599057Y655500D01*
X611971Y644643D02*
X612543Y644071D01*
X611971Y643500D01*
X611400Y644071D01*
X611971Y644643D01*
X611971Y643500D01*
X617686Y644643D02*
X618257Y644071D01*
X617686Y643500D01*
X617114Y644071D01*
X617686Y644643D01*
X617686Y643500D01*
X71286Y636050D02*
X71286Y627479D01*
X70714Y625764D01*
X69571Y624621D01*
X67857Y624050D01*
X66714Y624050D01*
X84200Y625193D02*
X84771Y624621D01*
X84200Y624050D01*
X83629Y624621D01*
X84200Y625193D01*
X84200Y624050D01*
X89914Y628621D02*
X99057Y628621D01*
X104771Y628621D02*
X113914Y628621D01*
X119629Y628621D02*
X128771Y628621D01*
X148886Y624050D02*
X148886Y636050D01*
X155743Y624050D02*
X150600Y630907D01*
X155743Y636050D02*
X148886Y629193D01*
X168086Y628621D02*
X177229Y628621D01*
X182943Y625193D02*
X183514Y624621D01*
X182943Y624050D01*
X182371Y624621D01*
X182943Y625193D01*
X182943Y624050D01*
X188657Y628621D02*
X197800Y628621D01*
X230829Y624050D02*
X225114Y624050D01*
X225114Y636050D01*
X242029Y625193D02*
X242600Y624621D01*
X242029Y624050D01*
X241457Y624621D01*
X242029Y625193D01*
X242029Y624050D01*
X247743Y628621D02*
X256886Y628621D01*
X262600Y625193D02*
X263171Y624621D01*
X262600Y624050D01*
X262029Y624621D01*
X262600Y625193D01*
X262600Y624050D01*
X268314Y625193D02*
X268886Y624621D01*
X268314Y624050D01*
X267743Y624621D01*
X268314Y625193D01*
X268314Y624050D01*
X288429Y624050D02*
X288429Y636050D01*
X292429Y627479D01*
X296429Y636050D01*
X296429Y624050D01*
X309343Y628621D02*
X318486Y628621D01*
X324200Y628621D02*
X333343Y628621D01*
X367857Y624050D02*
X367857Y636050D01*
X374714Y624050D01*
X374714Y636050D01*
X387629Y628621D02*
X396771Y628621D01*
X402486Y625193D02*
X403057Y624621D01*
X402486Y624050D01*
X401914Y624621D01*
X402486Y625193D01*
X402486Y624050D01*
X439286Y636050D02*
X441571Y636050D01*
X442714Y635479D01*
X443857Y634336D01*
X444429Y632050D01*
X444429Y628050D01*
X443857Y625764D01*
X442714Y624621D01*
X441571Y624050D01*
X439286Y624050D01*
X438143Y624621D01*
X437000Y625764D01*
X436429Y628050D01*
X436429Y632050D01*
X437000Y634336D01*
X438143Y635479D01*
X439286Y636050D01*
X456771Y628621D02*
X465914Y628621D01*
X471629Y628621D02*
X480771Y628621D01*
X486486Y628621D02*
X495629Y628621D01*
X522943Y624050D02*
X522943Y636050D01*
X527514Y636050D01*
X528657Y635479D01*
X529229Y634907D01*
X529800Y633764D01*
X529800Y632050D01*
X529229Y630907D01*
X528657Y630336D01*
X527514Y629764D01*
X522943Y629764D01*
X542143Y625193D02*
X542714Y624621D01*
X542143Y624050D01*
X541571Y624621D01*
X542143Y625193D01*
X542143Y624050D01*
X547857Y628621D02*
X557000Y628621D01*
X562714Y628621D02*
X571857Y628621D01*
X577571Y625193D02*
X578143Y624621D01*
X577571Y624050D01*
X577000Y624621D01*
X577571Y625193D01*
X577571Y624050D01*
X605686Y622907D02*
X604543Y623479D01*
X603400Y624621D01*
X601686Y626336D01*
X600543Y626907D01*
X599400Y626907D01*
X599971Y624050D02*
X598829Y624621D01*
X597686Y625764D01*
X597114Y628050D01*
X597114Y632050D01*
X597686Y634336D01*
X598829Y635479D01*
X599971Y636050D01*
X602257Y636050D01*
X603400Y635479D01*
X604543Y634336D01*
X605114Y632050D01*
X605114Y628050D01*
X604543Y625764D01*
X603400Y624621D01*
X602257Y624050D01*
X599971Y624050D01*
X617457Y628621D02*
X626600Y628621D01*
X632314Y628621D02*
X641457Y628621D01*
X647171Y625193D02*
X647743Y624621D01*
X647171Y624050D01*
X646600Y624621D01*
X647171Y625193D01*
X647171Y624050D01*
X652886Y628621D02*
X662029Y628621D01*
X689000Y624050D02*
X685000Y629764D01*
X682143Y624050D02*
X682143Y636050D01*
X686714Y636050D01*
X687857Y635479D01*
X688429Y634907D01*
X689000Y633764D01*
X689000Y632050D01*
X688429Y630907D01*
X687857Y630336D01*
X686714Y629764D01*
X682143Y629764D01*
X701343Y625193D02*
X701914Y624621D01*
X701343Y624050D01*
X700771Y624621D01*
X701343Y625193D01*
X701343Y624050D01*
X707057Y628621D02*
X716200Y628621D01*
X721914Y625193D02*
X722486Y624621D01*
X721914Y624050D01*
X721343Y624621D01*
X721914Y625193D01*
X721914Y624050D01*
X67286Y605171D02*
X69000Y604600D01*
X71857Y604600D01*
X73000Y605171D01*
X73571Y605743D01*
X74143Y606886D01*
X74143Y608029D01*
X73571Y609171D01*
X73000Y609743D01*
X71857Y610314D01*
X69571Y610886D01*
X68429Y611457D01*
X67857Y612029D01*
X67286Y613171D01*
X67286Y614314D01*
X67857Y615457D01*
X68429Y616029D01*
X69571Y616600D01*
X72429Y616600D01*
X74143Y616029D01*
X86486Y605743D02*
X87057Y605171D01*
X86486Y604600D01*
X85914Y605171D01*
X86486Y605743D01*
X86486Y604600D01*
X92200Y605743D02*
X92771Y605171D01*
X92200Y604600D01*
X91629Y605171D01*
X92200Y605743D01*
X92200Y604600D01*
X97914Y605743D02*
X98486Y605171D01*
X97914Y604600D01*
X97343Y605171D01*
X97914Y605743D01*
X97914Y604600D01*
X123514Y616600D02*
X130371Y616600D01*
X126943Y604600D02*
X126943Y616600D01*
X141571Y609171D02*
X150714Y609171D01*
X192429Y616600D02*
X192429Y606886D01*
X193000Y605743D01*
X193571Y605171D01*
X194714Y604600D01*
X197000Y604600D01*
X198143Y605171D01*
X198714Y605743D01*
X199286Y606886D01*
X199286Y616600D01*
X212200Y605743D02*
X212771Y605171D01*
X212200Y604600D01*
X211629Y605171D01*
X212200Y605743D01*
X212200Y604600D01*
X217914Y605743D02*
X218486Y605171D01*
X217914Y604600D01*
X217343Y605171D01*
X217914Y605743D01*
X217914Y604600D01*
X223629Y609171D02*
X232771Y609171D01*
X258371Y616600D02*
X262371Y604600D01*
X266371Y616600D01*
X277571Y605743D02*
X278143Y605171D01*
X277571Y604600D01*
X277000Y605171D01*
X277571Y605743D01*
X277571Y604600D01*
X283286Y605743D02*
X283857Y605171D01*
X283286Y604600D01*
X282714Y605171D01*
X283286Y605743D01*
X283286Y604600D01*
X289000Y605743D02*
X289571Y605171D01*
X289000Y604600D01*
X288429Y605171D01*
X289000Y605743D01*
X289000Y604600D01*
X294714Y609171D02*
X303857Y609171D01*
X322829Y616600D02*
X325686Y604600D01*
X327971Y613171D01*
X330257Y604600D01*
X333114Y616600D01*
X344886Y605743D02*
X345457Y605171D01*
X344886Y604600D01*
X344314Y605171D01*
X344886Y605743D01*
X344886Y604600D01*
X350600Y609171D02*
X359743Y609171D01*
X365457Y609171D02*
X374600Y609171D01*
X400771Y616600D02*
X408771Y604600D01*
X408771Y616600D02*
X400771Y604600D01*
X420543Y609171D02*
X429686Y609171D01*
X435400Y605743D02*
X435971Y605171D01*
X435400Y604600D01*
X434829Y605171D01*
X435400Y605743D01*
X435400Y604600D01*
X441114Y605743D02*
X441686Y605171D01*
X441114Y604600D01*
X440543Y605171D01*
X441114Y605743D01*
X441114Y604600D01*
X446829Y609171D02*
X455971Y609171D01*
X478371Y610314D02*
X478371Y604600D01*
X474371Y616600D02*
X478371Y610314D01*
X482371Y616600D01*
X493571Y609171D02*
X502714Y609171D01*
X508429Y605743D02*
X509000Y605171D01*
X508429Y604600D01*
X507857Y605171D01*
X508429Y605743D01*
X508429Y604600D01*
X514143Y609171D02*
X523286Y609171D01*
X529000Y609171D02*
X538143Y609171D01*
X557114Y616600D02*
X565114Y616600D01*
X557114Y604600D01*
X565114Y604600D01*
X576886Y609171D02*
X586029Y609171D01*
X591743Y609171D02*
X600886Y609171D01*
X606600Y605743D02*
X607171Y605171D01*
X606600Y604600D01*
X606029Y605171D01*
X606600Y605743D01*
X606600Y604600D01*
X612314Y605743D02*
X612886Y605171D01*
X612314Y604600D01*
X611743Y605171D01*
X612314Y605743D01*
X612314Y604600D01*
X68452Y475400D02*
X68452Y489900D01*
X73286Y489900D02*
X81571Y489900D01*
X77429Y475400D02*
X77429Y489900D01*
X86405Y489900D02*
X86405Y478162D01*
X87095Y476781D01*
X87786Y476090D01*
X89167Y475400D01*
X91929Y475400D01*
X93310Y476090D01*
X94000Y476781D01*
X94690Y478162D01*
X94690Y489900D01*
X110295Y475400D02*
X110295Y489900D01*
X115819Y489900D01*
X117200Y489210D01*
X117890Y488519D01*
X118581Y487138D01*
X118581Y485067D01*
X117890Y483686D01*
X117200Y482995D01*
X115819Y482305D01*
X110295Y482305D01*
X124795Y475400D02*
X124795Y489900D01*
X124795Y482995D02*
X133081Y482995D01*
X133081Y475400D02*
X133081Y489900D01*
X142748Y489900D02*
X145510Y489900D01*
X146890Y489210D01*
X148271Y487829D01*
X148962Y485067D01*
X148962Y480233D01*
X148271Y477471D01*
X146890Y476090D01*
X145510Y475400D01*
X142748Y475400D01*
X141367Y476090D01*
X139986Y477471D01*
X139295Y480233D01*
X139295Y485067D01*
X139986Y487829D01*
X141367Y489210D01*
X142748Y489900D01*
X155176Y475400D02*
X155176Y489900D01*
X163462Y475400D01*
X163462Y489900D01*
X170367Y482995D02*
X175200Y482995D01*
X177271Y475400D02*
X170367Y475400D01*
X170367Y489900D01*
X177271Y489900D01*
X181414Y489900D02*
X189700Y489900D01*
X185557Y475400D02*
X185557Y489900D01*
X194533Y475400D02*
X194533Y489900D01*
X209724Y476781D02*
X209033Y476090D01*
X206962Y475400D01*
X205581Y475400D01*
X203510Y476090D01*
X202129Y477471D01*
X201438Y478852D01*
X200748Y481614D01*
X200748Y483686D01*
X201438Y486448D01*
X202129Y487829D01*
X203510Y489210D01*
X205581Y489900D01*
X206962Y489900D01*
X209033Y489210D01*
X209724Y488519D01*
X223948Y479543D02*
X230852Y479543D01*
X222567Y475400D02*
X227400Y489900D01*
X232233Y475400D01*
X243971Y475400D02*
X237067Y475400D01*
X237067Y489900D01*
X248805Y475400D02*
X248805Y489900D01*
X254329Y489900D01*
X255710Y489210D01*
X256400Y488519D01*
X257090Y487138D01*
X257090Y485067D01*
X256400Y483686D01*
X255710Y482995D01*
X254329Y482305D01*
X248805Y482305D01*
X263305Y475400D02*
X263305Y489900D01*
X263305Y482995D02*
X271590Y482995D01*
X271590Y475400D02*
X271590Y489900D01*
X277805Y479543D02*
X284710Y479543D01*
X276424Y475400D02*
X281257Y489900D01*
X286090Y475400D01*
X295757Y482995D02*
X297829Y482305D01*
X298519Y481614D01*
X299210Y480233D01*
X299210Y478162D01*
X298519Y476781D01*
X297829Y476090D01*
X296448Y475400D01*
X290924Y475400D01*
X290924Y489900D01*
X295757Y489900D01*
X297138Y489210D01*
X297829Y488519D01*
X298519Y487138D01*
X298519Y485757D01*
X297829Y484376D01*
X297138Y483686D01*
X295757Y482995D01*
X290924Y482995D01*
X305424Y482995D02*
X310257Y482995D01*
X312329Y475400D02*
X305424Y475400D01*
X305424Y489900D01*
X312329Y489900D01*
X316471Y489900D02*
X324757Y489900D01*
X320614Y475400D02*
X320614Y489900D01*
X67286Y457829D02*
X73000Y457829D01*
X66143Y454400D02*
X70143Y466400D01*
X74143Y454400D01*
X84771Y457829D02*
X90486Y457829D01*
X83629Y454400D02*
X87629Y466400D01*
X91629Y454400D01*
X101343Y454400D02*
X95629Y454400D01*
X95629Y466400D01*
X109343Y460686D02*
X105343Y460686D01*
X105343Y454400D02*
X105343Y466400D01*
X111057Y466400D01*
X115057Y457829D02*
X120771Y457829D01*
X113914Y454400D02*
X117914Y466400D01*
X121914Y454400D01*
X144314Y460686D02*
X146029Y460114D01*
X146600Y459543D01*
X147171Y458400D01*
X147171Y456686D01*
X146600Y455543D01*
X146029Y454971D01*
X144886Y454400D01*
X140314Y454400D01*
X140314Y466400D01*
X144314Y466400D01*
X145457Y465829D01*
X146029Y465257D01*
X146600Y464114D01*
X146600Y462971D01*
X146029Y461829D01*
X145457Y461257D01*
X144314Y460686D01*
X140314Y460686D01*
X163514Y460686D02*
X165229Y460114D01*
X165800Y459543D01*
X166371Y458400D01*
X166371Y456686D01*
X165800Y455543D01*
X165229Y454971D01*
X164086Y454400D01*
X159514Y454400D01*
X159514Y466400D01*
X163514Y466400D01*
X164657Y465829D01*
X165229Y465257D01*
X165800Y464114D01*
X165800Y462971D01*
X165229Y461829D01*
X164657Y461257D01*
X163514Y460686D01*
X159514Y460686D01*
X178371Y454400D02*
X174371Y460114D01*
X171514Y454400D02*
X171514Y466400D01*
X176086Y466400D01*
X177229Y465829D01*
X177800Y465257D01*
X178371Y464114D01*
X178371Y462400D01*
X177800Y461257D01*
X177229Y460686D01*
X176086Y460114D01*
X171514Y460114D01*
X182943Y457829D02*
X188657Y457829D01*
X181800Y454400D02*
X185800Y466400D01*
X189800Y454400D01*
X192086Y466400D02*
X196086Y454400D01*
X200086Y466400D01*
X206371Y466400D02*
X208657Y466400D01*
X209800Y465829D01*
X210943Y464686D01*
X211514Y462400D01*
X211514Y458400D01*
X210943Y456114D01*
X209800Y454971D01*
X208657Y454400D01*
X206371Y454400D01*
X205229Y454971D01*
X204086Y456114D01*
X203514Y458400D01*
X203514Y462400D01*
X204086Y464686D01*
X205229Y465829D01*
X206371Y466400D01*
X237914Y455543D02*
X237343Y454971D01*
X235629Y454400D01*
X234486Y454400D01*
X232771Y454971D01*
X231629Y456114D01*
X231057Y457257D01*
X230486Y459543D01*
X230486Y461257D01*
X231057Y463543D01*
X231629Y464686D01*
X232771Y465829D01*
X234486Y466400D01*
X235629Y466400D01*
X237343Y465829D01*
X237914Y465257D01*
X257114Y455543D02*
X256543Y454971D01*
X254829Y454400D01*
X253686Y454400D01*
X251971Y454971D01*
X250829Y456114D01*
X250257Y457257D01*
X249686Y459543D01*
X249686Y461257D01*
X250257Y463543D01*
X250829Y464686D01*
X251971Y465829D01*
X253686Y466400D01*
X254829Y466400D01*
X256543Y465829D01*
X257114Y465257D01*
X262257Y454400D02*
X262257Y466400D01*
X262257Y460686D02*
X269114Y460686D01*
X269114Y454400D02*
X269114Y466400D01*
X274257Y457829D02*
X279971Y457829D01*
X273114Y454400D02*
X277114Y466400D01*
X281114Y454400D01*
X291971Y454400D02*
X287971Y460114D01*
X285114Y454400D02*
X285114Y466400D01*
X289686Y466400D01*
X290829Y465829D01*
X291400Y465257D01*
X291971Y464114D01*
X291971Y462400D01*
X291400Y461257D01*
X290829Y460686D01*
X289686Y460114D01*
X285114Y460114D01*
X302829Y454400D02*
X297114Y454400D01*
X297114Y466400D01*
X306829Y454400D02*
X306829Y466400D01*
X312543Y460686D02*
X316543Y460686D01*
X318257Y454400D02*
X312543Y454400D01*
X312543Y466400D01*
X318257Y466400D01*
X337800Y454400D02*
X337800Y466400D01*
X340657Y466400D01*
X342371Y465829D01*
X343514Y464686D01*
X344086Y463543D01*
X344657Y461257D01*
X344657Y459543D01*
X344086Y457257D01*
X343514Y456114D01*
X342371Y454971D01*
X340657Y454400D01*
X337800Y454400D01*
X357000Y454400D02*
X357000Y466400D01*
X359857Y466400D01*
X361571Y465829D01*
X362714Y464686D01*
X363286Y463543D01*
X363857Y461257D01*
X363857Y459543D01*
X363286Y457257D01*
X362714Y456114D01*
X361571Y454971D01*
X359857Y454400D01*
X357000Y454400D01*
X369000Y460686D02*
X373000Y460686D01*
X374714Y454400D02*
X369000Y454400D01*
X369000Y466400D01*
X374714Y466400D01*
X385571Y454400D02*
X379857Y454400D01*
X379857Y466400D01*
X387857Y466400D02*
X394714Y466400D01*
X391286Y454400D02*
X391286Y466400D01*
X398143Y457829D02*
X403857Y457829D01*
X397000Y454400D02*
X401000Y466400D01*
X405000Y454400D01*
X423400Y460686D02*
X427400Y460686D01*
X429114Y454400D02*
X423400Y454400D01*
X423400Y466400D01*
X429114Y466400D01*
X441457Y460686D02*
X445457Y460686D01*
X447171Y454400D02*
X441457Y454400D01*
X441457Y466400D01*
X447171Y466400D01*
X459171Y455543D02*
X458600Y454971D01*
X456886Y454400D01*
X455743Y454400D01*
X454029Y454971D01*
X452886Y456114D01*
X452314Y457257D01*
X451743Y459543D01*
X451743Y461257D01*
X452314Y463543D01*
X452886Y464686D01*
X454029Y465829D01*
X455743Y466400D01*
X456886Y466400D01*
X458600Y465829D01*
X459171Y465257D01*
X464314Y454400D02*
X464314Y466400D01*
X464314Y460686D02*
X471171Y460686D01*
X471171Y454400D02*
X471171Y466400D01*
X479171Y466400D02*
X481457Y466400D01*
X482600Y465829D01*
X483743Y464686D01*
X484314Y462400D01*
X484314Y458400D01*
X483743Y456114D01*
X482600Y454971D01*
X481457Y454400D01*
X479171Y454400D01*
X478029Y454971D01*
X476886Y456114D01*
X476314Y458400D01*
X476314Y462400D01*
X476886Y464686D01*
X478029Y465829D01*
X479171Y466400D01*
X507857Y460686D02*
X503857Y460686D01*
X503857Y454400D02*
X503857Y466400D01*
X509571Y466400D01*
X525343Y460686D02*
X521343Y460686D01*
X521343Y454400D02*
X521343Y466400D01*
X527057Y466400D01*
X533914Y466400D02*
X536200Y466400D01*
X537343Y465829D01*
X538486Y464686D01*
X539057Y462400D01*
X539057Y458400D01*
X538486Y456114D01*
X537343Y454971D01*
X536200Y454400D01*
X533914Y454400D01*
X532771Y454971D01*
X531629Y456114D01*
X531057Y458400D01*
X531057Y462400D01*
X531629Y464686D01*
X532771Y465829D01*
X533914Y466400D01*
X543057Y466400D02*
X551057Y454400D01*
X551057Y466400D02*
X543057Y454400D01*
X553914Y466400D02*
X560771Y466400D01*
X557343Y454400D02*
X557343Y466400D01*
X571629Y454400D02*
X567629Y460114D01*
X564771Y454400D02*
X564771Y466400D01*
X569343Y466400D01*
X570486Y465829D01*
X571057Y465257D01*
X571629Y464114D01*
X571629Y462400D01*
X571057Y461257D01*
X570486Y460686D01*
X569343Y460114D01*
X564771Y460114D01*
X579057Y466400D02*
X581343Y466400D01*
X582486Y465829D01*
X583629Y464686D01*
X584200Y462400D01*
X584200Y458400D01*
X583629Y456114D01*
X582486Y454971D01*
X581343Y454400D01*
X579057Y454400D01*
X577914Y454971D01*
X576771Y456114D01*
X576200Y458400D01*
X576200Y462400D01*
X576771Y464686D01*
X577914Y465829D01*
X579057Y466400D01*
X587629Y466400D02*
X594486Y466400D01*
X591057Y454400D02*
X591057Y466400D01*
X619171Y465829D02*
X618029Y466400D01*
X616314Y466400D01*
X614600Y465829D01*
X613457Y464686D01*
X612886Y463543D01*
X612314Y461257D01*
X612314Y459543D01*
X612886Y457257D01*
X613457Y456114D01*
X614600Y454971D01*
X616314Y454400D01*
X617457Y454400D01*
X619171Y454971D01*
X619743Y455543D01*
X619743Y459543D01*
X617457Y459543D01*
X638371Y465829D02*
X637229Y466400D01*
X635514Y466400D01*
X633800Y465829D01*
X632657Y464686D01*
X632086Y463543D01*
X631514Y461257D01*
X631514Y459543D01*
X632086Y457257D01*
X632657Y456114D01*
X633800Y454971D01*
X635514Y454400D01*
X636657Y454400D01*
X638371Y454971D01*
X638943Y455543D01*
X638943Y459543D01*
X636657Y459543D01*
X646371Y466400D02*
X648657Y466400D01*
X649800Y465829D01*
X650943Y464686D01*
X651514Y462400D01*
X651514Y458400D01*
X650943Y456114D01*
X649800Y454971D01*
X648657Y454400D01*
X646371Y454400D01*
X645229Y454971D01*
X644086Y456114D01*
X643514Y458400D01*
X643514Y462400D01*
X644086Y464686D01*
X645229Y465829D01*
X646371Y466400D01*
X662371Y454400D02*
X656657Y454400D01*
X656657Y466400D01*
X670371Y460686D02*
X666371Y460686D01*
X666371Y454400D02*
X666371Y466400D01*
X672086Y466400D01*
X67857Y436900D02*
X67857Y448900D01*
X67857Y443186D02*
X74714Y443186D01*
X74714Y436900D02*
X74714Y448900D01*
X87629Y436900D02*
X87629Y448900D01*
X87629Y443186D02*
X94486Y443186D01*
X94486Y436900D02*
X94486Y448900D01*
X102486Y448900D02*
X104771Y448900D01*
X105914Y448329D01*
X107057Y447186D01*
X107629Y444900D01*
X107629Y440900D01*
X107057Y438614D01*
X105914Y437471D01*
X104771Y436900D01*
X102486Y436900D01*
X101343Y437471D01*
X100200Y438614D01*
X99629Y440900D01*
X99629Y444900D01*
X100200Y447186D01*
X101343Y448329D01*
X102486Y448900D01*
X111057Y448900D02*
X117914Y448900D01*
X114486Y436900D02*
X114486Y448900D01*
X121914Y443186D02*
X125914Y443186D01*
X127629Y436900D02*
X121914Y436900D01*
X121914Y448900D01*
X127629Y448900D01*
X138486Y436900D02*
X132771Y436900D01*
X132771Y448900D01*
X156886Y436900D02*
X156886Y448900D01*
X169800Y436900D02*
X169800Y448900D01*
X175514Y436900D02*
X175514Y448900D01*
X182371Y436900D01*
X182371Y448900D01*
X188086Y436900D02*
X188086Y448900D01*
X190943Y448900D01*
X192657Y448329D01*
X193800Y447186D01*
X194371Y446043D01*
X194943Y443757D01*
X194943Y442043D01*
X194371Y439757D01*
X193800Y438614D01*
X192657Y437471D01*
X190943Y436900D01*
X188086Y436900D01*
X200086Y436900D02*
X200086Y448900D01*
X205229Y440329D02*
X210943Y440329D01*
X204086Y436900D02*
X208086Y448900D01*
X212086Y436900D01*
X233914Y448900D02*
X233914Y440329D01*
X233343Y438614D01*
X232200Y437471D01*
X230486Y436900D01*
X229343Y436900D01*
X250257Y448900D02*
X250257Y440329D01*
X249686Y438614D01*
X248543Y437471D01*
X246829Y436900D01*
X245686Y436900D01*
X255971Y448900D02*
X255971Y439186D01*
X256543Y438043D01*
X257114Y437471D01*
X258257Y436900D01*
X260543Y436900D01*
X261686Y437471D01*
X262257Y438043D01*
X262829Y439186D01*
X262829Y448900D01*
X274257Y436900D02*
X268543Y436900D01*
X268543Y448900D01*
X278257Y436900D02*
X278257Y448900D01*
X283971Y443186D02*
X287971Y443186D01*
X289686Y436900D02*
X283971Y436900D01*
X283971Y448900D01*
X289686Y448900D01*
X293114Y448900D02*
X299971Y448900D01*
X296543Y436900D02*
X296543Y448900D01*
X302257Y448900D02*
X309114Y448900D01*
X305686Y436900D02*
X305686Y448900D01*
X327514Y436900D02*
X327514Y448900D01*
X334371Y436900D02*
X329229Y443757D01*
X334371Y448900D02*
X327514Y442043D01*
X346714Y436900D02*
X346714Y448900D01*
X353571Y436900D02*
X348429Y443757D01*
X353571Y448900D02*
X346714Y442043D01*
X358714Y436900D02*
X358714Y448900D01*
X370143Y436900D02*
X364429Y436900D01*
X364429Y448900D01*
X376429Y448900D02*
X378714Y448900D01*
X379857Y448329D01*
X381000Y447186D01*
X381571Y444900D01*
X381571Y440900D01*
X381000Y438614D01*
X379857Y437471D01*
X378714Y436900D01*
X376429Y436900D01*
X375286Y437471D01*
X374143Y438614D01*
X373571Y440900D01*
X373571Y444900D01*
X374143Y447186D01*
X375286Y448329D01*
X376429Y448900D01*
X406829Y436900D02*
X401114Y436900D01*
X401114Y448900D01*
X423743Y436900D02*
X418029Y436900D01*
X418029Y448900D01*
X427743Y436900D02*
X427743Y448900D01*
X433457Y436900D02*
X433457Y448900D01*
X437457Y440329D01*
X441457Y448900D01*
X441457Y436900D01*
X446600Y440329D02*
X452314Y440329D01*
X445457Y436900D02*
X449457Y448900D01*
X453457Y436900D01*
X471857Y436900D02*
X471857Y448900D01*
X475857Y440329D01*
X479857Y448900D01*
X479857Y436900D01*
X492771Y436900D02*
X492771Y448900D01*
X496771Y440329D01*
X500771Y448900D01*
X500771Y436900D01*
X506486Y436900D02*
X506486Y448900D01*
X512200Y436900D02*
X512200Y448900D01*
X519057Y436900D02*
X513914Y443757D01*
X519057Y448900D02*
X512200Y442043D01*
X524200Y443186D02*
X528200Y443186D01*
X529914Y436900D02*
X524200Y436900D01*
X524200Y448900D01*
X529914Y448900D01*
X549457Y436900D02*
X549457Y448900D01*
X556314Y436900D01*
X556314Y448900D01*
X569229Y436900D02*
X569229Y448900D01*
X576086Y436900D01*
X576086Y448900D01*
X584086Y448900D02*
X586371Y448900D01*
X587514Y448329D01*
X588657Y447186D01*
X589229Y444900D01*
X589229Y440900D01*
X588657Y438614D01*
X587514Y437471D01*
X586371Y436900D01*
X584086Y436900D01*
X582943Y437471D01*
X581800Y438614D01*
X581229Y440900D01*
X581229Y444900D01*
X581800Y447186D01*
X582943Y448329D01*
X584086Y448900D01*
X592657Y448900D02*
X596657Y436900D01*
X600657Y448900D01*
X604657Y443186D02*
X608657Y443186D01*
X610371Y436900D02*
X604657Y436900D01*
X604657Y448900D01*
X610371Y448900D01*
X615514Y436900D02*
X615514Y448900D01*
X619514Y440329D01*
X623514Y448900D01*
X623514Y436900D01*
X633229Y443186D02*
X634943Y442614D01*
X635514Y442043D01*
X636086Y440900D01*
X636086Y439186D01*
X635514Y438043D01*
X634943Y437471D01*
X633800Y436900D01*
X629229Y436900D01*
X629229Y448900D01*
X633229Y448900D01*
X634371Y448329D01*
X634943Y447757D01*
X635514Y446614D01*
X635514Y445471D01*
X634943Y444329D01*
X634371Y443757D01*
X633229Y443186D01*
X629229Y443186D01*
X641229Y443186D02*
X645229Y443186D01*
X646943Y436900D02*
X641229Y436900D01*
X641229Y448900D01*
X646943Y448900D01*
X658943Y436900D02*
X654943Y442614D01*
X652086Y436900D02*
X652086Y448900D01*
X656657Y448900D01*
X657800Y448329D01*
X658371Y447757D01*
X658943Y446614D01*
X658943Y444900D01*
X658371Y443757D01*
X657800Y443186D01*
X656657Y442614D01*
X652086Y442614D01*
X70143Y431400D02*
X72429Y431400D01*
X73571Y430829D01*
X74714Y429686D01*
X75286Y427400D01*
X75286Y423400D01*
X74714Y421114D01*
X73571Y419971D01*
X72429Y419400D01*
X70143Y419400D01*
X69000Y419971D01*
X67857Y421114D01*
X67286Y423400D01*
X67286Y427400D01*
X67857Y429686D01*
X69000Y430829D01*
X70143Y431400D01*
X89914Y431400D02*
X92200Y431400D01*
X93343Y430829D01*
X94486Y429686D01*
X95057Y427400D01*
X95057Y423400D01*
X94486Y421114D01*
X93343Y419971D01*
X92200Y419400D01*
X89914Y419400D01*
X88771Y419971D01*
X87629Y421114D01*
X87057Y423400D01*
X87057Y427400D01*
X87629Y429686D01*
X88771Y430829D01*
X89914Y431400D01*
X99629Y419971D02*
X101343Y419400D01*
X104200Y419400D01*
X105343Y419971D01*
X105914Y420543D01*
X106486Y421686D01*
X106486Y422829D01*
X105914Y423971D01*
X105343Y424543D01*
X104200Y425114D01*
X101914Y425686D01*
X100771Y426257D01*
X100200Y426829D01*
X99629Y427971D01*
X99629Y429114D01*
X100200Y430257D01*
X100771Y430829D01*
X101914Y431400D01*
X104771Y431400D01*
X106486Y430829D01*
X118486Y420543D02*
X117914Y419971D01*
X116200Y419400D01*
X115057Y419400D01*
X113343Y419971D01*
X112200Y421114D01*
X111629Y422257D01*
X111057Y424543D01*
X111057Y426257D01*
X111629Y428543D01*
X112200Y429686D01*
X113343Y430829D01*
X115057Y431400D01*
X116200Y431400D01*
X117914Y430829D01*
X118486Y430257D01*
X123057Y422829D02*
X128771Y422829D01*
X121914Y419400D02*
X125914Y431400D01*
X129914Y419400D01*
X140771Y419400D02*
X136771Y425114D01*
X133914Y419400D02*
X133914Y431400D01*
X138486Y431400D01*
X139629Y430829D01*
X140200Y430257D01*
X140771Y429114D01*
X140771Y427400D01*
X140200Y426257D01*
X139629Y425686D01*
X138486Y425114D01*
X133914Y425114D01*
X160314Y419400D02*
X160314Y431400D01*
X164886Y431400D01*
X166029Y430829D01*
X166600Y430257D01*
X167171Y429114D01*
X167171Y427400D01*
X166600Y426257D01*
X166029Y425686D01*
X164886Y425114D01*
X160314Y425114D01*
X179514Y419400D02*
X179514Y431400D01*
X184086Y431400D01*
X185229Y430829D01*
X185800Y430257D01*
X186371Y429114D01*
X186371Y427400D01*
X185800Y426257D01*
X185229Y425686D01*
X184086Y425114D01*
X179514Y425114D01*
X190943Y422829D02*
X196657Y422829D01*
X189800Y419400D02*
X193800Y431400D01*
X197800Y419400D01*
X201800Y419400D02*
X201800Y431400D01*
X206371Y431400D01*
X207514Y430829D01*
X208086Y430257D01*
X208657Y429114D01*
X208657Y427400D01*
X208086Y426257D01*
X207514Y425686D01*
X206371Y425114D01*
X201800Y425114D01*
X213229Y422829D02*
X218943Y422829D01*
X212086Y419400D02*
X216086Y431400D01*
X220086Y419400D01*
X246486Y418257D02*
X245343Y418829D01*
X244200Y419971D01*
X242486Y421686D01*
X241343Y422257D01*
X240200Y422257D01*
X240771Y419400D02*
X239629Y419971D01*
X238486Y421114D01*
X237914Y423400D01*
X237914Y427400D01*
X238486Y429686D01*
X239629Y430829D01*
X240771Y431400D01*
X243057Y431400D01*
X244200Y430829D01*
X245343Y429686D01*
X245914Y427400D01*
X245914Y423400D01*
X245343Y421114D01*
X244200Y419971D01*
X243057Y419400D01*
X240771Y419400D01*
X266257Y418257D02*
X265114Y418829D01*
X263971Y419971D01*
X262257Y421686D01*
X261114Y422257D01*
X259971Y422257D01*
X260543Y419400D02*
X259400Y419971D01*
X258257Y421114D01*
X257686Y423400D01*
X257686Y427400D01*
X258257Y429686D01*
X259400Y430829D01*
X260543Y431400D01*
X262829Y431400D01*
X263971Y430829D01*
X265114Y429686D01*
X265686Y427400D01*
X265686Y423400D01*
X265114Y421114D01*
X263971Y419971D01*
X262829Y419400D01*
X260543Y419400D01*
X270829Y431400D02*
X270829Y421686D01*
X271400Y420543D01*
X271971Y419971D01*
X273114Y419400D01*
X275400Y419400D01*
X276543Y419971D01*
X277114Y420543D01*
X277686Y421686D01*
X277686Y431400D01*
X283400Y425686D02*
X287400Y425686D01*
X289114Y419400D02*
X283400Y419400D01*
X283400Y431400D01*
X289114Y431400D01*
X298257Y425686D02*
X299971Y425114D01*
X300543Y424543D01*
X301114Y423400D01*
X301114Y421686D01*
X300543Y420543D01*
X299971Y419971D01*
X298829Y419400D01*
X294257Y419400D01*
X294257Y431400D01*
X298257Y431400D01*
X299400Y430829D01*
X299971Y430257D01*
X300543Y429114D01*
X300543Y427971D01*
X299971Y426829D01*
X299400Y426257D01*
X298257Y425686D01*
X294257Y425686D01*
X306257Y425686D02*
X310257Y425686D01*
X311971Y419400D02*
X306257Y419400D01*
X306257Y431400D01*
X311971Y431400D01*
X323971Y420543D02*
X323400Y419971D01*
X321686Y419400D01*
X320543Y419400D01*
X318829Y419971D01*
X317686Y421114D01*
X317114Y422257D01*
X316543Y424543D01*
X316543Y426257D01*
X317114Y428543D01*
X317686Y429686D01*
X318829Y430829D01*
X320543Y431400D01*
X321686Y431400D01*
X323400Y430829D01*
X323971Y430257D01*
X350371Y419400D02*
X346371Y425114D01*
X343514Y419400D02*
X343514Y431400D01*
X348086Y431400D01*
X349229Y430829D01*
X349800Y430257D01*
X350371Y429114D01*
X350371Y427400D01*
X349800Y426257D01*
X349229Y425686D01*
X348086Y425114D01*
X343514Y425114D01*
X369571Y419400D02*
X365571Y425114D01*
X362714Y419400D02*
X362714Y431400D01*
X367286Y431400D01*
X368429Y430829D01*
X369000Y430257D01*
X369571Y429114D01*
X369571Y427400D01*
X369000Y426257D01*
X368429Y425686D01*
X367286Y425114D01*
X362714Y425114D01*
X377000Y431400D02*
X379286Y431400D01*
X380429Y430829D01*
X381571Y429686D01*
X382143Y427400D01*
X382143Y423400D01*
X381571Y421114D01*
X380429Y419971D01*
X379286Y419400D01*
X377000Y419400D01*
X375857Y419971D01*
X374714Y421114D01*
X374143Y423400D01*
X374143Y427400D01*
X374714Y429686D01*
X375857Y430829D01*
X377000Y431400D01*
X387286Y419400D02*
X387286Y431400D01*
X391286Y422829D01*
X395286Y431400D01*
X395286Y419400D01*
X401000Y425686D02*
X405000Y425686D01*
X406714Y419400D02*
X401000Y419400D01*
X401000Y431400D01*
X406714Y431400D01*
X414143Y431400D02*
X416429Y431400D01*
X417571Y430829D01*
X418714Y429686D01*
X419286Y427400D01*
X419286Y423400D01*
X418714Y421114D01*
X417571Y419971D01*
X416429Y419400D01*
X414143Y419400D01*
X413000Y419971D01*
X411857Y421114D01*
X411286Y423400D01*
X411286Y427400D01*
X411857Y429686D01*
X413000Y430829D01*
X414143Y431400D01*
X438257Y419971D02*
X439971Y419400D01*
X442829Y419400D01*
X443971Y419971D01*
X444543Y420543D01*
X445114Y421686D01*
X445114Y422829D01*
X444543Y423971D01*
X443971Y424543D01*
X442829Y425114D01*
X440543Y425686D01*
X439400Y426257D01*
X438829Y426829D01*
X438257Y427971D01*
X438257Y429114D01*
X438829Y430257D01*
X439400Y430829D01*
X440543Y431400D01*
X443400Y431400D01*
X445114Y430829D01*
X456886Y419971D02*
X458600Y419400D01*
X461457Y419400D01*
X462600Y419971D01*
X463171Y420543D01*
X463743Y421686D01*
X463743Y422829D01*
X463171Y423971D01*
X462600Y424543D01*
X461457Y425114D01*
X459171Y425686D01*
X458029Y426257D01*
X457457Y426829D01*
X456886Y427971D01*
X456886Y429114D01*
X457457Y430257D01*
X458029Y430829D01*
X459171Y431400D01*
X462029Y431400D01*
X463743Y430829D01*
X468886Y419400D02*
X468886Y431400D01*
X474600Y425686D02*
X478600Y425686D01*
X480314Y419400D02*
X474600Y419400D01*
X474600Y431400D01*
X480314Y431400D01*
X492314Y419400D02*
X488314Y425114D01*
X485457Y419400D02*
X485457Y431400D01*
X490029Y431400D01*
X491171Y430829D01*
X491743Y430257D01*
X492314Y429114D01*
X492314Y427400D01*
X491743Y426257D01*
X491171Y425686D01*
X490029Y425114D01*
X485457Y425114D01*
X504314Y419400D02*
X500314Y425114D01*
X497457Y419400D02*
X497457Y431400D01*
X502029Y431400D01*
X503171Y430829D01*
X503743Y430257D01*
X504314Y429114D01*
X504314Y427400D01*
X503743Y426257D01*
X503171Y425686D01*
X502029Y425114D01*
X497457Y425114D01*
X508886Y422829D02*
X514600Y422829D01*
X507743Y419400D02*
X511743Y431400D01*
X515743Y419400D01*
X532429Y431400D02*
X539286Y431400D01*
X535857Y419400D02*
X535857Y431400D01*
X548771Y431400D02*
X555629Y431400D01*
X552200Y419400D02*
X552200Y431400D01*
X559057Y422829D02*
X564771Y422829D01*
X557914Y419400D02*
X561914Y431400D01*
X565914Y419400D01*
X569914Y419400D02*
X569914Y431400D01*
X576771Y419400D01*
X576771Y431400D01*
X588771Y430829D02*
X587629Y431400D01*
X585914Y431400D01*
X584200Y430829D01*
X583057Y429686D01*
X582486Y428543D01*
X581914Y426257D01*
X581914Y424543D01*
X582486Y422257D01*
X583057Y421114D01*
X584200Y419971D01*
X585914Y419400D01*
X587057Y419400D01*
X588771Y419971D01*
X589343Y420543D01*
X589343Y424543D01*
X587057Y424543D01*
X596771Y431400D02*
X599057Y431400D01*
X600200Y430829D01*
X601343Y429686D01*
X601914Y427400D01*
X601914Y423400D01*
X601343Y421114D01*
X600200Y419971D01*
X599057Y419400D01*
X596771Y419400D01*
X595629Y419971D01*
X594486Y421114D01*
X593914Y423400D01*
X593914Y427400D01*
X594486Y429686D01*
X595629Y430829D01*
X596771Y431400D01*
X621457Y431400D02*
X621457Y421686D01*
X622029Y420543D01*
X622600Y419971D01*
X623743Y419400D01*
X626029Y419400D01*
X627171Y419971D01*
X627743Y420543D01*
X628314Y421686D01*
X628314Y431400D01*
X641229Y431400D02*
X641229Y421686D01*
X641800Y420543D01*
X642371Y419971D01*
X643514Y419400D01*
X645800Y419400D01*
X646943Y419971D01*
X647514Y420543D01*
X648086Y421686D01*
X648086Y431400D01*
X653800Y419400D02*
X653800Y431400D01*
X660657Y419400D01*
X660657Y431400D01*
X666371Y419400D02*
X666371Y431400D01*
X676086Y425686D02*
X672086Y425686D01*
X672086Y419400D02*
X672086Y431400D01*
X677800Y431400D01*
X684657Y431400D02*
X686943Y431400D01*
X688086Y430829D01*
X689229Y429686D01*
X689800Y427400D01*
X689800Y423400D01*
X689229Y421114D01*
X688086Y419971D01*
X686943Y419400D01*
X684657Y419400D01*
X683514Y419971D01*
X682371Y421114D01*
X681800Y423400D01*
X681800Y427400D01*
X682371Y429686D01*
X683514Y430829D01*
X684657Y431400D01*
X701800Y419400D02*
X697800Y425114D01*
X694943Y419400D02*
X694943Y431400D01*
X699514Y431400D01*
X700657Y430829D01*
X701229Y430257D01*
X701800Y429114D01*
X701800Y427400D01*
X701229Y426257D01*
X700657Y425686D01*
X699514Y425114D01*
X694943Y425114D01*
X706943Y419400D02*
X706943Y431400D01*
X710943Y422829D01*
X714943Y431400D01*
X714943Y419400D01*
X66143Y413900D02*
X70143Y401900D01*
X74143Y413900D01*
X83629Y413900D02*
X87629Y401900D01*
X91629Y413900D01*
X95629Y401900D02*
X95629Y413900D01*
X108200Y403043D02*
X107629Y402471D01*
X105914Y401900D01*
X104771Y401900D01*
X103057Y402471D01*
X101914Y403614D01*
X101343Y404757D01*
X100771Y407043D01*
X100771Y408757D01*
X101343Y411043D01*
X101914Y412186D01*
X103057Y413329D01*
X104771Y413900D01*
X105914Y413900D01*
X107629Y413329D01*
X108200Y412757D01*
X111629Y413900D02*
X118486Y413900D01*
X115057Y401900D02*
X115057Y413900D01*
X124771Y413900D02*
X127057Y413900D01*
X128200Y413329D01*
X129343Y412186D01*
X129914Y409900D01*
X129914Y405900D01*
X129343Y403614D01*
X128200Y402471D01*
X127057Y401900D01*
X124771Y401900D01*
X123629Y402471D01*
X122486Y403614D01*
X121914Y405900D01*
X121914Y409900D01*
X122486Y412186D01*
X123629Y413329D01*
X124771Y413900D01*
X141914Y401900D02*
X137914Y407614D01*
X135057Y401900D02*
X135057Y413900D01*
X139629Y413900D01*
X140771Y413329D01*
X141343Y412757D01*
X141914Y411614D01*
X141914Y409900D01*
X141343Y408757D01*
X140771Y408186D01*
X139629Y407614D01*
X135057Y407614D01*
X160314Y413900D02*
X163171Y401900D01*
X165457Y410471D01*
X167743Y401900D01*
X170600Y413900D01*
X181229Y413900D02*
X184086Y401900D01*
X186371Y410471D01*
X188657Y401900D01*
X191514Y413900D01*
X196086Y401900D02*
X196086Y413900D01*
X196086Y408186D02*
X202943Y408186D01*
X202943Y401900D02*
X202943Y413900D01*
X208657Y401900D02*
X208657Y413900D01*
X213800Y402471D02*
X215514Y401900D01*
X218371Y401900D01*
X219514Y402471D01*
X220086Y403043D01*
X220657Y404186D01*
X220657Y405329D01*
X220086Y406471D01*
X219514Y407043D01*
X218371Y407614D01*
X216086Y408186D01*
X214943Y408757D01*
X214371Y409329D01*
X213800Y410471D01*
X213800Y411614D01*
X214371Y412757D01*
X214943Y413329D01*
X216086Y413900D01*
X218943Y413900D01*
X220657Y413329D01*
X225800Y401900D02*
X225800Y413900D01*
X232657Y401900D02*
X227514Y408757D01*
X232657Y413900D02*
X225800Y407043D01*
X237800Y408186D02*
X241800Y408186D01*
X243514Y401900D02*
X237800Y401900D01*
X237800Y413900D01*
X243514Y413900D01*
X250943Y407614D02*
X250943Y401900D01*
X246943Y413900D02*
X250943Y407614D01*
X254943Y413900D01*
X272200Y413900D02*
X280200Y401900D01*
X280200Y413900D02*
X272200Y401900D01*
X290829Y413900D02*
X298829Y401900D01*
X298829Y413900D02*
X290829Y401900D01*
X310257Y401900D02*
X306257Y407614D01*
X303400Y401900D02*
X303400Y413900D01*
X307971Y413900D01*
X309114Y413329D01*
X309686Y412757D01*
X310257Y411614D01*
X310257Y409900D01*
X309686Y408757D01*
X309114Y408186D01*
X307971Y407614D01*
X303400Y407614D01*
X314829Y405329D02*
X320543Y405329D01*
X313686Y401900D02*
X317686Y413900D01*
X321686Y401900D01*
X327971Y407614D02*
X327971Y401900D01*
X323971Y413900D02*
X327971Y407614D01*
X331971Y413900D01*
X352657Y407614D02*
X352657Y401900D01*
X348657Y413900D02*
X352657Y407614D01*
X356657Y413900D01*
X370143Y407614D02*
X370143Y401900D01*
X366143Y413900D02*
X370143Y407614D01*
X374143Y413900D01*
X377571Y405329D02*
X383286Y405329D01*
X376429Y401900D02*
X380429Y413900D01*
X384429Y401900D01*
X388429Y401900D02*
X388429Y413900D01*
X395286Y401900D01*
X395286Y413900D01*
X401000Y401900D02*
X401000Y413900D01*
X407857Y401900D02*
X402714Y408757D01*
X407857Y413900D02*
X401000Y407043D01*
X413000Y408186D02*
X417000Y408186D01*
X418714Y401900D02*
X413000Y401900D01*
X413000Y413900D01*
X418714Y413900D01*
X423857Y408186D02*
X427857Y408186D01*
X429571Y401900D02*
X423857Y401900D01*
X423857Y413900D01*
X429571Y413900D01*
X447971Y413900D02*
X455971Y413900D01*
X447971Y401900D01*
X455971Y401900D01*
X466600Y413900D02*
X474600Y413900D01*
X466600Y401900D01*
X474600Y401900D01*
X479171Y413900D02*
X479171Y404186D01*
X479743Y403043D01*
X480314Y402471D01*
X481457Y401900D01*
X483743Y401900D01*
X484886Y402471D01*
X485457Y403043D01*
X486029Y404186D01*
X486029Y413900D01*
X497457Y401900D02*
X491743Y401900D01*
X491743Y413900D01*
X501457Y413900D02*
X501457Y404186D01*
X502029Y403043D01*
X502600Y402471D01*
X503743Y401900D01*
X506029Y401900D01*
X507171Y402471D01*
X507743Y403043D01*
X508314Y404186D01*
X508314Y413900D01*
X68452Y283500D02*
X68452Y298000D01*
X76738Y283500D01*
X76738Y298000D01*
X83643Y298000D02*
X83643Y286262D01*
X84333Y284881D01*
X85024Y284190D01*
X86405Y283500D01*
X89167Y283500D01*
X90548Y284190D01*
X91238Y284881D01*
X91929Y286262D01*
X91929Y298000D01*
X98833Y283500D02*
X98833Y298000D01*
X103667Y287643D01*
X108500Y298000D01*
X108500Y283500D01*
X115405Y291095D02*
X120238Y291095D01*
X122310Y283500D02*
X115405Y283500D01*
X115405Y298000D01*
X122310Y298000D01*
X136810Y283500D02*
X131976Y290405D01*
X128524Y283500D02*
X128524Y298000D01*
X134048Y298000D01*
X135429Y297310D01*
X136119Y296619D01*
X136810Y295238D01*
X136810Y293167D01*
X136119Y291786D01*
X135429Y291095D01*
X134048Y290405D01*
X128524Y290405D01*
X142333Y287643D02*
X149238Y287643D01*
X140952Y283500D02*
X145786Y298000D01*
X150619Y283500D01*
X162357Y283500D02*
X155452Y283500D01*
X155452Y298000D01*
X166500Y284190D02*
X168571Y283500D01*
X172024Y283500D01*
X173405Y284190D01*
X174095Y284881D01*
X174786Y286262D01*
X174786Y287643D01*
X174095Y289024D01*
X173405Y289714D01*
X172024Y290405D01*
X169262Y291095D01*
X167881Y291786D01*
X167190Y292476D01*
X166500Y293857D01*
X166500Y295238D01*
X167190Y296619D01*
X167881Y297310D01*
X169262Y298000D01*
X172714Y298000D01*
X174786Y297310D01*
X189010Y287643D02*
X195914Y287643D01*
X187629Y283500D02*
X192462Y298000D01*
X197295Y283500D01*
X202129Y283500D02*
X202129Y298000D01*
X210414Y283500D01*
X210414Y298000D01*
X217319Y283500D02*
X217319Y298000D01*
X220771Y298000D01*
X222843Y297310D01*
X224224Y295929D01*
X224914Y294548D01*
X225605Y291786D01*
X225605Y289714D01*
X224914Y286952D01*
X224224Y285571D01*
X222843Y284190D01*
X220771Y283500D01*
X217319Y283500D01*
X240519Y283500D02*
X240519Y298000D01*
X246043Y298000D01*
X247424Y297310D01*
X248114Y296619D01*
X248805Y295238D01*
X248805Y293167D01*
X248114Y291786D01*
X247424Y291095D01*
X246043Y290405D01*
X240519Y290405D01*
X263305Y283500D02*
X258471Y290405D01*
X255019Y283500D02*
X255019Y298000D01*
X260543Y298000D01*
X261924Y297310D01*
X262614Y296619D01*
X263305Y295238D01*
X263305Y293167D01*
X262614Y291786D01*
X261924Y291095D01*
X260543Y290405D01*
X255019Y290405D01*
X272281Y298000D02*
X275043Y298000D01*
X276424Y297310D01*
X277805Y295929D01*
X278495Y293167D01*
X278495Y288333D01*
X277805Y285571D01*
X276424Y284190D01*
X275043Y283500D01*
X272281Y283500D01*
X270900Y284190D01*
X269519Y285571D01*
X268829Y288333D01*
X268829Y293167D01*
X269519Y295929D01*
X270900Y297310D01*
X272281Y298000D01*
X284019Y284190D02*
X286090Y283500D01*
X289543Y283500D01*
X290924Y284190D01*
X291614Y284881D01*
X292305Y286262D01*
X292305Y287643D01*
X291614Y289024D01*
X290924Y289714D01*
X289543Y290405D01*
X286781Y291095D01*
X285400Y291786D01*
X284710Y292476D01*
X284019Y293857D01*
X284019Y295238D01*
X284710Y296619D01*
X285400Y297310D01*
X286781Y298000D01*
X290233Y298000D01*
X292305Y297310D01*
X298519Y283500D02*
X298519Y298000D01*
X313019Y297310D02*
X311638Y298000D01*
X309567Y298000D01*
X307495Y297310D01*
X306114Y295929D01*
X305424Y294548D01*
X304733Y291786D01*
X304733Y289714D01*
X305424Y286952D01*
X306114Y285571D01*
X307495Y284190D01*
X309567Y283500D01*
X310948Y283500D01*
X313019Y284190D01*
X313710Y284881D01*
X313710Y289714D01*
X310948Y289714D01*
X319924Y283500D02*
X319924Y298000D01*
X328210Y283500D01*
X328210Y298000D01*
X334424Y284190D02*
X336495Y283500D01*
X339948Y283500D01*
X341329Y284190D01*
X342019Y284881D01*
X342710Y286262D01*
X342710Y287643D01*
X342019Y289024D01*
X341329Y289714D01*
X339948Y290405D01*
X337186Y291095D01*
X335805Y291786D01*
X335114Y292476D01*
X334424Y293857D01*
X334424Y295238D01*
X335114Y296619D01*
X335805Y297310D01*
X337186Y298000D01*
X340638Y298000D01*
X342710Y297310D01*
X74143Y262500D02*
X67286Y262500D01*
X70714Y262500D02*
X70714Y274500D01*
X69571Y272786D01*
X68429Y271643D01*
X67286Y271071D01*
X86486Y263643D02*
X87057Y263071D01*
X86486Y262500D01*
X85914Y263071D01*
X86486Y263643D01*
X86486Y262500D01*
X92200Y267071D02*
X101343Y267071D01*
X107057Y267071D02*
X116200Y267071D01*
X121914Y267071D02*
X131057Y267071D01*
X136771Y267071D02*
X145914Y267071D01*
X165457Y273357D02*
X166029Y273929D01*
X167171Y274500D01*
X170029Y274500D01*
X171171Y273929D01*
X171743Y273357D01*
X172314Y272214D01*
X172314Y271071D01*
X171743Y269357D01*
X164886Y262500D01*
X172314Y262500D01*
X184657Y263643D02*
X185229Y263071D01*
X184657Y262500D01*
X184086Y263071D01*
X184657Y263643D01*
X184657Y262500D01*
X190371Y263643D02*
X190943Y263071D01*
X190371Y262500D01*
X189800Y263071D01*
X190371Y263643D01*
X190371Y262500D01*
X196086Y267071D02*
X205229Y267071D01*
X210943Y267071D02*
X220086Y267071D01*
X225800Y267071D02*
X234943Y267071D01*
X253914Y274500D02*
X261343Y274500D01*
X257343Y269929D01*
X259057Y269929D01*
X260200Y269357D01*
X260771Y268786D01*
X261343Y267643D01*
X261343Y264786D01*
X260771Y263643D01*
X260200Y263071D01*
X259057Y262500D01*
X255629Y262500D01*
X254486Y263071D01*
X253914Y263643D01*
X273686Y263643D02*
X274257Y263071D01*
X273686Y262500D01*
X273114Y263071D01*
X273686Y263643D01*
X273686Y262500D01*
X279400Y263643D02*
X279971Y263071D01*
X279400Y262500D01*
X278829Y263071D01*
X279400Y263643D01*
X279400Y262500D01*
X285114Y263643D02*
X285686Y263071D01*
X285114Y262500D01*
X284543Y263071D01*
X285114Y263643D01*
X285114Y262500D01*
X290829Y267071D02*
X299971Y267071D01*
X305686Y267071D02*
X314829Y267071D01*
X340086Y270500D02*
X340086Y262500D01*
X337229Y275071D02*
X334371Y266500D01*
X341800Y266500D01*
X353571Y263643D02*
X354143Y263071D01*
X353571Y262500D01*
X353000Y263071D01*
X353571Y263643D01*
X353571Y262500D01*
X359286Y263643D02*
X359857Y263071D01*
X359286Y262500D01*
X358714Y263071D01*
X359286Y263643D01*
X359286Y262500D01*
X365000Y263643D02*
X365571Y263071D01*
X365000Y262500D01*
X364429Y263071D01*
X365000Y263643D01*
X365000Y262500D01*
X370714Y263643D02*
X371286Y263071D01*
X370714Y262500D01*
X370143Y263071D01*
X370714Y263643D01*
X370714Y262500D01*
X376429Y267071D02*
X385571Y267071D01*
X411400Y274500D02*
X405686Y274500D01*
X405114Y268786D01*
X405686Y269357D01*
X406829Y269929D01*
X409686Y269929D01*
X410829Y269357D01*
X411400Y268786D01*
X411971Y267643D01*
X411971Y264786D01*
X411400Y263643D01*
X410829Y263071D01*
X409686Y262500D01*
X406829Y262500D01*
X405686Y263071D01*
X405114Y263643D01*
X424314Y263643D02*
X424886Y263071D01*
X424314Y262500D01*
X423743Y263071D01*
X424314Y263643D01*
X424314Y262500D01*
X430029Y263643D02*
X430600Y263071D01*
X430029Y262500D01*
X429457Y263071D01*
X430029Y263643D01*
X430029Y262500D01*
X435743Y263643D02*
X436314Y263071D01*
X435743Y262500D01*
X435171Y263071D01*
X435743Y263643D01*
X435743Y262500D01*
X441457Y263643D02*
X442029Y263071D01*
X441457Y262500D01*
X440886Y263071D01*
X441457Y263643D01*
X441457Y262500D01*
X447171Y263643D02*
X447743Y263071D01*
X447171Y262500D01*
X446600Y263071D01*
X447171Y263643D01*
X447171Y262500D01*
X483057Y275071D02*
X472771Y259643D01*
X494257Y267071D02*
X503400Y267071D01*
X509114Y263643D02*
X509686Y263071D01*
X509114Y262500D01*
X508543Y263071D01*
X509114Y263643D01*
X509114Y262500D01*
X514829Y263643D02*
X515400Y263071D01*
X514829Y262500D01*
X514257Y263071D01*
X514829Y263643D01*
X514829Y262500D01*
X520543Y267071D02*
X529686Y267071D01*
X535400Y263643D02*
X535971Y263071D01*
X535400Y262500D01*
X534829Y263071D01*
X535400Y263643D01*
X535400Y262500D01*
X73000Y256725D02*
X70714Y256725D01*
X69571Y256154D01*
X69000Y255582D01*
X67857Y253868D01*
X67286Y251582D01*
X67286Y247011D01*
X67857Y245868D01*
X68429Y245296D01*
X69571Y244725D01*
X71857Y244725D01*
X73000Y245296D01*
X73571Y245868D01*
X74143Y247011D01*
X74143Y249868D01*
X73571Y251011D01*
X73000Y251582D01*
X71857Y252154D01*
X69571Y252154D01*
X68429Y251582D01*
X67857Y251011D01*
X67286Y249868D01*
X86486Y249296D02*
X95629Y249296D01*
X101343Y245868D02*
X101914Y245296D01*
X101343Y244725D01*
X100771Y245296D01*
X101343Y245868D01*
X101343Y244725D01*
X107057Y245868D02*
X107629Y245296D01*
X107057Y244725D01*
X106486Y245296D01*
X107057Y245868D01*
X107057Y244725D01*
X112771Y245868D02*
X113343Y245296D01*
X112771Y244725D01*
X112200Y245296D01*
X112771Y245868D01*
X112771Y244725D01*
X118486Y245868D02*
X119057Y245296D01*
X118486Y244725D01*
X117914Y245296D01*
X118486Y245868D01*
X118486Y244725D01*
X137457Y256725D02*
X145457Y256725D01*
X140314Y244725D01*
X157229Y249296D02*
X166371Y249296D01*
X172086Y249296D02*
X181229Y249296D01*
X186943Y245868D02*
X187514Y245296D01*
X186943Y244725D01*
X186371Y245296D01*
X186943Y245868D01*
X186943Y244725D01*
X192657Y245868D02*
X193229Y245296D01*
X192657Y244725D01*
X192086Y245296D01*
X192657Y245868D01*
X192657Y244725D01*
X198371Y245868D02*
X198943Y245296D01*
X198371Y244725D01*
X197800Y245296D01*
X198371Y245868D01*
X198371Y244725D01*
X220200Y251582D02*
X219057Y252154D01*
X218486Y252725D01*
X217914Y253868D01*
X217914Y254439D01*
X218486Y255582D01*
X219057Y256154D01*
X220200Y256725D01*
X222486Y256725D01*
X223629Y256154D01*
X224200Y255582D01*
X224771Y254439D01*
X224771Y253868D01*
X224200Y252725D01*
X223629Y252154D01*
X222486Y251582D01*
X220200Y251582D01*
X219057Y251011D01*
X218486Y250439D01*
X217914Y249296D01*
X217914Y247011D01*
X218486Y245868D01*
X219057Y245296D01*
X220200Y244725D01*
X222486Y244725D01*
X223629Y245296D01*
X224200Y245868D01*
X224771Y247011D01*
X224771Y249296D01*
X224200Y250439D01*
X223629Y251011D01*
X222486Y251582D01*
X237114Y249296D02*
X246257Y249296D01*
X251971Y249296D02*
X261114Y249296D01*
X266829Y249296D02*
X275971Y249296D01*
X281686Y245868D02*
X282257Y245296D01*
X281686Y244725D01*
X281114Y245296D01*
X281686Y245868D01*
X281686Y244725D01*
X287400Y245868D02*
X287971Y245296D01*
X287400Y244725D01*
X286829Y245296D01*
X287400Y245868D01*
X287400Y244725D01*
X308086Y244725D02*
X310371Y244725D01*
X311514Y245296D01*
X312086Y245868D01*
X313229Y247582D01*
X313800Y249868D01*
X313800Y254439D01*
X313229Y255582D01*
X312657Y256154D01*
X311514Y256725D01*
X309229Y256725D01*
X308086Y256154D01*
X307514Y255582D01*
X306943Y254439D01*
X306943Y251582D01*
X307514Y250439D01*
X308086Y249868D01*
X309229Y249296D01*
X311514Y249296D01*
X312657Y249868D01*
X313229Y250439D01*
X313800Y251582D01*
X326143Y249296D02*
X335286Y249296D01*
X341000Y249296D02*
X350143Y249296D01*
X355857Y249296D02*
X365000Y249296D01*
X370714Y249296D02*
X379857Y249296D01*
X385571Y245868D02*
X386143Y245296D01*
X385571Y244725D01*
X385000Y245296D01*
X385571Y245868D01*
X385571Y244725D01*
X407971Y256725D02*
X409114Y256725D01*
X410257Y256154D01*
X410829Y255582D01*
X411400Y254439D01*
X411971Y252154D01*
X411971Y249296D01*
X411400Y247011D01*
X410829Y245868D01*
X410257Y245296D01*
X409114Y244725D01*
X407971Y244725D01*
X406829Y245296D01*
X406257Y245868D01*
X405686Y247011D01*
X405114Y249296D01*
X405114Y252154D01*
X405686Y254439D01*
X406257Y255582D01*
X406829Y256154D01*
X407971Y256725D01*
X424314Y249296D02*
X433457Y249296D01*
X439171Y249296D02*
X448314Y249296D01*
X454029Y249296D02*
X463171Y249296D01*
X468886Y249296D02*
X478029Y249296D01*
X483743Y249296D02*
X492886Y249296D01*
X521914Y245868D02*
X522486Y245296D01*
X521914Y244725D01*
X521343Y245296D01*
X521914Y245868D01*
X521914Y244725D01*
X519629Y256154D02*
X520771Y256725D01*
X523629Y256725D01*
X524771Y256154D01*
X525343Y255011D01*
X525343Y253868D01*
X524771Y252725D01*
X524200Y252154D01*
X523057Y251582D01*
X522486Y251011D01*
X521914Y249868D01*
X521914Y249296D01*
X537686Y245868D02*
X538257Y245296D01*
X537686Y244725D01*
X537114Y245296D01*
X537686Y245868D01*
X537686Y244725D01*
X543400Y245868D02*
X543971Y245296D01*
X543400Y244725D01*
X542829Y245296D01*
X543400Y245868D01*
X543400Y244725D01*
X549114Y249296D02*
X558257Y249296D01*
X563971Y249296D02*
X573114Y249296D01*
X578829Y245868D02*
X579400Y245296D01*
X578829Y244725D01*
X578257Y245296D01*
X578829Y245868D01*
X578829Y244725D01*
X584543Y245868D02*
X585114Y245296D01*
X584543Y244725D01*
X583971Y245296D01*
X584543Y245868D01*
X584543Y244725D01*
X67286Y230379D02*
X73000Y230379D01*
X66143Y226950D02*
X70143Y238950D01*
X74143Y226950D01*
X85000Y226950D02*
X81000Y232664D01*
X78143Y226950D02*
X78143Y238950D01*
X82714Y238950D01*
X83857Y238379D01*
X84429Y237807D01*
X85000Y236664D01*
X85000Y234950D01*
X84429Y233807D01*
X83857Y233236D01*
X82714Y232664D01*
X78143Y232664D01*
X97343Y228093D02*
X97914Y227521D01*
X97343Y226950D01*
X96771Y227521D01*
X97343Y228093D01*
X97343Y226950D01*
X103057Y231521D02*
X112200Y231521D01*
X117914Y228093D02*
X118486Y227521D01*
X117914Y226950D01*
X117343Y227521D01*
X117914Y228093D01*
X117914Y226950D01*
X123629Y231521D02*
X132771Y231521D01*
X138486Y228093D02*
X139057Y227521D01*
X138486Y226950D01*
X137914Y227521D01*
X138486Y228093D01*
X138486Y226950D01*
X151400Y233236D02*
X155400Y233236D01*
X157114Y226950D02*
X151400Y226950D01*
X151400Y238950D01*
X157114Y238950D01*
X162257Y226950D02*
X162257Y238950D01*
X169114Y226950D01*
X169114Y238950D01*
X174829Y226950D02*
X174829Y238950D01*
X177686Y238950D01*
X179400Y238379D01*
X180543Y237236D01*
X181114Y236093D01*
X181686Y233807D01*
X181686Y232093D01*
X181114Y229807D01*
X180543Y228664D01*
X179400Y227521D01*
X177686Y226950D01*
X174829Y226950D01*
X207857Y227521D02*
X209571Y226950D01*
X212429Y226950D01*
X213571Y227521D01*
X214143Y228093D01*
X214714Y229236D01*
X214714Y230379D01*
X214143Y231521D01*
X213571Y232093D01*
X212429Y232664D01*
X210143Y233236D01*
X209000Y233807D01*
X208429Y234379D01*
X207857Y235521D01*
X207857Y236664D01*
X208429Y237807D01*
X209000Y238379D01*
X210143Y238950D01*
X213000Y238950D01*
X214714Y238379D01*
X219857Y226950D02*
X219857Y238950D01*
X226714Y226950D02*
X221571Y233807D01*
X226714Y238950D02*
X219857Y232093D01*
X239057Y228093D02*
X239629Y227521D01*
X239057Y226950D01*
X238486Y227521D01*
X239057Y228093D01*
X239057Y226950D01*
X244771Y228093D02*
X245343Y227521D01*
X244771Y226950D01*
X244200Y227521D01*
X244771Y228093D01*
X244771Y226950D01*
X250486Y228093D02*
X251057Y227521D01*
X250486Y226950D01*
X249914Y227521D01*
X250486Y228093D01*
X250486Y226950D01*
X256200Y231521D02*
X265343Y231521D01*
X271057Y228093D02*
X271629Y227521D01*
X271057Y226950D01*
X270486Y227521D01*
X271057Y228093D01*
X271057Y226950D01*
X276771Y231521D02*
X285914Y231521D01*
X305686Y228093D02*
X305114Y227521D01*
X303400Y226950D01*
X302257Y226950D01*
X300543Y227521D01*
X299400Y228664D01*
X298829Y229807D01*
X298257Y232093D01*
X298257Y233807D01*
X298829Y236093D01*
X299400Y237236D01*
X300543Y238379D01*
X302257Y238950D01*
X303400Y238950D01*
X305114Y238379D01*
X305686Y237807D01*
X316543Y226950D02*
X310829Y226950D01*
X310829Y238950D01*
X320543Y233236D02*
X324543Y233236D01*
X326257Y226950D02*
X320543Y226950D01*
X320543Y238950D01*
X326257Y238950D01*
X330829Y230379D02*
X336543Y230379D01*
X329686Y226950D02*
X333686Y238950D01*
X337686Y226950D01*
X348543Y226950D02*
X344543Y232664D01*
X341686Y226950D02*
X341686Y238950D01*
X346257Y238950D01*
X347400Y238379D01*
X347971Y237807D01*
X348543Y236664D01*
X348543Y234950D01*
X347971Y233807D01*
X347400Y233236D01*
X346257Y232664D01*
X341686Y232664D01*
X375286Y226950D02*
X375286Y238950D01*
X382143Y226950D02*
X377000Y233807D01*
X382143Y238950D02*
X375286Y232093D01*
X387286Y226950D02*
X387286Y238950D01*
X394143Y226950D01*
X394143Y238950D01*
X407057Y231521D02*
X416200Y231521D01*
X421914Y228093D02*
X422486Y227521D01*
X421914Y226950D01*
X421343Y227521D01*
X421914Y228093D01*
X421914Y226950D01*
X427629Y231521D02*
X436771Y231521D01*
X442486Y231521D02*
X451629Y231521D01*
X457343Y228093D02*
X457914Y227521D01*
X457343Y226950D01*
X456771Y227521D01*
X457343Y228093D01*
X457343Y226950D01*
X470257Y226950D02*
X470257Y238950D01*
X477114Y226950D01*
X477114Y238950D01*
X482257Y230379D02*
X487971Y230379D01*
X481114Y226950D02*
X485114Y238950D01*
X489114Y226950D01*
X493114Y226950D02*
X493114Y238950D01*
X497114Y230379D01*
X501114Y238950D01*
X501114Y226950D01*
X506829Y233236D02*
X510829Y233236D01*
X512543Y226950D02*
X506829Y226950D01*
X506829Y238950D01*
X512543Y238950D01*
X517686Y226950D02*
X517686Y238950D01*
X520543Y238950D01*
X522257Y238379D01*
X523400Y237236D01*
X523971Y236093D01*
X524543Y233807D01*
X524543Y232093D01*
X523971Y229807D01*
X523400Y228664D01*
X522257Y227521D01*
X520543Y226950D01*
X517686Y226950D01*
X555286Y233236D02*
X557000Y232664D01*
X557571Y232093D01*
X558143Y230950D01*
X558143Y229236D01*
X557571Y228093D01*
X557000Y227521D01*
X555857Y226950D01*
X551286Y226950D01*
X551286Y238950D01*
X555286Y238950D01*
X556429Y238379D01*
X557000Y237807D01*
X557571Y236664D01*
X557571Y235521D01*
X557000Y234379D01*
X556429Y233807D01*
X555286Y233236D01*
X551286Y233236D01*
X561571Y238950D02*
X568429Y238950D01*
X565000Y226950D02*
X565000Y238950D01*
X579629Y231521D02*
X588771Y231521D01*
X594486Y228093D02*
X595057Y227521D01*
X594486Y226950D01*
X593914Y227521D01*
X594486Y228093D01*
X594486Y226950D01*
X600200Y228093D02*
X600771Y227521D01*
X600200Y226950D01*
X599629Y227521D01*
X600200Y228093D01*
X600200Y226950D01*
X605914Y228093D02*
X606486Y227521D01*
X605914Y226950D01*
X605343Y227521D01*
X605914Y228093D01*
X605914Y226950D01*
X611629Y231521D02*
X620771Y231521D01*
X633686Y226950D02*
X633686Y238950D01*
X638257Y238950D01*
X639400Y238379D01*
X639971Y237807D01*
X640543Y236664D01*
X640543Y234950D01*
X639971Y233807D01*
X639400Y233236D01*
X638257Y232664D01*
X633686Y232664D01*
X645114Y230379D02*
X650829Y230379D01*
X643971Y226950D02*
X647971Y238950D01*
X651971Y226950D01*
X655971Y238950D02*
X655971Y229236D01*
X656543Y228093D01*
X657114Y227521D01*
X658257Y226950D01*
X660543Y226950D01*
X661686Y227521D01*
X662257Y228093D01*
X662829Y229236D01*
X662829Y238950D01*
X667971Y227521D02*
X669686Y226950D01*
X672543Y226950D01*
X673686Y227521D01*
X674257Y228093D01*
X674829Y229236D01*
X674829Y230379D01*
X674257Y231521D01*
X673686Y232093D01*
X672543Y232664D01*
X670257Y233236D01*
X669114Y233807D01*
X668543Y234379D01*
X667971Y235521D01*
X667971Y236664D01*
X668543Y237807D01*
X669114Y238379D01*
X670257Y238950D01*
X673114Y238950D01*
X674829Y238379D01*
X679971Y233236D02*
X683971Y233236D01*
X685686Y226950D02*
X679971Y226950D01*
X679971Y238950D01*
X685686Y238950D01*
M02*
