solid OpenSCAD_Model
  facet normal 0.511405 -0.228383 -0.828436
    outer loop
      vertex 18.7061 -6.48 0.799999
      vertex 17.5838 -6.09119 0
      vertex 20.304 0 0
    endloop
  endfacet
  facet normal -0.114526 0.712366 -0.692401
    outer loop
      vertex -10.152 10.5503 0
      vertex -10.8 11.2237 0.799999
      vertex 0 12.96 0.799999
    endloop
  endfacet
  facet normal 0.339527 -0.565875 0.751337
    outer loop
      vertex 17.5838 -6.09119 15
      vertex 10.152 -10.5503 15
      vertex 18.7061 -6.48 14.2
    endloop
  endfacet
  facet normal 0.114523 0.712357 0.692411
    outer loop
      vertex 0 12.96 14.2
      vertex 0 12.1824 15
      vertex 10.152 10.5503 15
    endloop
  endfacet
  facet normal 0.114526 -0.712366 -0.692401
    outer loop
      vertex 10.8 -11.2237 0.799999
      vertex 0 -12.96 0.799999
      vertex 10.152 -10.5503 0
    endloop
  endfacet
  facet normal -0.913083 -0.407773 0
    outer loop
      vertex -18.7061 -6.48 0.799999
      vertex -21.6 0 14.2
      vertex -21.6 0 0.799999
    endloop
  endfacet
  facet normal -0.913083 -0.407773 0
    outer loop
      vertex -21.6 0 14.2
      vertex -18.7061 -6.48 0.799999
      vertex -18.7061 -6.48 14.2
    endloop
  endfacet
  facet normal -0.339527 -0.565875 -0.751337
    outer loop
      vertex -10.152 -10.5503 0
      vertex -18.7061 -6.48 0.799999
      vertex -17.5838 -6.09119 0
    endloop
  endfacet
  facet normal 0.339527 -0.565875 -0.751337
    outer loop
      vertex 18.7061 -6.48 0.799999
      vertex 10.152 -10.5503 0
      vertex 17.5838 -6.09119 0
    endloop
  endfacet
  facet normal -0.339526 0.565872 0.751339
    outer loop
      vertex -10.8 11.2237 14.2
      vertex -18.7061 6.48 14.2
      vertex -10.152 10.5503 15
    endloop
  endfacet
  facet normal -0.15873 0.987322 0
    outer loop
      vertex 0 12.96 0.799999
      vertex -10.8 11.2237 14.2
      vertex 0 12.96 14.2
    endloop
  endfacet
  facet normal -0.15873 0.987322 0
    outer loop
      vertex -10.8 11.2237 14.2
      vertex 0 12.96 0.799999
      vertex -10.8 11.2237 0.799999
    endloop
  endfacet
  facet normal -0.511406 -0.228383 0.828435
    outer loop
      vertex -17.5838 -6.09119 15
      vertex -20.304 0 15
      vertex -18.7061 -6.48 14.2
    endloop
  endfacet
  facet normal 0.339526 0.565872 0.751339
    outer loop
      vertex 10.8 11.2237 14.2
      vertex 10.152 10.5503 15
      vertex 18.7061 6.48 14.2
    endloop
  endfacet
  facet normal 0 0 1
    outer loop
      vertex 5.85 0 15
      vertex 20.304 0 15
      vertex 17.5838 6.09119 15
    endloop
  endfacet
  facet normal 0 0 1
    outer loop
      vertex 5.40469 2.2387 15
      vertex 17.5838 6.09119 15
      vertex 10.152 10.5503 15
    endloop
  endfacet
  facet normal 0 -0 1
    outer loop
      vertex 5.82183 0.5734 15
      vertex 17.5838 6.09119 15
      vertex 5.73759 1.14128 15
    endloop
  endfacet
  facet normal -0 0 1
    outer loop
      vertex 5.82183 -0.5734 15
      vertex 17.5838 -6.09119 15
      vertex 5.85 0 15
    endloop
  endfacet
  facet normal 0 0 1
    outer loop
      vertex 20.304 0 15
      vertex 5.85 0 15
      vertex 17.5838 -6.09119 15
    endloop
  endfacet
  facet normal 0 -0 1
    outer loop
      vertex 5.85 0 15
      vertex 17.5838 6.09119 15
      vertex 5.82183 0.5734 15
    endloop
  endfacet
  facet normal 0 0 1
    outer loop
      vertex 17.5838 6.09119 15
      vertex 5.5981 1.69816 15
      vertex 5.73759 1.14128 15
    endloop
  endfacet
  facet normal 0 0 1
    outer loop
      vertex 17.5838 6.09119 15
      vertex 5.40469 2.2387 15
      vertex 5.5981 1.69816 15
    endloop
  endfacet
  facet normal 0 0 1
    outer loop
      vertex 10.152 10.5503 15
      vertex 5.15924 2.75767 15
      vertex 5.40469 2.2387 15
    endloop
  endfacet
  facet normal 0 0 1
    outer loop
      vertex 10.152 10.5503 15
      vertex 4.8641 3.25009 15
      vertex 5.15924 2.75767 15
    endloop
  endfacet
  facet normal 0 0 1
    outer loop
      vertex 10.152 10.5503 15
      vertex 4.52211 3.7112 15
      vertex 4.8641 3.25009 15
    endloop
  endfacet
  facet normal 0 0 1
    outer loop
      vertex 10.152 10.5503 15
      vertex 4.13657 4.13657 15
      vertex 4.52211 3.7112 15
    endloop
  endfacet
  facet normal 0 0 1
    outer loop
      vertex 10.152 10.5503 15
      vertex 3.7112 4.52211 15
      vertex 4.13657 4.13657 15
    endloop
  endfacet
  facet normal 0 0 1
    outer loop
      vertex 10.152 10.5503 15
      vertex 3.25009 4.8641 15
      vertex 3.7112 4.52211 15
    endloop
  endfacet
  facet normal 0 0 1
    outer loop
      vertex 10.152 10.5503 15
      vertex 2.75767 5.15924 15
      vertex 3.25009 4.8641 15
    endloop
  endfacet
  facet normal 0 0 1
    outer loop
      vertex 0 12.1824 15
      vertex 2.75767 5.15924 15
      vertex 10.152 10.5503 15
    endloop
  endfacet
  facet normal 0 0 1
    outer loop
      vertex 2.75767 5.15924 15
      vertex 0 12.1824 15
      vertex 2.2387 5.40469 15
    endloop
  endfacet
  facet normal 0 0 1
    outer loop
      vertex 2.2387 5.40469 15
      vertex 0 12.1824 15
      vertex 1.69816 5.5981 15
    endloop
  endfacet
  facet normal 0 0 1
    outer loop
      vertex 1.69816 5.5981 15
      vertex 0 12.1824 15
      vertex 1.14128 5.73759 15
    endloop
  endfacet
  facet normal 0 0 1
    outer loop
      vertex 1.14128 5.73759 15
      vertex 0 12.1824 15
      vertex 0.5734 5.82183 15
    endloop
  endfacet
  facet normal 0 0 1
    outer loop
      vertex 0 12.1824 15
      vertex 0 5.85 15
      vertex 0.5734 5.82183 15
    endloop
  endfacet
  facet normal 0 0 1
    outer loop
      vertex 0 12.1824 15
      vertex -0.5734 5.82183 15
      vertex 0 5.85 15
    endloop
  endfacet
  facet normal 0 0 1
    outer loop
      vertex 0 12.1824 15
      vertex -1.14128 5.73759 15
      vertex -0.5734 5.82183 15
    endloop
  endfacet
  facet normal 0 0 1
    outer loop
      vertex 0 12.1824 15
      vertex -1.69816 5.5981 15
      vertex -1.14128 5.73759 15
    endloop
  endfacet
  facet normal 0 0 1
    outer loop
      vertex 0 12.1824 15
      vertex -2.2387 5.40469 15
      vertex -1.69816 5.5981 15
    endloop
  endfacet
  facet normal 0 0 1
    outer loop
      vertex 0 12.1824 15
      vertex -2.75767 5.15924 15
      vertex -2.2387 5.40469 15
    endloop
  endfacet
  facet normal -0 0 1
    outer loop
      vertex -10.152 10.5503 15
      vertex -2.75767 5.15924 15
      vertex 0 12.1824 15
    endloop
  endfacet
  facet normal 0 0 1
    outer loop
      vertex -2.75767 5.15924 15
      vertex -10.152 10.5503 15
      vertex -3.25009 4.8641 15
    endloop
  endfacet
  facet normal 0 0 1
    outer loop
      vertex -3.25009 4.8641 15
      vertex -10.152 10.5503 15
      vertex -3.7112 4.52211 15
    endloop
  endfacet
  facet normal 0 0 1
    outer loop
      vertex -3.7112 4.52211 15
      vertex -10.152 10.5503 15
      vertex -4.13657 4.13657 15
    endloop
  endfacet
  facet normal 0 0 1
    outer loop
      vertex -4.13657 4.13657 15
      vertex -10.152 10.5503 15
      vertex -4.52211 3.7112 15
    endloop
  endfacet
  facet normal 0 0 1
    outer loop
      vertex -4.52211 3.7112 15
      vertex -10.152 10.5503 15
      vertex -4.8641 3.25009 15
    endloop
  endfacet
  facet normal 0 0 1
    outer loop
      vertex -5.73759 1.14128 15
      vertex -17.5838 6.09119 15
      vertex -5.82183 0.5734 15
    endloop
  endfacet
  facet normal 0 0 1
    outer loop
      vertex -5.5981 1.69816 15
      vertex -17.5838 6.09119 15
      vertex -5.73759 1.14128 15
    endloop
  endfacet
  facet normal 0 0 1
    outer loop
      vertex -5.40469 2.2387 15
      vertex -17.5838 6.09119 15
      vertex -5.5981 1.69816 15
    endloop
  endfacet
  facet normal -0 0 1
    outer loop
      vertex -17.5838 6.09119 15
      vertex -5.40469 2.2387 15
      vertex -10.152 10.5503 15
    endloop
  endfacet
  facet normal 0 0 1
    outer loop
      vertex -5.15924 2.75767 15
      vertex -10.152 10.5503 15
      vertex -5.40469 2.2387 15
    endloop
  endfacet
  facet normal 0 0 1
    outer loop
      vertex -4.8641 3.25009 15
      vertex -10.152 10.5503 15
      vertex -5.15924 2.75767 15
    endloop
  endfacet
  facet normal -0 0 1
    outer loop
      vertex 5.73759 -1.14128 15
      vertex 17.5838 -6.09119 15
      vertex 5.82183 -0.5734 15
    endloop
  endfacet
  facet normal -0 0 1
    outer loop
      vertex 5.5981 -1.69816 15
      vertex 17.5838 -6.09119 15
      vertex 5.73759 -1.14128 15
    endloop
  endfacet
  facet normal -0 0 1
    outer loop
      vertex 5.40469 -2.2387 15
      vertex 17.5838 -6.09119 15
      vertex 5.5981 -1.69816 15
    endloop
  endfacet
  facet normal 0 0 1
    outer loop
      vertex 17.5838 -6.09119 15
      vertex 5.40469 -2.2387 15
      vertex 10.152 -10.5503 15
    endloop
  endfacet
  facet normal -0 0 1
    outer loop
      vertex 5.15924 -2.75767 15
      vertex 10.152 -10.5503 15
      vertex 5.40469 -2.2387 15
    endloop
  endfacet
  facet normal -0 0 1
    outer loop
      vertex 4.8641 -3.25009 15
      vertex 10.152 -10.5503 15
      vertex 5.15924 -2.75767 15
    endloop
  endfacet
  facet normal -0 0 1
    outer loop
      vertex 4.52211 -3.7112 15
      vertex 10.152 -10.5503 15
      vertex 4.8641 -3.25009 15
    endloop
  endfacet
  facet normal -0 0 1
    outer loop
      vertex 4.13657 -4.13657 15
      vertex 10.152 -10.5503 15
      vertex 4.52211 -3.7112 15
    endloop
  endfacet
  facet normal -0 0 1
    outer loop
      vertex 3.7112 -4.52211 15
      vertex 10.152 -10.5503 15
      vertex 4.13657 -4.13657 15
    endloop
  endfacet
  facet normal -0 0 1
    outer loop
      vertex 3.25009 -4.8641 15
      vertex 10.152 -10.5503 15
      vertex 3.7112 -4.52211 15
    endloop
  endfacet
  facet normal -0 0 1
    outer loop
      vertex 2.75767 -5.15924 15
      vertex 10.152 -10.5503 15
      vertex 3.25009 -4.8641 15
    endloop
  endfacet
  facet normal 0 0 1
    outer loop
      vertex 0 -12.1824 15
      vertex 2.75767 -5.15924 15
      vertex 2.2387 -5.40469 15
    endloop
  endfacet
  facet normal 0 0 1
    outer loop
      vertex 0 -12.1824 15
      vertex 2.2387 -5.40469 15
      vertex 1.69816 -5.5981 15
    endloop
  endfacet
  facet normal 0 0 1
    outer loop
      vertex 0 -12.1824 15
      vertex 1.69816 -5.5981 15
      vertex 1.14128 -5.73759 15
    endloop
  endfacet
  facet normal 0 0 1
    outer loop
      vertex 0 -12.1824 15
      vertex 1.14128 -5.73759 15
      vertex 0.5734 -5.82183 15
    endloop
  endfacet
  facet normal 0 0 1
    outer loop
      vertex 0 -12.1824 15
      vertex 0.5734 -5.82183 15
      vertex 0 -5.85 15
    endloop
  endfacet
  facet normal 0 0 1
    outer loop
      vertex 2.75767 -5.15924 15
      vertex 0 -12.1824 15
      vertex 10.152 -10.5503 15
    endloop
  endfacet
  facet normal 0 0 1
    outer loop
      vertex -0.5734 -5.82183 15
      vertex 0 -12.1824 15
      vertex 0 -5.85 15
    endloop
  endfacet
  facet normal 0 0 1
    outer loop
      vertex -1.14128 -5.73759 15
      vertex 0 -12.1824 15
      vertex -0.5734 -5.82183 15
    endloop
  endfacet
  facet normal 0 0 1
    outer loop
      vertex -1.69816 -5.5981 15
      vertex 0 -12.1824 15
      vertex -1.14128 -5.73759 15
    endloop
  endfacet
  facet normal 0 0 1
    outer loop
      vertex -2.2387 -5.40469 15
      vertex 0 -12.1824 15
      vertex -1.69816 -5.5981 15
    endloop
  endfacet
  facet normal 0 0 1
    outer loop
      vertex -2.75767 -5.15924 15
      vertex 0 -12.1824 15
      vertex -2.2387 -5.40469 15
    endloop
  endfacet
  facet normal 0 0 1
    outer loop
      vertex -10.152 -10.5503 15
      vertex -2.75767 -5.15924 15
      vertex -3.25009 -4.8641 15
    endloop
  endfacet
  facet normal 0 0 1
    outer loop
      vertex -10.152 -10.5503 15
      vertex -3.25009 -4.8641 15
      vertex -3.7112 -4.52211 15
    endloop
  endfacet
  facet normal 0 0 1
    outer loop
      vertex -10.152 -10.5503 15
      vertex -3.7112 -4.52211 15
      vertex -4.13657 -4.13657 15
    endloop
  endfacet
  facet normal 0 0 1
    outer loop
      vertex -10.152 -10.5503 15
      vertex -4.13657 -4.13657 15
      vertex -4.52211 -3.7112 15
    endloop
  endfacet
  facet normal 0 0 1
    outer loop
      vertex -10.152 -10.5503 15
      vertex -4.52211 -3.7112 15
      vertex -4.8641 -3.25009 15
    endloop
  endfacet
  facet normal 0 0 1
    outer loop
      vertex -10.152 -10.5503 15
      vertex -4.8641 -3.25009 15
      vertex -5.15924 -2.75767 15
    endloop
  endfacet
  facet normal 0 0 1
    outer loop
      vertex -5.82183 0.5734 15
      vertex -17.5838 6.09119 15
      vertex -5.85 0 15
    endloop
  endfacet
  facet normal 0 0 1
    outer loop
      vertex -20.304 0 15
      vertex -5.85 0 15
      vertex -17.5838 6.09119 15
    endloop
  endfacet
  facet normal 0 -0 1
    outer loop
      vertex -17.5838 -6.09119 15
      vertex -5.85 0 15
      vertex -20.304 0 15
    endloop
  endfacet
  facet normal 0 0 1
    outer loop
      vertex -5.85 0 15
      vertex -17.5838 -6.09119 15
      vertex -5.82183 -0.5734 15
    endloop
  endfacet
  facet normal 0 0 1
    outer loop
      vertex -2.75767 -5.15924 15
      vertex -10.152 -10.5503 15
      vertex 0 -12.1824 15
    endloop
  endfacet
  facet normal 0 0 1
    outer loop
      vertex -5.40469 -2.2387 15
      vertex -10.152 -10.5503 15
      vertex -5.15924 -2.75767 15
    endloop
  endfacet
  facet normal 0 0 1
    outer loop
      vertex -5.82183 -0.5734 15
      vertex -17.5838 -6.09119 15
      vertex -5.73759 -1.14128 15
    endloop
  endfacet
  facet normal 0 0 1
    outer loop
      vertex -5.73759 -1.14128 15
      vertex -17.5838 -6.09119 15
      vertex -5.5981 -1.69816 15
    endloop
  endfacet
  facet normal 0 0 1
    outer loop
      vertex -5.40469 -2.2387 15
      vertex -17.5838 -6.09119 15
      vertex -10.152 -10.5503 15
    endloop
  endfacet
  facet normal 0 0 1
    outer loop
      vertex -5.5981 -1.69816 15
      vertex -17.5838 -6.09119 15
      vertex -5.40469 -2.2387 15
    endloop
  endfacet
  facet normal -0.339527 0.565875 0.751337
    outer loop
      vertex -10.152 10.5503 15
      vertex -18.7061 6.48 14.2
      vertex -17.5838 6.09119 15
    endloop
  endfacet
  facet normal 0.511406 0.228383 0.828435
    outer loop
      vertex 18.7061 6.48 14.2
      vertex 17.5838 6.09119 15
      vertex 20.304 0 15
    endloop
  endfacet
  facet normal 0.339526 -0.565872 -0.75134
    outer loop
      vertex 10.8 -11.2237 0.799999
      vertex 10.152 -10.5503 0
      vertex 18.7061 -6.48 0.799999
    endloop
  endfacet
  facet normal -0.339527 -0.565875 0.751337
    outer loop
      vertex -17.5838 -6.09119 15
      vertex -18.7061 -6.48 14.2
      vertex -10.152 -10.5503 15
    endloop
  endfacet
  facet normal 0.514499 -0.857491 0
    outer loop
      vertex 10.8 -11.2237 0.799999
      vertex 18.7061 -6.48 14.2
      vertex 10.8 -11.2237 14.2
    endloop
  endfacet
  facet normal 0.514499 -0.857491 0
    outer loop
      vertex 18.7061 -6.48 14.2
      vertex 10.8 -11.2237 0.799999
      vertex 18.7061 -6.48 0.799999
    endloop
  endfacet
  facet normal 0.339526 -0.565872 0.751339
    outer loop
      vertex 18.7061 -6.48 14.2
      vertex 10.152 -10.5503 15
      vertex 10.8 -11.2237 14.2
    endloop
  endfacet
  facet normal 0.511406 -0.228383 0.828435
    outer loop
      vertex 20.304 0 15
      vertex 17.5838 -6.09119 15
      vertex 18.7061 -6.48 14.2
    endloop
  endfacet
  facet normal 0.913083 -0.407773 0
    outer loop
      vertex 18.7061 -6.48 14.2
      vertex 21.6 0 0.799999
      vertex 21.6 0 14.2
    endloop
  endfacet
  facet normal 0.913083 -0.407773 0
    outer loop
      vertex 21.6 0 0.799999
      vertex 18.7061 -6.48 14.2
      vertex 18.7061 -6.48 0.799999
    endloop
  endfacet
  facet normal -0.114526 -0.712366 -0.692401
    outer loop
      vertex 0 -12.96 0.799999
      vertex -10.8 -11.2237 0.799999
      vertex -10.152 -10.5503 0
    endloop
  endfacet
  facet normal 0.114523 -0.712356 -0.692411
    outer loop
      vertex 10.152 -10.5503 0
      vertex 0 -12.96 0.799999
      vertex 0 -12.1824 0
    endloop
  endfacet
  facet normal -0.339526 -0.565872 -0.75134
    outer loop
      vertex -10.8 -11.2237 0.799999
      vertex -18.7061 -6.48 0.799999
      vertex -10.152 -10.5503 0
    endloop
  endfacet
  facet normal -0.514499 -0.857491 0
    outer loop
      vertex -18.7061 -6.48 0.799999
      vertex -10.8 -11.2237 14.2
      vertex -18.7061 -6.48 14.2
    endloop
  endfacet
  facet normal -0.514499 -0.857491 -0
    outer loop
      vertex -10.8 -11.2237 14.2
      vertex -18.7061 -6.48 0.799999
      vertex -10.8 -11.2237 0.799999
    endloop
  endfacet
  facet normal 0.114526 0.712366 -0.692401
    outer loop
      vertex 10.152 10.5503 0
      vertex 0 12.96 0.799999
      vertex 10.8 11.2237 0.799999
    endloop
  endfacet
  facet normal -0.511405 -0.228383 -0.828436
    outer loop
      vertex -18.7061 -6.48 0.799999
      vertex -20.304 0 0
      vertex -17.5838 -6.09119 0
    endloop
  endfacet
  facet normal -0.511406 0.228383 0.828435
    outer loop
      vertex -18.7061 6.48 14.2
      vertex -20.304 0 15
      vertex -17.5838 6.09119 15
    endloop
  endfacet
  facet normal 0.913083 0.407773 0
    outer loop
      vertex 21.6 0 14.2
      vertex 18.7061 6.48 0.799999
      vertex 18.7061 6.48 14.2
    endloop
  endfacet
  facet normal 0.913083 0.407773 0
    outer loop
      vertex 18.7061 6.48 0.799999
      vertex 21.6 0 14.2
      vertex 21.6 0 0.799999
    endloop
  endfacet
  facet normal 0.511405 0.228383 -0.828436
    outer loop
      vertex 20.304 0 0
      vertex 17.5838 6.09119 0
      vertex 18.7061 6.48 0.799999
    endloop
  endfacet
  facet normal 0.15873 -0.987322 0
    outer loop
      vertex 0 -12.96 0.799999
      vertex 10.8 -11.2237 14.2
      vertex 0 -12.96 14.2
    endloop
  endfacet
  facet normal 0.15873 -0.987322 0
    outer loop
      vertex 10.8 -11.2237 14.2
      vertex 0 -12.96 0.799999
      vertex 10.8 -11.2237 0.799999
    endloop
  endfacet
  facet normal 0.114526 -0.712366 0.6924
    outer loop
      vertex 10.152 -10.5503 15
      vertex 0 -12.96 14.2
      vertex 10.8 -11.2237 14.2
    endloop
  endfacet
  facet normal 0.511387 -0.22838 0.828448
    outer loop
      vertex 20.304 0 15
      vertex 18.7061 -6.48 14.2
      vertex 21.6 0 14.2
    endloop
  endfacet
  facet normal 0.511387 0.22838 0.828448
    outer loop
      vertex 21.6 0 14.2
      vertex 18.7061 6.48 14.2
      vertex 20.304 0 15
    endloop
  endfacet
  facet normal -0.114523 -0.712356 -0.692411
    outer loop
      vertex 0 -12.96 0.799999
      vertex -10.152 -10.5503 0
      vertex 0 -12.1824 0
    endloop
  endfacet
  facet normal -0.114526 0.712366 0.6924
    outer loop
      vertex 0 12.96 14.2
      vertex -10.8 11.2237 14.2
      vertex -10.152 10.5503 15
    endloop
  endfacet
  facet normal -0.114523 0.712357 0.692411
    outer loop
      vertex 0 12.96 14.2
      vertex -10.152 10.5503 15
      vertex 0 12.1824 15
    endloop
  endfacet
  facet normal -0.514499 0.857491 0
    outer loop
      vertex -10.8 11.2237 0.799999
      vertex -18.7061 6.48 14.2
      vertex -10.8 11.2237 14.2
    endloop
  endfacet
  facet normal -0.514499 0.857491 0
    outer loop
      vertex -18.7061 6.48 14.2
      vertex -10.8 11.2237 0.799999
      vertex -18.7061 6.48 0.799999
    endloop
  endfacet
  facet normal -0.339526 0.565872 -0.75134
    outer loop
      vertex -10.152 10.5503 0
      vertex -18.7061 6.48 0.799999
      vertex -10.8 11.2237 0.799999
    endloop
  endfacet
  facet normal 0.511387 0.22838 -0.828448
    outer loop
      vertex 20.304 0 0
      vertex 18.7061 6.48 0.799999
      vertex 21.6 0 0.799999
    endloop
  endfacet
  facet normal 0.511387 -0.22838 -0.828448
    outer loop
      vertex 21.6 0 0.799999
      vertex 18.7061 -6.48 0.799999
      vertex 20.304 0 0
    endloop
  endfacet
  facet normal 0.339526 0.565872 -0.75134
    outer loop
      vertex 18.7061 6.48 0.799999
      vertex 10.152 10.5503 0
      vertex 10.8 11.2237 0.799999
    endloop
  endfacet
  facet normal -0.114523 0.712356 -0.692411
    outer loop
      vertex 0 12.1824 0
      vertex -10.152 10.5503 0
      vertex 0 12.96 0.799999
    endloop
  endfacet
  facet normal -0.15873 -0.987322 0
    outer loop
      vertex -10.8 -11.2237 0.799999
      vertex 0 -12.96 14.2
      vertex -10.8 -11.2237 14.2
    endloop
  endfacet
  facet normal -0.15873 -0.987322 -0
    outer loop
      vertex 0 -12.96 14.2
      vertex -10.8 -11.2237 0.799999
      vertex 0 -12.96 0.799999
    endloop
  endfacet
  facet normal -0.511387 0.22838 0.828448
    outer loop
      vertex -18.7061 6.48 14.2
      vertex -21.6 0 14.2
      vertex -20.304 0 15
    endloop
  endfacet
  facet normal -0.511387 -0.22838 0.828448
    outer loop
      vertex -20.304 0 15
      vertex -21.6 0 14.2
      vertex -18.7061 -6.48 14.2
    endloop
  endfacet
  facet normal 0.114526 0.712366 0.6924
    outer loop
      vertex 10.8 11.2237 14.2
      vertex 0 12.96 14.2
      vertex 10.152 10.5503 15
    endloop
  endfacet
  facet normal 0.339527 0.565875 0.751337
    outer loop
      vertex 18.7061 6.48 14.2
      vertex 10.152 10.5503 15
      vertex 17.5838 6.09119 15
    endloop
  endfacet
  facet normal -0.913083 0.407773 0
    outer loop
      vertex -21.6 0 0.799999
      vertex -18.7061 6.48 14.2
      vertex -18.7061 6.48 0.799999
    endloop
  endfacet
  facet normal -0.913083 0.407773 0
    outer loop
      vertex -18.7061 6.48 14.2
      vertex -21.6 0 0.799999
      vertex -21.6 0 14.2
    endloop
  endfacet
  facet normal -0.339527 0.565875 -0.751337
    outer loop
      vertex -17.5838 6.09119 0
      vertex -18.7061 6.48 0.799999
      vertex -10.152 10.5503 0
    endloop
  endfacet
  facet normal -0.511387 0.22838 -0.828448
    outer loop
      vertex -20.304 0 0
      vertex -21.6 0 0.799999
      vertex -18.7061 6.48 0.799999
    endloop
  endfacet
  facet normal -0.511387 -0.22838 -0.828448
    outer loop
      vertex -18.7061 -6.48 0.799999
      vertex -21.6 0 0.799999
      vertex -20.304 0 0
    endloop
  endfacet
  facet normal 0.339527 0.565875 -0.751337
    outer loop
      vertex 17.5838 6.09119 0
      vertex 10.152 10.5503 0
      vertex 18.7061 6.48 0.799999
    endloop
  endfacet
  facet normal 0.15873 0.987322 -0
    outer loop
      vertex 10.8 11.2237 0.799999
      vertex 0 12.96 14.2
      vertex 10.8 11.2237 14.2
    endloop
  endfacet
  facet normal 0.15873 0.987322 0
    outer loop
      vertex 0 12.96 14.2
      vertex 10.8 11.2237 0.799999
      vertex 0 12.96 0.799999
    endloop
  endfacet
  facet normal 0.514499 0.857491 -0
    outer loop
      vertex 18.7061 6.48 0.799999
      vertex 10.8 11.2237 14.2
      vertex 18.7061 6.48 14.2
    endloop
  endfacet
  facet normal 0.514499 0.857491 0
    outer loop
      vertex 10.8 11.2237 14.2
      vertex 18.7061 6.48 0.799999
      vertex 10.8 11.2237 0.799999
    endloop
  endfacet
  facet normal 0.114523 0.712356 -0.692411
    outer loop
      vertex 10.152 10.5503 0
      vertex 0 12.1824 0
      vertex 0 12.96 0.799999
    endloop
  endfacet
  facet normal -0.114526 -0.712366 0.6924
    outer loop
      vertex -10.152 -10.5503 15
      vertex -10.8 -11.2237 14.2
      vertex 0 -12.96 14.2
    endloop
  endfacet
  facet normal -0.339526 -0.565872 0.751339
    outer loop
      vertex -10.152 -10.5503 15
      vertex -18.7061 -6.48 14.2
      vertex -10.8 -11.2237 14.2
    endloop
  endfacet
  facet normal -0.114523 -0.712357 0.692411
    outer loop
      vertex 0 -12.1824 15
      vertex -10.152 -10.5503 15
      vertex 0 -12.96 14.2
    endloop
  endfacet
  facet normal 0.114523 -0.712357 0.692411
    outer loop
      vertex 0 -12.1824 15
      vertex 0 -12.96 14.2
      vertex 10.152 -10.5503 15
    endloop
  endfacet
  facet normal -0.511405 0.228383 -0.828436
    outer loop
      vertex -17.5838 6.09119 0
      vertex -20.304 0 0
      vertex -18.7061 6.48 0.799999
    endloop
  endfacet
  facet normal 0 0 -1
    outer loop
      vertex 17.5838 -6.09119 0
      vertex 17.5838 6.09119 0
      vertex 20.304 0 0
    endloop
  endfacet
  facet normal 0 0 -1
    outer loop
      vertex 10.152 -10.5503 0
      vertex 17.5838 6.09119 0
      vertex 17.5838 -6.09119 0
    endloop
  endfacet
  facet normal 0 0 -1
    outer loop
      vertex 10.152 -10.5503 0
      vertex 10.152 10.5503 0
      vertex 17.5838 6.09119 0
    endloop
  endfacet
  facet normal 0 0 -1
    outer loop
      vertex 0 -12.1824 0
      vertex 10.152 10.5503 0
      vertex 10.152 -10.5503 0
    endloop
  endfacet
  facet normal 0 0 -1
    outer loop
      vertex 0 -12.1824 0
      vertex 0 12.1824 0
      vertex 10.152 10.5503 0
    endloop
  endfacet
  facet normal 0 0 -1
    outer loop
      vertex -10.152 -10.5503 0
      vertex 0 12.1824 0
      vertex 0 -12.1824 0
    endloop
  endfacet
  facet normal 0 0 -1
    outer loop
      vertex -10.152 -10.5503 0
      vertex -10.152 10.5503 0
      vertex 0 12.1824 0
    endloop
  endfacet
  facet normal 0 0 -1
    outer loop
      vertex -17.5838 -6.09119 0
      vertex -10.152 10.5503 0
      vertex -10.152 -10.5503 0
    endloop
  endfacet
  facet normal 0 0 -1
    outer loop
      vertex -17.5838 -6.09119 0
      vertex -17.5838 6.09119 0
      vertex -10.152 10.5503 0
    endloop
  endfacet
  facet normal 0 -0 -1
    outer loop
      vertex -17.5838 6.09119 0
      vertex -17.5838 -6.09119 0
      vertex -20.304 0 0
    endloop
  endfacet
  facet normal -0.998795 -0.0490688 0
    outer loop
      vertex 5.85 0 11.15
      vertex 5.82183 0.5734 15
      vertex 5.82183 0.5734 11.15
    endloop
  endfacet
  facet normal -0.998795 -0.0490688 0
    outer loop
      vertex 5.82183 0.5734 15
      vertex 5.85 0 11.15
      vertex 5.85 0 15
    endloop
  endfacet
  facet normal 0.998795 -0.0490688 0
    outer loop
      vertex -5.85 0 15
      vertex -5.82183 0.5734 11.15
      vertex -5.82183 0.5734 15
    endloop
  endfacet
  facet normal 0.998795 -0.0490688 0
    outer loop
      vertex -5.82183 0.5734 11.15
      vertex -5.85 0 15
      vertex -5.85 0 11.15
    endloop
  endfacet
  facet normal -0.0490688 -0.998795 0
    outer loop
      vertex 0 5.85 11.15
      vertex 0.5734 5.82183 15
      vertex 0 5.85 15
    endloop
  endfacet
  facet normal -0.0490688 -0.998795 -0
    outer loop
      vertex 0.5734 5.82183 15
      vertex 0 5.85 11.15
      vertex 0.5734 5.82183 11.15
    endloop
  endfacet
  facet normal -0.671566 -0.740945 0
    outer loop
      vertex 3.7112 4.52211 11.15
      vertex 4.13657 4.13657 15
      vertex 3.7112 4.52211 15
    endloop
  endfacet
  facet normal -0.671566 -0.740945 -0
    outer loop
      vertex 4.13657 4.13657 15
      vertex 3.7112 4.52211 11.15
      vertex 4.13657 4.13657 11.15
    endloop
  endfacet
  facet normal 0.671566 -0.740945 0
    outer loop
      vertex -4.13657 4.13657 11.15
      vertex -3.7112 4.52211 15
      vertex -4.13657 4.13657 15
    endloop
  endfacet
  facet normal 0.671566 -0.740945 0
    outer loop
      vertex -3.7112 4.52211 15
      vertex -4.13657 4.13657 11.15
      vertex -3.7112 4.52211 11.15
    endloop
  endfacet
  facet normal 0.336892 -0.941543 0
    outer loop
      vertex -2.2387 5.40469 11.15
      vertex -1.69816 5.5981 15
      vertex -2.2387 5.40469 15
    endloop
  endfacet
  facet normal 0.336892 -0.941543 0
    outer loop
      vertex -1.69816 5.5981 15
      vertex -2.2387 5.40469 11.15
      vertex -1.69816 5.5981 11.15
    endloop
  endfacet
  facet normal -0.903992 -0.427549 0
    outer loop
      vertex 5.40469 2.2387 11.15
      vertex 5.15924 2.75767 15
      vertex 5.15924 2.75767 11.15
    endloop
  endfacet
  facet normal -0.903992 -0.427549 0
    outer loop
      vertex 5.15924 2.75767 15
      vertex 5.40469 2.2387 11.15
      vertex 5.40469 2.2387 15
    endloop
  endfacet
  facet normal -0.336892 -0.941543 0
    outer loop
      vertex 1.69816 5.5981 11.15
      vertex 2.2387 5.40469 15
      vertex 1.69816 5.5981 15
    endloop
  endfacet
  facet normal -0.336892 -0.941543 -0
    outer loop
      vertex 2.2387 5.40469 15
      vertex 1.69816 5.5981 11.15
      vertex 2.2387 5.40469 11.15
    endloop
  endfacet
  facet normal -0.242978 -0.970032 0
    outer loop
      vertex 1.14128 5.73759 11.15
      vertex 1.69816 5.5981 15
      vertex 1.14128 5.73759 15
    endloop
  endfacet
  facet normal -0.242978 -0.970032 -0
    outer loop
      vertex 1.69816 5.5981 15
      vertex 1.14128 5.73759 11.15
      vertex 1.69816 5.5981 11.15
    endloop
  endfacet
  facet normal -0.514096 -0.857733 0
    outer loop
      vertex 2.75767 5.15924 11.15
      vertex 3.25009 4.8641 15
      vertex 2.75767 5.15924 15
    endloop
  endfacet
  facet normal -0.514096 -0.857733 -0
    outer loop
      vertex 3.25009 4.8641 15
      vertex 2.75767 5.15924 11.15
      vertex 3.25009 4.8641 11.15
    endloop
  endfacet
  facet normal 0.903992 -0.427549 0
    outer loop
      vertex -5.40469 2.2387 15
      vertex -5.15924 2.75767 11.15
      vertex -5.15924 2.75767 15
    endloop
  endfacet
  facet normal 0.903992 -0.427549 0
    outer loop
      vertex -5.15924 2.75767 11.15
      vertex -5.40469 2.2387 15
      vertex -5.40469 2.2387 11.15
    endloop
  endfacet
  facet normal 0.146736 -0.989176 0
    outer loop
      vertex -1.14128 5.73759 11.15
      vertex -0.5734 5.82183 15
      vertex -1.14128 5.73759 15
    endloop
  endfacet
  facet normal 0.146736 -0.989176 0
    outer loop
      vertex -0.5734 5.82183 15
      vertex -1.14128 5.73759 11.15
      vertex -0.5734 5.82183 11.15
    endloop
  endfacet
  facet normal -0.970032 0.242978 0
    outer loop
      vertex 5.5981 -1.69816 11.15
      vertex 5.73759 -1.14128 15
      vertex 5.73759 -1.14128 11.15
    endloop
  endfacet
  facet normal -0.970032 0.242978 0
    outer loop
      vertex 5.73759 -1.14128 15
      vertex 5.5981 -1.69816 11.15
      vertex 5.5981 -1.69816 15
    endloop
  endfacet
  facet normal 0 0 1
    outer loop
      vertex 2.25167 0 11.15
      vertex 5.85 0 11.15
      vertex 5.82183 0.5734 11.15
    endloop
  endfacet
  facet normal 0 0 1
    outer loop
      vertex 2.25167 0 11.15
      vertex 5.82183 0.5734 11.15
      vertex 5.73759 1.14128 11.15
    endloop
  endfacet
  facet normal 0 0 1
    outer loop
      vertex 5.85 0 11.15
      vertex 2.25167 0 11.15
      vertex 5.82183 -0.5734 11.15
    endloop
  endfacet
  facet normal 0 0 1
    outer loop
      vertex 2.25167 0 11.15
      vertex 5.73759 1.14128 11.15
      vertex 5.5981 1.69816 11.15
    endloop
  endfacet
  facet normal 0 0 1
    outer loop
      vertex 5.82183 -0.5734 11.15
      vertex 2.25167 0 11.15
      vertex 5.73759 -1.14128 11.15
    endloop
  endfacet
  facet normal 0 0 1
    outer loop
      vertex 2.25167 0 11.15
      vertex 5.5981 1.69816 11.15
      vertex 5.40469 2.2387 11.15
    endloop
  endfacet
  facet normal 0 0 1
    outer loop
      vertex 5.73759 -1.14128 11.15
      vertex 2.25167 0 11.15
      vertex 5.5981 -1.69816 11.15
    endloop
  endfacet
  facet normal 0 0 1
    outer loop
      vertex 2.25167 0 11.15
      vertex 5.40469 2.2387 11.15
      vertex 5.15924 2.75767 11.15
    endloop
  endfacet
  facet normal 0 0 1
    outer loop
      vertex 5.5981 -1.69816 11.15
      vertex 2.25167 0 11.15
      vertex 5.40469 -2.2387 11.15
    endloop
  endfacet
  facet normal 0 0 1
    outer loop
      vertex 1.12583 1.95 11.15
      vertex 5.15924 2.75767 11.15
      vertex 4.8641 3.25009 11.15
    endloop
  endfacet
  facet normal 0 0 1
    outer loop
      vertex 5.40469 -2.2387 11.15
      vertex 2.25167 0 11.15
      vertex 5.15924 -2.75767 11.15
    endloop
  endfacet
  facet normal 0 0 1
    outer loop
      vertex 1.12583 1.95 11.15
      vertex 4.8641 3.25009 11.15
      vertex 4.52211 3.7112 11.15
    endloop
  endfacet
  facet normal -0 0 1
    outer loop
      vertex 1.12583 -1.95 11.15
      vertex 5.15924 -2.75767 11.15
      vertex 2.25167 0 11.15
    endloop
  endfacet
  facet normal 0 0 1
    outer loop
      vertex 1.12583 1.95 11.15
      vertex 4.52211 3.7112 11.15
      vertex 4.13657 4.13657 11.15
    endloop
  endfacet
  facet normal 0 0 1
    outer loop
      vertex 5.15924 -2.75767 11.15
      vertex 1.12583 -1.95 11.15
      vertex 4.8641 -3.25009 11.15
    endloop
  endfacet
  facet normal 0 0 1
    outer loop
      vertex 1.12583 1.95 11.15
      vertex 4.13657 4.13657 11.15
      vertex 3.7112 4.52211 11.15
    endloop
  endfacet
  facet normal 0 0 1
    outer loop
      vertex 4.8641 -3.25009 11.15
      vertex 1.12583 -1.95 11.15
      vertex 4.52211 -3.7112 11.15
    endloop
  endfacet
  facet normal 0 0 1
    outer loop
      vertex 1.12583 1.95 11.15
      vertex 3.7112 4.52211 11.15
      vertex 3.25009 4.8641 11.15
    endloop
  endfacet
  facet normal 0 0 1
    outer loop
      vertex 4.52211 -3.7112 11.15
      vertex 1.12583 -1.95 11.15
      vertex 4.13657 -4.13657 11.15
    endloop
  endfacet
  facet normal 0 0 1
    outer loop
      vertex 1.12583 1.95 11.15
      vertex 3.25009 4.8641 11.15
      vertex 2.75767 5.15924 11.15
    endloop
  endfacet
  facet normal 0 0 1
    outer loop
      vertex 4.13657 -4.13657 11.15
      vertex 1.12583 -1.95 11.15
      vertex 3.7112 -4.52211 11.15
    endloop
  endfacet
  facet normal 0 0 1
    outer loop
      vertex 3.7112 -4.52211 11.15
      vertex 1.12583 -1.95 11.15
      vertex 3.25009 -4.8641 11.15
    endloop
  endfacet
  facet normal 0 0 1
    outer loop
      vertex 1.12583 1.95 11.15
      vertex 2.75767 5.15924 11.15
      vertex 2.2387 5.40469 11.15
    endloop
  endfacet
  facet normal 0 0 1
    outer loop
      vertex 1.12583 1.95 11.15
      vertex 2.2387 5.40469 11.15
      vertex 1.69816 5.5981 11.15
    endloop
  endfacet
  facet normal 0 0 1
    outer loop
      vertex 1.12583 1.95 11.15
      vertex 1.69816 5.5981 11.15
      vertex 1.14128 5.73759 11.15
    endloop
  endfacet
  facet normal 0 0 1
    outer loop
      vertex 5.15924 2.75767 11.15
      vertex 1.12583 1.95 11.15
      vertex 2.25167 0 11.15
    endloop
  endfacet
  facet normal 0 0 1
    outer loop
      vertex 0.5734 5.82183 11.15
      vertex 1.12583 1.95 11.15
      vertex 1.14128 5.73759 11.15
    endloop
  endfacet
  facet normal 0 0 1
    outer loop
      vertex 0 5.85 11.15
      vertex 1.12583 1.95 11.15
      vertex 0.5734 5.82183 11.15
    endloop
  endfacet
  facet normal 0 0 1
    outer loop
      vertex -1.12583 1.95 11.15
      vertex 0 5.85 11.15
      vertex -0.5734 5.82183 11.15
    endloop
  endfacet
  facet normal 0 0 1
    outer loop
      vertex 0 5.85 11.15
      vertex -1.12583 1.95 11.15
      vertex 1.12583 1.95 11.15
    endloop
  endfacet
  facet normal -0 0 1
    outer loop
      vertex -1.14128 5.73759 11.15
      vertex -1.12583 1.95 11.15
      vertex -0.5734 5.82183 11.15
    endloop
  endfacet
  facet normal -0 0 1
    outer loop
      vertex -1.69816 5.5981 11.15
      vertex -1.12583 1.95 11.15
      vertex -1.14128 5.73759 11.15
    endloop
  endfacet
  facet normal -0 0 1
    outer loop
      vertex -2.2387 5.40469 11.15
      vertex -1.12583 1.95 11.15
      vertex -1.69816 5.5981 11.15
    endloop
  endfacet
  facet normal -0 0 1
    outer loop
      vertex -2.75767 5.15924 11.15
      vertex -1.12583 1.95 11.15
      vertex -2.2387 5.40469 11.15
    endloop
  endfacet
  facet normal -0 0 1
    outer loop
      vertex -3.25009 4.8641 11.15
      vertex -1.12583 1.95 11.15
      vertex -2.75767 5.15924 11.15
    endloop
  endfacet
  facet normal 0 0 1
    outer loop
      vertex 3.25009 -4.8641 11.15
      vertex 1.12583 -1.95 11.15
      vertex 2.75767 -5.15924 11.15
    endloop
  endfacet
  facet normal 0 0 1
    outer loop
      vertex 2.75767 -5.15924 11.15
      vertex 1.12583 -1.95 11.15
      vertex 2.2387 -5.40469 11.15
    endloop
  endfacet
  facet normal 0 0 1
    outer loop
      vertex 2.2387 -5.40469 11.15
      vertex 1.12583 -1.95 11.15
      vertex 1.69816 -5.5981 11.15
    endloop
  endfacet
  facet normal 0 0 1
    outer loop
      vertex 1.69816 -5.5981 11.15
      vertex 1.12583 -1.95 11.15
      vertex 1.14128 -5.73759 11.15
    endloop
  endfacet
  facet normal 0 0 1
    outer loop
      vertex 1.12583 -1.95 11.15
      vertex 0.5734 -5.82183 11.15
      vertex 1.14128 -5.73759 11.15
    endloop
  endfacet
  facet normal 0 0 1
    outer loop
      vertex 1.12583 -1.95 11.15
      vertex 0 -5.85 11.15
      vertex 0.5734 -5.82183 11.15
    endloop
  endfacet
  facet normal -0 0 1
    outer loop
      vertex -1.12583 -1.95 11.15
      vertex 0 -5.85 11.15
      vertex 1.12583 -1.95 11.15
    endloop
  endfacet
  facet normal 0 0 1
    outer loop
      vertex 0 -5.85 11.15
      vertex -1.12583 -1.95 11.15
      vertex -0.5734 -5.82183 11.15
    endloop
  endfacet
  facet normal 0 0 1
    outer loop
      vertex -1.12583 -1.95 11.15
      vertex -1.14128 -5.73759 11.15
      vertex -0.5734 -5.82183 11.15
    endloop
  endfacet
  facet normal 0 0 1
    outer loop
      vertex -1.12583 -1.95 11.15
      vertex -1.69816 -5.5981 11.15
      vertex -1.14128 -5.73759 11.15
    endloop
  endfacet
  facet normal 0 0 1
    outer loop
      vertex -1.12583 -1.95 11.15
      vertex -2.2387 -5.40469 11.15
      vertex -1.69816 -5.5981 11.15
    endloop
  endfacet
  facet normal 0 0 1
    outer loop
      vertex -5.15924 -2.75767 11.15
      vertex -1.12583 -1.95 11.15
      vertex -2.25167 0 11.15
    endloop
  endfacet
  facet normal -0 0 1
    outer loop
      vertex -3.7112 4.52211 11.15
      vertex -1.12583 1.95 11.15
      vertex -3.25009 4.8641 11.15
    endloop
  endfacet
  facet normal 0 0 1
    outer loop
      vertex -1.12583 -1.95 11.15
      vertex -2.75767 -5.15924 11.15
      vertex -2.2387 -5.40469 11.15
    endloop
  endfacet
  facet normal -0 0 1
    outer loop
      vertex -4.13657 4.13657 11.15
      vertex -1.12583 1.95 11.15
      vertex -3.7112 4.52211 11.15
    endloop
  endfacet
  facet normal 0 0 1
    outer loop
      vertex -1.12583 -1.95 11.15
      vertex -3.25009 -4.8641 11.15
      vertex -2.75767 -5.15924 11.15
    endloop
  endfacet
  facet normal -0 0 1
    outer loop
      vertex -4.52211 3.7112 11.15
      vertex -1.12583 1.95 11.15
      vertex -4.13657 4.13657 11.15
    endloop
  endfacet
  facet normal 0 0 1
    outer loop
      vertex -1.12583 -1.95 11.15
      vertex -3.7112 -4.52211 11.15
      vertex -3.25009 -4.8641 11.15
    endloop
  endfacet
  facet normal -0 0 1
    outer loop
      vertex -4.8641 3.25009 11.15
      vertex -1.12583 1.95 11.15
      vertex -4.52211 3.7112 11.15
    endloop
  endfacet
  facet normal 0 0 1
    outer loop
      vertex -1.12583 -1.95 11.15
      vertex -4.13657 -4.13657 11.15
      vertex -3.7112 -4.52211 11.15
    endloop
  endfacet
  facet normal -0 0 1
    outer loop
      vertex -5.15924 2.75767 11.15
      vertex -1.12583 1.95 11.15
      vertex -4.8641 3.25009 11.15
    endloop
  endfacet
  facet normal 0 0 1
    outer loop
      vertex -1.12583 -1.95 11.15
      vertex -4.52211 -3.7112 11.15
      vertex -4.13657 -4.13657 11.15
    endloop
  endfacet
  facet normal 0 0 1
    outer loop
      vertex -1.12583 1.95 11.15
      vertex -5.15924 2.75767 11.15
      vertex -2.25167 0 11.15
    endloop
  endfacet
  facet normal 0 0 1
    outer loop
      vertex -1.12583 -1.95 11.15
      vertex -4.8641 -3.25009 11.15
      vertex -4.52211 -3.7112 11.15
    endloop
  endfacet
  facet normal -0 0 1
    outer loop
      vertex -5.40469 2.2387 11.15
      vertex -2.25167 0 11.15
      vertex -5.15924 2.75767 11.15
    endloop
  endfacet
  facet normal 0 0 1
    outer loop
      vertex -1.12583 -1.95 11.15
      vertex -5.15924 -2.75767 11.15
      vertex -4.8641 -3.25009 11.15
    endloop
  endfacet
  facet normal -0 0 1
    outer loop
      vertex -5.5981 1.69816 11.15
      vertex -2.25167 0 11.15
      vertex -5.40469 2.2387 11.15
    endloop
  endfacet
  facet normal 0 0 1
    outer loop
      vertex -2.25167 0 11.15
      vertex -5.40469 -2.2387 11.15
      vertex -5.15924 -2.75767 11.15
    endloop
  endfacet
  facet normal -0 0 1
    outer loop
      vertex -5.73759 1.14128 11.15
      vertex -2.25167 0 11.15
      vertex -5.5981 1.69816 11.15
    endloop
  endfacet
  facet normal 0 0 1
    outer loop
      vertex -2.25167 0 11.15
      vertex -5.5981 -1.69816 11.15
      vertex -5.40469 -2.2387 11.15
    endloop
  endfacet
  facet normal -0 0 1
    outer loop
      vertex -5.82183 0.5734 11.15
      vertex -2.25167 0 11.15
      vertex -5.73759 1.14128 11.15
    endloop
  endfacet
  facet normal 0 0 1
    outer loop
      vertex -2.25167 0 11.15
      vertex -5.73759 -1.14128 11.15
      vertex -5.5981 -1.69816 11.15
    endloop
  endfacet
  facet normal 0 0 1
    outer loop
      vertex -5.85 0 11.15
      vertex -2.25167 0 11.15
      vertex -5.82183 0.5734 11.15
    endloop
  endfacet
  facet normal 0 0 1
    outer loop
      vertex -2.25167 0 11.15
      vertex -5.82183 -0.5734 11.15
      vertex -5.73759 -1.14128 11.15
    endloop
  endfacet
  facet normal 0 0 1
    outer loop
      vertex -2.25167 0 11.15
      vertex -5.85 0 11.15
      vertex -5.82183 -0.5734 11.15
    endloop
  endfacet
  facet normal -0.970032 -0.242978 0
    outer loop
      vertex 5.73759 1.14128 11.15
      vertex 5.5981 1.69816 15
      vertex 5.5981 1.69816 11.15
    endloop
  endfacet
  facet normal -0.970032 -0.242978 0
    outer loop
      vertex 5.5981 1.69816 15
      vertex 5.73759 1.14128 11.15
      vertex 5.73759 1.14128 15
    endloop
  endfacet
  facet normal -0.989176 -0.146736 0
    outer loop
      vertex 5.82183 0.5734 11.15
      vertex 5.73759 1.14128 15
      vertex 5.73759 1.14128 11.15
    endloop
  endfacet
  facet normal -0.989176 -0.146736 0
    outer loop
      vertex 5.73759 1.14128 15
      vertex 5.82183 0.5734 11.15
      vertex 5.82183 0.5734 15
    endloop
  endfacet
  facet normal -0.941543 -0.336892 0
    outer loop
      vertex 5.5981 1.69816 11.15
      vertex 5.40469 2.2387 15
      vertex 5.40469 2.2387 11.15
    endloop
  endfacet
  facet normal -0.941543 -0.336892 0
    outer loop
      vertex 5.40469 2.2387 15
      vertex 5.5981 1.69816 11.15
      vertex 5.5981 1.69816 15
    endloop
  endfacet
  facet normal -0.803201 -0.595708 0
    outer loop
      vertex 4.8641 3.25009 11.15
      vertex 4.52211 3.7112 15
      vertex 4.52211 3.7112 11.15
    endloop
  endfacet
  facet normal -0.803201 -0.595708 0
    outer loop
      vertex 4.52211 3.7112 15
      vertex 4.8641 3.25009 11.15
      vertex 4.8641 3.25009 15
    endloop
  endfacet
  facet normal -0.740945 -0.671566 0
    outer loop
      vertex 4.52211 3.7112 11.15
      vertex 4.13657 4.13657 15
      vertex 4.13657 4.13657 11.15
    endloop
  endfacet
  facet normal -0.740945 -0.671566 0
    outer loop
      vertex 4.13657 4.13657 15
      vertex 4.52211 3.7112 11.15
      vertex 4.52211 3.7112 15
    endloop
  endfacet
  facet normal -0.857733 -0.514096 0
    outer loop
      vertex 5.15924 2.75767 11.15
      vertex 4.8641 3.25009 15
      vertex 4.8641 3.25009 11.15
    endloop
  endfacet
  facet normal -0.857733 -0.514096 0
    outer loop
      vertex 4.8641 3.25009 15
      vertex 5.15924 2.75767 11.15
      vertex 5.15924 2.75767 15
    endloop
  endfacet
  facet normal -0.146736 -0.989176 0
    outer loop
      vertex 0.5734 5.82183 11.15
      vertex 1.14128 5.73759 15
      vertex 0.5734 5.82183 15
    endloop
  endfacet
  facet normal -0.146736 -0.989176 -0
    outer loop
      vertex 1.14128 5.73759 15
      vertex 0.5734 5.82183 11.15
      vertex 1.14128 5.73759 11.15
    endloop
  endfacet
  facet normal -0.427549 -0.903992 0
    outer loop
      vertex 2.2387 5.40469 11.15
      vertex 2.75767 5.15924 15
      vertex 2.2387 5.40469 15
    endloop
  endfacet
  facet normal -0.427549 -0.903992 -0
    outer loop
      vertex 2.75767 5.15924 15
      vertex 2.2387 5.40469 11.15
      vertex 2.75767 5.15924 11.15
    endloop
  endfacet
  facet normal -0.595708 -0.803201 0
    outer loop
      vertex 3.25009 4.8641 11.15
      vertex 3.7112 4.52211 15
      vertex 3.25009 4.8641 15
    endloop
  endfacet
  facet normal -0.595708 -0.803201 -0
    outer loop
      vertex 3.7112 4.52211 15
      vertex 3.25009 4.8641 11.15
      vertex 3.7112 4.52211 11.15
    endloop
  endfacet
  facet normal 0.970032 -0.242978 0
    outer loop
      vertex -5.73759 1.14128 15
      vertex -5.5981 1.69816 11.15
      vertex -5.5981 1.69816 15
    endloop
  endfacet
  facet normal 0.970032 -0.242978 0
    outer loop
      vertex -5.5981 1.69816 11.15
      vertex -5.73759 1.14128 15
      vertex -5.73759 1.14128 11.15
    endloop
  endfacet
  facet normal 0.803201 -0.595708 0
    outer loop
      vertex -4.8641 3.25009 15
      vertex -4.52211 3.7112 11.15
      vertex -4.52211 3.7112 15
    endloop
  endfacet
  facet normal 0.803201 -0.595708 0
    outer loop
      vertex -4.52211 3.7112 11.15
      vertex -4.8641 3.25009 15
      vertex -4.8641 3.25009 11.15
    endloop
  endfacet
  facet normal 0.740945 -0.671566 0
    outer loop
      vertex -4.52211 3.7112 15
      vertex -4.13657 4.13657 11.15
      vertex -4.13657 4.13657 15
    endloop
  endfacet
  facet normal 0.740945 -0.671566 0
    outer loop
      vertex -4.13657 4.13657 11.15
      vertex -4.52211 3.7112 15
      vertex -4.52211 3.7112 11.15
    endloop
  endfacet
  facet normal 0.857733 -0.514096 0
    outer loop
      vertex -5.15924 2.75767 15
      vertex -4.8641 3.25009 11.15
      vertex -4.8641 3.25009 15
    endloop
  endfacet
  facet normal 0.857733 -0.514096 0
    outer loop
      vertex -4.8641 3.25009 11.15
      vertex -5.15924 2.75767 15
      vertex -5.15924 2.75767 11.15
    endloop
  endfacet
  facet normal 0.941543 -0.336892 0
    outer loop
      vertex -5.5981 1.69816 15
      vertex -5.40469 2.2387 11.15
      vertex -5.40469 2.2387 15
    endloop
  endfacet
  facet normal 0.941543 -0.336892 0
    outer loop
      vertex -5.40469 2.2387 11.15
      vertex -5.5981 1.69816 15
      vertex -5.5981 1.69816 11.15
    endloop
  endfacet
  facet normal 0.989176 -0.146736 0
    outer loop
      vertex -5.82183 0.5734 15
      vertex -5.73759 1.14128 11.15
      vertex -5.73759 1.14128 15
    endloop
  endfacet
  facet normal 0.989176 -0.146736 0
    outer loop
      vertex -5.73759 1.14128 11.15
      vertex -5.82183 0.5734 15
      vertex -5.82183 0.5734 11.15
    endloop
  endfacet
  facet normal 0.514096 -0.857733 0
    outer loop
      vertex -3.25009 4.8641 11.15
      vertex -2.75767 5.15924 15
      vertex -3.25009 4.8641 15
    endloop
  endfacet
  facet normal 0.514096 -0.857733 0
    outer loop
      vertex -2.75767 5.15924 15
      vertex -3.25009 4.8641 11.15
      vertex -2.75767 5.15924 11.15
    endloop
  endfacet
  facet normal 0.427549 -0.903992 0
    outer loop
      vertex -2.75767 5.15924 11.15
      vertex -2.2387 5.40469 15
      vertex -2.75767 5.15924 15
    endloop
  endfacet
  facet normal 0.427549 -0.903992 0
    outer loop
      vertex -2.2387 5.40469 15
      vertex -2.75767 5.15924 11.15
      vertex -2.2387 5.40469 11.15
    endloop
  endfacet
  facet normal 0.595708 -0.803201 0
    outer loop
      vertex -3.7112 4.52211 11.15
      vertex -3.25009 4.8641 15
      vertex -3.7112 4.52211 15
    endloop
  endfacet
  facet normal 0.595708 -0.803201 0
    outer loop
      vertex -3.25009 4.8641 15
      vertex -3.7112 4.52211 11.15
      vertex -3.25009 4.8641 11.15
    endloop
  endfacet
  facet normal 0.242978 -0.970032 0
    outer loop
      vertex -1.69816 5.5981 11.15
      vertex -1.14128 5.73759 15
      vertex -1.69816 5.5981 15
    endloop
  endfacet
  facet normal 0.242978 -0.970032 0
    outer loop
      vertex -1.14128 5.73759 15
      vertex -1.69816 5.5981 11.15
      vertex -1.14128 5.73759 11.15
    endloop
  endfacet
  facet normal 0.0490688 -0.998795 0
    outer loop
      vertex -0.5734 5.82183 11.15
      vertex 0 5.85 15
      vertex -0.5734 5.82183 15
    endloop
  endfacet
  facet normal 0.0490688 -0.998795 0
    outer loop
      vertex 0 5.85 15
      vertex -0.5734 5.82183 11.15
      vertex 0 5.85 11.15
    endloop
  endfacet
  facet normal -0.998795 0.0490688 0
    outer loop
      vertex 5.82183 -0.5734 11.15
      vertex 5.85 0 15
      vertex 5.85 0 11.15
    endloop
  endfacet
  facet normal -0.998795 0.0490688 0
    outer loop
      vertex 5.85 0 15
      vertex 5.82183 -0.5734 11.15
      vertex 5.82183 -0.5734 15
    endloop
  endfacet
  facet normal -0.0490688 0.998795 0
    outer loop
      vertex 0.5734 -5.82183 11.15
      vertex 0 -5.85 15
      vertex 0.5734 -5.82183 15
    endloop
  endfacet
  facet normal -0.0490688 0.998795 0
    outer loop
      vertex 0 -5.85 15
      vertex 0.5734 -5.82183 11.15
      vertex 0 -5.85 11.15
    endloop
  endfacet
  facet normal -0.242978 0.970032 0
    outer loop
      vertex 1.69816 -5.5981 11.15
      vertex 1.14128 -5.73759 15
      vertex 1.69816 -5.5981 15
    endloop
  endfacet
  facet normal -0.242978 0.970032 0
    outer loop
      vertex 1.14128 -5.73759 15
      vertex 1.69816 -5.5981 11.15
      vertex 1.14128 -5.73759 11.15
    endloop
  endfacet
  facet normal -0.595708 0.803201 0
    outer loop
      vertex 3.7112 -4.52211 11.15
      vertex 3.25009 -4.8641 15
      vertex 3.7112 -4.52211 15
    endloop
  endfacet
  facet normal -0.595708 0.803201 0
    outer loop
      vertex 3.25009 -4.8641 15
      vertex 3.7112 -4.52211 11.15
      vertex 3.25009 -4.8641 11.15
    endloop
  endfacet
  facet normal -0.740945 0.671566 0
    outer loop
      vertex 4.13657 -4.13657 11.15
      vertex 4.52211 -3.7112 15
      vertex 4.52211 -3.7112 11.15
    endloop
  endfacet
  facet normal -0.740945 0.671566 0
    outer loop
      vertex 4.52211 -3.7112 15
      vertex 4.13657 -4.13657 11.15
      vertex 4.13657 -4.13657 15
    endloop
  endfacet
  facet normal -0.427549 0.903992 0
    outer loop
      vertex 2.75767 -5.15924 11.15
      vertex 2.2387 -5.40469 15
      vertex 2.75767 -5.15924 15
    endloop
  endfacet
  facet normal -0.427549 0.903992 0
    outer loop
      vertex 2.2387 -5.40469 15
      vertex 2.75767 -5.15924 11.15
      vertex 2.2387 -5.40469 11.15
    endloop
  endfacet
  facet normal -0.803201 0.595708 0
    outer loop
      vertex 4.52211 -3.7112 11.15
      vertex 4.8641 -3.25009 15
      vertex 4.8641 -3.25009 11.15
    endloop
  endfacet
  facet normal -0.803201 0.595708 0
    outer loop
      vertex 4.8641 -3.25009 15
      vertex 4.52211 -3.7112 11.15
      vertex 4.52211 -3.7112 15
    endloop
  endfacet
  facet normal -0.903992 0.427549 0
    outer loop
      vertex 5.15924 -2.75767 11.15
      vertex 5.40469 -2.2387 15
      vertex 5.40469 -2.2387 11.15
    endloop
  endfacet
  facet normal -0.903992 0.427549 0
    outer loop
      vertex 5.40469 -2.2387 15
      vertex 5.15924 -2.75767 11.15
      vertex 5.15924 -2.75767 15
    endloop
  endfacet
  facet normal 0.671566 0.740945 -0
    outer loop
      vertex -3.7112 -4.52211 11.15
      vertex -4.13657 -4.13657 15
      vertex -3.7112 -4.52211 15
    endloop
  endfacet
  facet normal 0.671566 0.740945 0
    outer loop
      vertex -4.13657 -4.13657 15
      vertex -3.7112 -4.52211 11.15
      vertex -4.13657 -4.13657 11.15
    endloop
  endfacet
  facet normal 0.514096 0.857733 -0
    outer loop
      vertex -2.75767 -5.15924 11.15
      vertex -3.25009 -4.8641 15
      vertex -2.75767 -5.15924 15
    endloop
  endfacet
  facet normal 0.514096 0.857733 0
    outer loop
      vertex -3.25009 -4.8641 15
      vertex -2.75767 -5.15924 11.15
      vertex -3.25009 -4.8641 11.15
    endloop
  endfacet
  facet normal 0.336892 0.941543 -0
    outer loop
      vertex -1.69816 -5.5981 11.15
      vertex -2.2387 -5.40469 15
      vertex -1.69816 -5.5981 15
    endloop
  endfacet
  facet normal 0.336892 0.941543 0
    outer loop
      vertex -2.2387 -5.40469 15
      vertex -1.69816 -5.5981 11.15
      vertex -2.2387 -5.40469 11.15
    endloop
  endfacet
  facet normal 0.146736 0.989176 -0
    outer loop
      vertex -0.5734 -5.82183 11.15
      vertex -1.14128 -5.73759 15
      vertex -0.5734 -5.82183 15
    endloop
  endfacet
  facet normal 0.146736 0.989176 0
    outer loop
      vertex -1.14128 -5.73759 15
      vertex -0.5734 -5.82183 11.15
      vertex -1.14128 -5.73759 11.15
    endloop
  endfacet
  facet normal 0.803201 0.595708 0
    outer loop
      vertex -4.52211 -3.7112 15
      vertex -4.8641 -3.25009 11.15
      vertex -4.8641 -3.25009 15
    endloop
  endfacet
  facet normal 0.803201 0.595708 0
    outer loop
      vertex -4.8641 -3.25009 11.15
      vertex -4.52211 -3.7112 15
      vertex -4.52211 -3.7112 11.15
    endloop
  endfacet
  facet normal 0.903992 0.427549 0
    outer loop
      vertex -5.15924 -2.75767 15
      vertex -5.40469 -2.2387 11.15
      vertex -5.40469 -2.2387 15
    endloop
  endfacet
  facet normal 0.903992 0.427549 0
    outer loop
      vertex -5.40469 -2.2387 11.15
      vertex -5.15924 -2.75767 15
      vertex -5.15924 -2.75767 11.15
    endloop
  endfacet
  facet normal 0.857733 0.514096 0
    outer loop
      vertex -4.8641 -3.25009 15
      vertex -5.15924 -2.75767 11.15
      vertex -5.15924 -2.75767 15
    endloop
  endfacet
  facet normal 0.857733 0.514096 0
    outer loop
      vertex -5.15924 -2.75767 11.15
      vertex -4.8641 -3.25009 15
      vertex -4.8641 -3.25009 11.15
    endloop
  endfacet
  facet normal 0.970032 0.242978 0
    outer loop
      vertex -5.5981 -1.69816 15
      vertex -5.73759 -1.14128 11.15
      vertex -5.73759 -1.14128 15
    endloop
  endfacet
  facet normal 0.970032 0.242978 0
    outer loop
      vertex -5.73759 -1.14128 11.15
      vertex -5.5981 -1.69816 15
      vertex -5.5981 -1.69816 11.15
    endloop
  endfacet
  facet normal 0.941543 0.336892 0
    outer loop
      vertex -5.40469 -2.2387 15
      vertex -5.5981 -1.69816 11.15
      vertex -5.5981 -1.69816 15
    endloop
  endfacet
  facet normal 0.941543 0.336892 0
    outer loop
      vertex -5.5981 -1.69816 11.15
      vertex -5.40469 -2.2387 15
      vertex -5.40469 -2.2387 11.15
    endloop
  endfacet
  facet normal 0.998795 0.0490688 0
    outer loop
      vertex -5.82183 -0.5734 15
      vertex -5.85 0 11.15
      vertex -5.85 0 15
    endloop
  endfacet
  facet normal 0.998795 0.0490688 0
    outer loop
      vertex -5.85 0 11.15
      vertex -5.82183 -0.5734 15
      vertex -5.82183 -0.5734 11.15
    endloop
  endfacet
  facet normal -0.146736 0.989176 0
    outer loop
      vertex 1.14128 -5.73759 11.15
      vertex 0.5734 -5.82183 15
      vertex 1.14128 -5.73759 15
    endloop
  endfacet
  facet normal -0.146736 0.989176 0
    outer loop
      vertex 0.5734 -5.82183 15
      vertex 1.14128 -5.73759 11.15
      vertex 0.5734 -5.82183 11.15
    endloop
  endfacet
  facet normal -0.336892 0.941543 0
    outer loop
      vertex 2.2387 -5.40469 11.15
      vertex 1.69816 -5.5981 15
      vertex 2.2387 -5.40469 15
    endloop
  endfacet
  facet normal -0.336892 0.941543 0
    outer loop
      vertex 1.69816 -5.5981 15
      vertex 2.2387 -5.40469 11.15
      vertex 1.69816 -5.5981 11.15
    endloop
  endfacet
  facet normal -0.671566 0.740945 0
    outer loop
      vertex 4.13657 -4.13657 11.15
      vertex 3.7112 -4.52211 15
      vertex 4.13657 -4.13657 15
    endloop
  endfacet
  facet normal -0.671566 0.740945 0
    outer loop
      vertex 3.7112 -4.52211 15
      vertex 4.13657 -4.13657 11.15
      vertex 3.7112 -4.52211 11.15
    endloop
  endfacet
  facet normal -0.514096 0.857733 0
    outer loop
      vertex 3.25009 -4.8641 11.15
      vertex 2.75767 -5.15924 15
      vertex 3.25009 -4.8641 15
    endloop
  endfacet
  facet normal -0.514096 0.857733 0
    outer loop
      vertex 2.75767 -5.15924 15
      vertex 3.25009 -4.8641 11.15
      vertex 2.75767 -5.15924 11.15
    endloop
  endfacet
  facet normal -0.857733 0.514096 0
    outer loop
      vertex 4.8641 -3.25009 11.15
      vertex 5.15924 -2.75767 15
      vertex 5.15924 -2.75767 11.15
    endloop
  endfacet
  facet normal -0.857733 0.514096 0
    outer loop
      vertex 5.15924 -2.75767 15
      vertex 4.8641 -3.25009 11.15
      vertex 4.8641 -3.25009 15
    endloop
  endfacet
  facet normal -0.941543 0.336892 0
    outer loop
      vertex 5.40469 -2.2387 11.15
      vertex 5.5981 -1.69816 15
      vertex 5.5981 -1.69816 11.15
    endloop
  endfacet
  facet normal -0.941543 0.336892 0
    outer loop
      vertex 5.5981 -1.69816 15
      vertex 5.40469 -2.2387 11.15
      vertex 5.40469 -2.2387 15
    endloop
  endfacet
  facet normal -0.989176 0.146736 0
    outer loop
      vertex 5.73759 -1.14128 11.15
      vertex 5.82183 -0.5734 15
      vertex 5.82183 -0.5734 11.15
    endloop
  endfacet
  facet normal -0.989176 0.146736 0
    outer loop
      vertex 5.82183 -0.5734 15
      vertex 5.73759 -1.14128 11.15
      vertex 5.73759 -1.14128 15
    endloop
  endfacet
  facet normal 0.595708 0.803201 -0
    outer loop
      vertex -3.25009 -4.8641 11.15
      vertex -3.7112 -4.52211 15
      vertex -3.25009 -4.8641 15
    endloop
  endfacet
  facet normal 0.595708 0.803201 0
    outer loop
      vertex -3.7112 -4.52211 15
      vertex -3.25009 -4.8641 11.15
      vertex -3.7112 -4.52211 11.15
    endloop
  endfacet
  facet normal 0.427549 0.903992 -0
    outer loop
      vertex -2.2387 -5.40469 11.15
      vertex -2.75767 -5.15924 15
      vertex -2.2387 -5.40469 15
    endloop
  endfacet
  facet normal 0.427549 0.903992 0
    outer loop
      vertex -2.75767 -5.15924 15
      vertex -2.2387 -5.40469 11.15
      vertex -2.75767 -5.15924 11.15
    endloop
  endfacet
  facet normal 0.242978 0.970032 -0
    outer loop
      vertex -1.14128 -5.73759 11.15
      vertex -1.69816 -5.5981 15
      vertex -1.14128 -5.73759 15
    endloop
  endfacet
  facet normal 0.242978 0.970032 0
    outer loop
      vertex -1.69816 -5.5981 15
      vertex -1.14128 -5.73759 11.15
      vertex -1.69816 -5.5981 11.15
    endloop
  endfacet
  facet normal 0.0490688 0.998795 -0
    outer loop
      vertex 0 -5.85 11.15
      vertex -0.5734 -5.82183 15
      vertex 0 -5.85 15
    endloop
  endfacet
  facet normal 0.0490688 0.998795 0
    outer loop
      vertex -0.5734 -5.82183 15
      vertex 0 -5.85 11.15
      vertex -0.5734 -5.82183 11.15
    endloop
  endfacet
  facet normal 0.740945 0.671566 0
    outer loop
      vertex -4.13657 -4.13657 15
      vertex -4.52211 -3.7112 11.15
      vertex -4.52211 -3.7112 15
    endloop
  endfacet
  facet normal 0.740945 0.671566 0
    outer loop
      vertex -4.52211 -3.7112 11.15
      vertex -4.13657 -4.13657 15
      vertex -4.13657 -4.13657 11.15
    endloop
  endfacet
  facet normal 0.989176 0.146736 0
    outer loop
      vertex -5.73759 -1.14128 15
      vertex -5.82183 -0.5734 11.15
      vertex -5.82183 -0.5734 15
    endloop
  endfacet
  facet normal 0.989176 0.146736 0
    outer loop
      vertex -5.82183 -0.5734 11.15
      vertex -5.73759 -1.14128 15
      vertex -5.73759 -1.14128 11.15
    endloop
  endfacet
  facet normal 0.866024 0.500002 0
    outer loop
      vertex 2.25167 0 14.15
      vertex 1.12583 1.95 11.15
      vertex 1.12583 1.95 14.15
    endloop
  endfacet
  facet normal 0.866024 0.500002 0
    outer loop
      vertex 1.12583 1.95 11.15
      vertex 2.25167 0 14.15
      vertex 2.25167 0 11.15
    endloop
  endfacet
  facet normal -0.866024 0.500002 0
    outer loop
      vertex -2.25167 0 11.15
      vertex -1.12583 1.95 14.15
      vertex -1.12583 1.95 11.15
    endloop
  endfacet
  facet normal -0.866024 0.500002 0
    outer loop
      vertex -1.12583 1.95 14.15
      vertex -2.25167 0 11.15
      vertex -2.25167 0 14.15
    endloop
  endfacet
  facet normal 0 1 -0
    outer loop
      vertex 1.12583 1.95 11.15
      vertex -1.12583 1.95 14.15
      vertex 1.12583 1.95 14.15
    endloop
  endfacet
  facet normal 0 1 0
    outer loop
      vertex -1.12583 1.95 14.15
      vertex 1.12583 1.95 11.15
      vertex -1.12583 1.95 11.15
    endloop
  endfacet
  facet normal 0 0 1
    outer loop
      vertex 1.12583 1.95 14.15
      vertex 1.12583 -1.95 14.15
      vertex 2.25167 0 14.15
    endloop
  endfacet
  facet normal -0 0 1
    outer loop
      vertex -1.12583 1.95 14.15
      vertex 1.12583 -1.95 14.15
      vertex 1.12583 1.95 14.15
    endloop
  endfacet
  facet normal 0 0 1
    outer loop
      vertex -1.12583 1.95 14.15
      vertex -1.12583 -1.95 14.15
      vertex 1.12583 -1.95 14.15
    endloop
  endfacet
  facet normal 0 -0 1
    outer loop
      vertex -1.12583 -1.95 14.15
      vertex -1.12583 1.95 14.15
      vertex -2.25167 0 14.15
    endloop
  endfacet
  facet normal 0.866024 -0.500002 0
    outer loop
      vertex 1.12583 -1.95 14.15
      vertex 2.25167 0 11.15
      vertex 2.25167 0 14.15
    endloop
  endfacet
  facet normal 0.866024 -0.500002 0
    outer loop
      vertex 2.25167 0 11.15
      vertex 1.12583 -1.95 14.15
      vertex 1.12583 -1.95 11.15
    endloop
  endfacet
  facet normal 0 -1 0
    outer loop
      vertex -1.12583 -1.95 11.15
      vertex 1.12583 -1.95 14.15
      vertex -1.12583 -1.95 14.15
    endloop
  endfacet
  facet normal 0 -1 -0
    outer loop
      vertex 1.12583 -1.95 14.15
      vertex -1.12583 -1.95 11.15
      vertex 1.12583 -1.95 11.15
    endloop
  endfacet
  facet normal -0.866024 -0.500002 0
    outer loop
      vertex -1.12583 -1.95 11.15
      vertex -2.25167 0 14.15
      vertex -2.25167 0 11.15
    endloop
  endfacet
  facet normal -0.866024 -0.500002 0
    outer loop
      vertex -2.25167 0 14.15
      vertex -1.12583 -1.95 11.15
      vertex -1.12583 -1.95 14.15
    endloop
  endfacet
endsolid OpenSCAD_Model
