M48
;GenerationSoftware,Autodesk,EAGLE,9.3.0*%
;CreationDate,2024-05-27T21:25:43Z*%
FMAT,2
ICI,OFF
METRIC,TZ,000.000
T5C0.813
T4C1.300
T3C1.700
T2C2.007
T1C5.000
%
G90
M71
T1
X3572Y3826
X72360Y3937
X3572Y85826
X72360Y85937
T2
X41000Y84000
X33000Y84000
T3
X11535Y72200
X20535Y72200
X11535Y15050
X20535Y15050
X53445Y53150
X62445Y53150
X33125Y72200
X42125Y72200
X33125Y15050
X42125Y15050
X53445Y34100
X33125Y53150
X53445Y72200
X62445Y72200
X62445Y15050
X53445Y15050
X11535Y34100
X20535Y34100
X11535Y53150
X20535Y53150
X62445Y34100
X42125Y53150
X33125Y34100
X42125Y34100
T4
X40125Y78200
X35125Y78200
X35125Y65700
X40125Y65700
X60445Y78200
X55445Y78200
X55445Y65700
X60445Y65700
X18535Y59150
X13535Y59150
X13535Y46650
X18535Y46650
X60445Y59150
X55445Y59150
X55445Y46650
X60445Y46650
X18535Y40100
X13535Y40100
X13535Y27600
X18535Y27600
X40125Y21050
X35125Y21050
X40125Y8550
X18535Y21050
X13535Y21050
X13535Y8550
X18535Y8550
X40125Y59150
X35125Y59150
X35125Y46650
X40125Y46650
X35125Y8550
X60445Y40100
X55445Y40100
X55445Y27600
X60445Y27600
X60445Y21050
X55445Y21050
X55445Y8550
X60445Y8550
X18535Y78200
X13535Y78200
X40125Y40100
X35125Y40100
X35125Y27600
X40125Y27600
X13535Y65700
X18535Y65700
T5
X32545Y23940
X42705Y23940
X52865Y4890
X63025Y4890
X10955Y62040
X21115Y62040
X52865Y23940
X63025Y23940
X32545Y4890
X42705Y4890
X26195Y23940
X26195Y34100
X10955Y23940
X26145Y83740
X47785Y62040
X47785Y72200
X32545Y62040
X42705Y62040
X68105Y62040
X68105Y72200
X52865Y62040
X63025Y62040
X26195Y42990
X26195Y53150
X10955Y42990
X21115Y42990
X68105Y42990
X68105Y53150
X21115Y23940
X26145Y78660
X26195Y62040
X26195Y72200
X52865Y42990
X63025Y42990
X47785Y42990
X47785Y53150
X32545Y42990
X42705Y42990
X26195Y4890
X26195Y15050
X10955Y4890
X21115Y4890
X69000Y23920
X69000Y34080
M30