G04 EAGLE Gerber RS-274X export*
G75*
%MOMM*%
%FSLAX34Y34*%
%LPD*%
%IN*%
%IPPOS*%
%AMOC8*
5,1,8,0,0,1.08239X$1,22.5*%
G01*
%ADD10C,0.254000*%


D10*
X0Y0D02*
X760000Y0D01*
X760000Y900000D01*
X0Y900000D01*
X0Y0D01*
X60720Y37559D02*
X60641Y36158D01*
X60484Y34764D01*
X60249Y33381D01*
X59937Y32013D01*
X59549Y30665D01*
X59085Y29341D01*
X58549Y28045D01*
X57940Y26781D01*
X57261Y25553D01*
X56515Y24365D01*
X55703Y23221D01*
X54828Y22124D01*
X53894Y21078D01*
X52902Y20086D01*
X51856Y19152D01*
X50759Y18277D01*
X49615Y17465D01*
X48427Y16719D01*
X47199Y16040D01*
X45935Y15431D01*
X44639Y14895D01*
X43315Y14431D01*
X41967Y14043D01*
X40599Y13731D01*
X39216Y13496D01*
X37822Y13339D01*
X36421Y13260D01*
X35019Y13260D01*
X33618Y13339D01*
X32224Y13496D01*
X30841Y13731D01*
X29473Y14043D01*
X28125Y14431D01*
X26801Y14895D01*
X25505Y15431D01*
X24241Y16040D01*
X23013Y16719D01*
X21825Y17465D01*
X20681Y18277D01*
X19584Y19152D01*
X18538Y20086D01*
X17546Y21078D01*
X16612Y22124D01*
X15737Y23221D01*
X14925Y24365D01*
X14179Y25553D01*
X13500Y26781D01*
X12891Y28045D01*
X12355Y29341D01*
X11891Y30665D01*
X11503Y32013D01*
X11191Y33381D01*
X10956Y34764D01*
X10799Y36158D01*
X10720Y37559D01*
X10720Y38961D01*
X10799Y40362D01*
X10956Y41756D01*
X11191Y43139D01*
X11503Y44507D01*
X11891Y45855D01*
X12355Y47179D01*
X12891Y48475D01*
X13500Y49739D01*
X14179Y50967D01*
X14925Y52155D01*
X15737Y53299D01*
X16612Y54396D01*
X17546Y55442D01*
X18538Y56434D01*
X19584Y57368D01*
X20681Y58243D01*
X21825Y59055D01*
X23013Y59801D01*
X24241Y60480D01*
X25505Y61089D01*
X26801Y61625D01*
X28125Y62089D01*
X29473Y62477D01*
X30841Y62789D01*
X32224Y63024D01*
X33618Y63181D01*
X35019Y63260D01*
X36421Y63260D01*
X37822Y63181D01*
X39216Y63024D01*
X40599Y62789D01*
X41967Y62477D01*
X43315Y62089D01*
X44639Y61625D01*
X45935Y61089D01*
X47199Y60480D01*
X48427Y59801D01*
X49615Y59055D01*
X50759Y58243D01*
X51856Y57368D01*
X52902Y56434D01*
X53894Y55442D01*
X54828Y54396D01*
X55703Y53299D01*
X56515Y52155D01*
X57261Y50967D01*
X57940Y49739D01*
X58549Y48475D01*
X59085Y47179D01*
X59549Y45855D01*
X59937Y44507D01*
X60249Y43139D01*
X60484Y41756D01*
X60641Y40362D01*
X60720Y38961D01*
X60720Y37559D01*
X748600Y38669D02*
X748521Y37268D01*
X748364Y35874D01*
X748129Y34491D01*
X747817Y33123D01*
X747429Y31775D01*
X746965Y30451D01*
X746429Y29155D01*
X745820Y27891D01*
X745141Y26663D01*
X744395Y25475D01*
X743583Y24331D01*
X742708Y23234D01*
X741774Y22188D01*
X740782Y21196D01*
X739736Y20262D01*
X738639Y19387D01*
X737495Y18575D01*
X736307Y17829D01*
X735079Y17150D01*
X733815Y16541D01*
X732519Y16005D01*
X731195Y15541D01*
X729847Y15153D01*
X728479Y14841D01*
X727096Y14606D01*
X725702Y14449D01*
X724301Y14370D01*
X722899Y14370D01*
X721498Y14449D01*
X720104Y14606D01*
X718721Y14841D01*
X717353Y15153D01*
X716005Y15541D01*
X714681Y16005D01*
X713385Y16541D01*
X712121Y17150D01*
X710893Y17829D01*
X709705Y18575D01*
X708561Y19387D01*
X707464Y20262D01*
X706418Y21196D01*
X705426Y22188D01*
X704492Y23234D01*
X703617Y24331D01*
X702805Y25475D01*
X702059Y26663D01*
X701380Y27891D01*
X700771Y29155D01*
X700235Y30451D01*
X699771Y31775D01*
X699383Y33123D01*
X699071Y34491D01*
X698836Y35874D01*
X698679Y37268D01*
X698600Y38669D01*
X698600Y40071D01*
X698679Y41472D01*
X698836Y42866D01*
X699071Y44249D01*
X699383Y45617D01*
X699771Y46965D01*
X700235Y48289D01*
X700771Y49585D01*
X701380Y50849D01*
X702059Y52077D01*
X702805Y53265D01*
X703617Y54409D01*
X704492Y55506D01*
X705426Y56552D01*
X706418Y57544D01*
X707464Y58478D01*
X708561Y59353D01*
X709705Y60165D01*
X710893Y60911D01*
X712121Y61590D01*
X713385Y62199D01*
X714681Y62735D01*
X716005Y63199D01*
X717353Y63587D01*
X718721Y63899D01*
X720104Y64134D01*
X721498Y64291D01*
X722899Y64370D01*
X724301Y64370D01*
X725702Y64291D01*
X727096Y64134D01*
X728479Y63899D01*
X729847Y63587D01*
X731195Y63199D01*
X732519Y62735D01*
X733815Y62199D01*
X735079Y61590D01*
X736307Y60911D01*
X737495Y60165D01*
X738639Y59353D01*
X739736Y58478D01*
X740782Y57544D01*
X741774Y56552D01*
X742708Y55506D01*
X743583Y54409D01*
X744395Y53265D01*
X745141Y52077D01*
X745820Y50849D01*
X746429Y49585D01*
X746965Y48289D01*
X747429Y46965D01*
X747817Y45617D01*
X748129Y44249D01*
X748364Y42866D01*
X748521Y41472D01*
X748600Y40071D01*
X748600Y38669D01*
X60720Y857559D02*
X60641Y856158D01*
X60484Y854764D01*
X60249Y853381D01*
X59937Y852013D01*
X59549Y850665D01*
X59085Y849341D01*
X58549Y848045D01*
X57940Y846781D01*
X57261Y845553D01*
X56515Y844365D01*
X55703Y843221D01*
X54828Y842124D01*
X53894Y841078D01*
X52902Y840086D01*
X51856Y839152D01*
X50759Y838277D01*
X49615Y837465D01*
X48427Y836719D01*
X47199Y836040D01*
X45935Y835431D01*
X44639Y834895D01*
X43315Y834431D01*
X41967Y834043D01*
X40599Y833731D01*
X39216Y833496D01*
X37822Y833339D01*
X36421Y833260D01*
X35019Y833260D01*
X33618Y833339D01*
X32224Y833496D01*
X30841Y833731D01*
X29473Y834043D01*
X28125Y834431D01*
X26801Y834895D01*
X25505Y835431D01*
X24241Y836040D01*
X23013Y836719D01*
X21825Y837465D01*
X20681Y838277D01*
X19584Y839152D01*
X18538Y840086D01*
X17546Y841078D01*
X16612Y842124D01*
X15737Y843221D01*
X14925Y844365D01*
X14179Y845553D01*
X13500Y846781D01*
X12891Y848045D01*
X12355Y849341D01*
X11891Y850665D01*
X11503Y852013D01*
X11191Y853381D01*
X10956Y854764D01*
X10799Y856158D01*
X10720Y857559D01*
X10720Y858961D01*
X10799Y860362D01*
X10956Y861756D01*
X11191Y863139D01*
X11503Y864507D01*
X11891Y865855D01*
X12355Y867179D01*
X12891Y868475D01*
X13500Y869739D01*
X14179Y870967D01*
X14925Y872155D01*
X15737Y873299D01*
X16612Y874396D01*
X17546Y875442D01*
X18538Y876434D01*
X19584Y877368D01*
X20681Y878243D01*
X21825Y879055D01*
X23013Y879801D01*
X24241Y880480D01*
X25505Y881089D01*
X26801Y881625D01*
X28125Y882089D01*
X29473Y882477D01*
X30841Y882789D01*
X32224Y883024D01*
X33618Y883181D01*
X35019Y883260D01*
X36421Y883260D01*
X37822Y883181D01*
X39216Y883024D01*
X40599Y882789D01*
X41967Y882477D01*
X43315Y882089D01*
X44639Y881625D01*
X45935Y881089D01*
X47199Y880480D01*
X48427Y879801D01*
X49615Y879055D01*
X50759Y878243D01*
X51856Y877368D01*
X52902Y876434D01*
X53894Y875442D01*
X54828Y874396D01*
X55703Y873299D01*
X56515Y872155D01*
X57261Y870967D01*
X57940Y869739D01*
X58549Y868475D01*
X59085Y867179D01*
X59549Y865855D01*
X59937Y864507D01*
X60249Y863139D01*
X60484Y861756D01*
X60641Y860362D01*
X60720Y858961D01*
X60720Y857559D01*
X748600Y858669D02*
X748521Y857268D01*
X748364Y855874D01*
X748129Y854491D01*
X747817Y853123D01*
X747429Y851775D01*
X746965Y850451D01*
X746429Y849155D01*
X745820Y847891D01*
X745141Y846663D01*
X744395Y845475D01*
X743583Y844331D01*
X742708Y843234D01*
X741774Y842188D01*
X740782Y841196D01*
X739736Y840262D01*
X738639Y839387D01*
X737495Y838575D01*
X736307Y837829D01*
X735079Y837150D01*
X733815Y836541D01*
X732519Y836005D01*
X731195Y835541D01*
X729847Y835153D01*
X728479Y834841D01*
X727096Y834606D01*
X725702Y834449D01*
X724301Y834370D01*
X722899Y834370D01*
X721498Y834449D01*
X720104Y834606D01*
X718721Y834841D01*
X717353Y835153D01*
X716005Y835541D01*
X714681Y836005D01*
X713385Y836541D01*
X712121Y837150D01*
X710893Y837829D01*
X709705Y838575D01*
X708561Y839387D01*
X707464Y840262D01*
X706418Y841196D01*
X705426Y842188D01*
X704492Y843234D01*
X703617Y844331D01*
X702805Y845475D01*
X702059Y846663D01*
X701380Y847891D01*
X700771Y849155D01*
X700235Y850451D01*
X699771Y851775D01*
X699383Y853123D01*
X699071Y854491D01*
X698836Y855874D01*
X698679Y857268D01*
X698600Y858669D01*
X698600Y860071D01*
X698679Y861472D01*
X698836Y862866D01*
X699071Y864249D01*
X699383Y865617D01*
X699771Y866965D01*
X700235Y868289D01*
X700771Y869585D01*
X701380Y870849D01*
X702059Y872077D01*
X702805Y873265D01*
X703617Y874409D01*
X704492Y875506D01*
X705426Y876552D01*
X706418Y877544D01*
X707464Y878478D01*
X708561Y879353D01*
X709705Y880165D01*
X710893Y880911D01*
X712121Y881590D01*
X713385Y882199D01*
X714681Y882735D01*
X716005Y883199D01*
X717353Y883587D01*
X718721Y883899D01*
X720104Y884134D01*
X721498Y884291D01*
X722899Y884370D01*
X724301Y884370D01*
X725702Y884291D01*
X727096Y884134D01*
X728479Y883899D01*
X729847Y883587D01*
X731195Y883199D01*
X732519Y882735D01*
X733815Y882199D01*
X735079Y881590D01*
X736307Y880911D01*
X737495Y880165D01*
X738639Y879353D01*
X739736Y878478D01*
X740782Y877544D01*
X741774Y876552D01*
X742708Y875506D01*
X743583Y874409D01*
X744395Y873265D01*
X745141Y872077D01*
X745820Y870849D01*
X746429Y869585D01*
X746965Y868289D01*
X747429Y866965D01*
X747817Y865617D01*
X748129Y864249D01*
X748364Y862866D01*
X748521Y861472D01*
X748600Y860071D01*
X748600Y858669D01*
M02*
