G04 EAGLE Gerber RS-274X export*
G75*
%MOMM*%
%FSLAX34Y34*%
%LPD*%
%INSoldermask Bottom*%
%IPPOS*%
%AMOC8*
5,1,8,0,0,1.08239X$1,22.5*%
G01*
%ADD10C,5.203200*%
%ADD11C,2.753200*%
%ADD12C,2.153200*%
%ADD13P,1.951982X8X112.500000*%
%ADD14P,1.649562X8X112.500000*%
%ADD15P,1.649562X8X22.500000*%
%ADD16C,3.213100*%


D10*
X35720Y38260D03*
X723600Y39370D03*
X35720Y858260D03*
X723600Y859370D03*
D11*
X115350Y722000D03*
X205350Y722000D03*
D12*
X185350Y782000D03*
X135350Y782000D03*
X135350Y657000D03*
X185350Y657000D03*
D11*
X331250Y722000D03*
X421250Y722000D03*
D12*
X401250Y782000D03*
X351250Y782000D03*
X351250Y657000D03*
X401250Y657000D03*
D11*
X534450Y722000D03*
X624450Y722000D03*
D12*
X604450Y782000D03*
X554450Y782000D03*
X554450Y657000D03*
X604450Y657000D03*
D11*
X115350Y531500D03*
X205350Y531500D03*
D12*
X185350Y591500D03*
X135350Y591500D03*
X135350Y466500D03*
X185350Y466500D03*
D11*
X534450Y531500D03*
X624450Y531500D03*
D12*
X604450Y591500D03*
X554450Y591500D03*
X554450Y466500D03*
X604450Y466500D03*
D13*
X261450Y786600D03*
X261450Y837400D03*
D11*
X115350Y341000D03*
X205350Y341000D03*
D12*
X185350Y401000D03*
X135350Y401000D03*
X135350Y276000D03*
X185350Y276000D03*
D11*
X331250Y150500D03*
X421250Y150500D03*
D12*
X401250Y210500D03*
X351250Y210500D03*
X351250Y85500D03*
X401250Y85500D03*
D11*
X115350Y150500D03*
X205350Y150500D03*
D12*
X185350Y210500D03*
X135350Y210500D03*
X135350Y85500D03*
X185350Y85500D03*
D11*
X331250Y531500D03*
X421250Y531500D03*
D12*
X401250Y591500D03*
X351250Y591500D03*
X351250Y466500D03*
X401250Y466500D03*
D11*
X534450Y341000D03*
X624450Y341000D03*
D12*
X604450Y401000D03*
X554450Y401000D03*
X554450Y276000D03*
X604450Y276000D03*
D14*
X261950Y620400D03*
X261950Y722000D03*
D15*
X528650Y429900D03*
X630250Y429900D03*
D14*
X477850Y429900D03*
X477850Y531500D03*
D15*
X325450Y429900D03*
X427050Y429900D03*
D14*
X261950Y48900D03*
X261950Y150500D03*
D15*
X109550Y48900D03*
X211150Y48900D03*
X325450Y239400D03*
X427050Y239400D03*
X528650Y48900D03*
X630250Y48900D03*
X109550Y620400D03*
X211150Y620400D03*
X528650Y239400D03*
X630250Y239400D03*
X325450Y48900D03*
X427050Y48900D03*
D14*
X261950Y239400D03*
X261950Y341000D03*
D15*
X109550Y239400D03*
X211150Y239400D03*
D14*
X477850Y620400D03*
X477850Y722000D03*
D15*
X325450Y620400D03*
X427050Y620400D03*
D14*
X681050Y620400D03*
X681050Y722000D03*
D15*
X528650Y620400D03*
X630250Y620400D03*
D14*
X261950Y429900D03*
X261950Y531500D03*
D15*
X109550Y429900D03*
X211150Y429900D03*
D14*
X681050Y429900D03*
X681050Y531500D03*
D11*
X534450Y150500D03*
X624450Y150500D03*
D12*
X604450Y210500D03*
X554450Y210500D03*
X554450Y85500D03*
X604450Y85500D03*
D11*
X331250Y341000D03*
X421250Y341000D03*
D12*
X401250Y401000D03*
X351250Y401000D03*
X351250Y276000D03*
X401250Y276000D03*
D16*
X410000Y824951D02*
X410000Y855050D01*
X330000Y855050D02*
X330000Y824951D01*
D14*
X690000Y239200D03*
X690000Y340800D03*
M02*
