solid OpenSCAD_Model
  facet normal -1 0 0
    outer loop
      vertex 0 -8.075 13.25
      vertex 0 28.15 51.75
      vertex 0 28.15 13.25
    endloop
  endfacet
  facet normal -1 -0 0
    outer loop
      vertex 0 28.15 51.75
      vertex 0 -8.075 13.25
      vertex 0 -8.075 51.75
    endloop
  endfacet
  facet normal 0.0346131 0.999401 -0
    outer loop
      vertex 14.6293 28.113 13.25
      vertex 14.15 28.1296 51.75
      vertex 14.6293 28.113 51.75
    endloop
  endfacet
  facet normal 0.0346131 0.999401 0
    outer loop
      vertex 14.15 28.1296 51.75
      vertex 14.6293 28.113 13.25
      vertex 14.15 28.1296 13.25
    endloop
  endfacet
  facet normal 0 1 -0
    outer loop
      vertex 14.15 28.15 13.25
      vertex 0 28.15 51.75
      vertex 14.15 28.15 51.75
    endloop
  endfacet
  facet normal 0 1 0
    outer loop
      vertex 0 28.15 51.75
      vertex 14.15 28.15 13.25
      vertex 0 28.15 13.25
    endloop
  endfacet
  facet normal 0.233429 0.972374 -0
    outer loop
      vertex 15.0871 28.0031 13.25
      vertex 14.6293 28.113 51.75
      vertex 15.0871 28.0031 51.75
    endloop
  endfacet
  facet normal 0.233429 0.972374 0
    outer loop
      vertex 14.6293 28.113 51.75
      vertex 15.0871 28.0031 13.25
      vertex 14.6293 28.113 13.25
    endloop
  endfacet
  facet normal 0.382608 0.923911 -0
    outer loop
      vertex 15.522 27.823 13.25
      vertex 15.0871 28.0031 51.75
      vertex 15.522 27.823 51.75
    endloop
  endfacet
  facet normal 0.382608 0.923911 0
    outer loop
      vertex 15.0871 28.0031 51.75
      vertex 15.522 27.823 13.25
      vertex 15.0871 28.0031 13.25
    endloop
  endfacet
  facet normal 0.522532 0.85262 -0
    outer loop
      vertex 15.9234 27.577 13.25
      vertex 15.522 27.823 51.75
      vertex 15.9234 27.577 51.75
    endloop
  endfacet
  facet normal 0.522532 0.85262 0
    outer loop
      vertex 15.522 27.823 51.75
      vertex 15.9234 27.577 13.25
      vertex 15.522 27.823 13.25
    endloop
  endfacet
  facet normal 0.649478 0.76038 -0
    outer loop
      vertex 16.2813 27.2713 13.25
      vertex 15.9234 27.577 51.75
      vertex 16.2813 27.2713 51.75
    endloop
  endfacet
  facet normal 0.649478 0.76038 0
    outer loop
      vertex 15.9234 27.577 51.75
      vertex 16.2813 27.2713 13.25
      vertex 15.9234 27.577 13.25
    endloop
  endfacet
  facet normal 0.760365 0.649496 0
    outer loop
      vertex 16.5871 26.9133 51.75
      vertex 16.2813 27.2713 13.25
      vertex 16.2813 27.2713 51.75
    endloop
  endfacet
  facet normal 0.760365 0.649496 0
    outer loop
      vertex 16.2813 27.2713 13.25
      vertex 16.5871 26.9133 51.75
      vertex 16.5871 26.9133 13.25
    endloop
  endfacet
  facet normal 0.852714 0.522378 0
    outer loop
      vertex 16.833 26.5119 51.75
      vertex 16.5871 26.9133 13.25
      vertex 16.5871 26.9133 51.75
    endloop
  endfacet
  facet normal 0.852714 0.522378 0
    outer loop
      vertex 16.5871 26.9133 13.25
      vertex 16.833 26.5119 51.75
      vertex 16.833 26.5119 13.25
    endloop
  endfacet
  facet normal 0.923836 0.38279 0
    outer loop
      vertex 17.0132 26.077 51.75
      vertex 16.833 26.5119 13.25
      vertex 16.833 26.5119 51.75
    endloop
  endfacet
  facet normal 0.923836 0.38279 0
    outer loop
      vertex 16.833 26.5119 13.25
      vertex 17.0132 26.077 51.75
      vertex 17.0132 26.077 13.25
    endloop
  endfacet
  facet normal 0.972362 0.233477 0
    outer loop
      vertex 17.1231 25.6193 51.75
      vertex 17.0132 26.077 13.25
      vertex 17.0132 26.077 51.75
    endloop
  endfacet
  facet normal 0.972362 0.233477 0
    outer loop
      vertex 17.0132 26.077 13.25
      vertex 17.1231 25.6193 51.75
      vertex 17.1231 25.6193 13.25
    endloop
  endfacet
  facet normal 1 0 0
    outer loop
      vertex 17.16 25.15 51.75
      vertex 17.16 22.875 46.4
      vertex 17.16 25.15 13.25
    endloop
  endfacet
  facet normal 1 0 0
    outer loop
      vertex 17.16 25.15 51.75
      vertex 17.16 22.8239 46.7882
      vertex 17.16 22.875 46.4
    endloop
  endfacet
  facet normal 1 0 0
    outer loop
      vertex 17.16 25.15 51.75
      vertex 17.16 22.674 47.15
      vertex 17.16 22.8239 46.7882
    endloop
  endfacet
  facet normal 1 0 0
    outer loop
      vertex 17.16 25.15 51.75
      vertex 17.16 22.4356 47.4606
      vertex 17.16 22.674 47.15
    endloop
  endfacet
  facet normal 1 0 0
    outer loop
      vertex 17.16 25.15 51.75
      vertex 17.16 22.125 47.699
      vertex 17.16 22.4356 47.4606
    endloop
  endfacet
  facet normal 1 0 0
    outer loop
      vertex 17.16 25.15 51.75
      vertex 17.16 21.7632 47.8489
      vertex 17.16 22.125 47.699
    endloop
  endfacet
  facet normal 1 0 0
    outer loop
      vertex 17.16 25.15 51.75
      vertex 17.16 21.375 47.9
      vertex 17.16 21.7632 47.8489
    endloop
  endfacet
  facet normal 1 -0 0
    outer loop
      vertex 17.16 -8.075 51.75
      vertex 17.16 21.375 47.9
      vertex 17.16 25.15 51.75
    endloop
  endfacet
  facet normal 1 0 0
    outer loop
      vertex 17.16 21.375 47.9
      vertex 17.16 -8.075 51.75
      vertex 17.16 -8.075 47.9
    endloop
  endfacet
  facet normal 1 -0 0
    outer loop
      vertex 17.16 22.875 13.6
      vertex 17.16 25.15 13.25
      vertex 17.16 22.875 46.4
    endloop
  endfacet
  facet normal 1 0 0
    outer loop
      vertex 17.16 25.15 13.25
      vertex 17.16 22.875 13.6
      vertex 17.16 22.8289 13.25
    endloop
  endfacet
  facet normal 0.996923 0.0783858 0
    outer loop
      vertex 17.16 25.15 51.75
      vertex 17.1231 25.6193 13.25
      vertex 17.1231 25.6193 51.75
    endloop
  endfacet
  facet normal 0.996923 0.0783858 0
    outer loop
      vertex 17.1231 25.6193 13.25
      vertex 17.16 25.15 51.75
      vertex 17.16 25.15 13.25
    endloop
  endfacet
  facet normal 1 -0 0
    outer loop
      vertex 14.15 28.1296 51.75
      vertex 14.15 28.15 13.25
      vertex 14.15 28.15 51.75
    endloop
  endfacet
  facet normal 1 0 0
    outer loop
      vertex 14.15 28.15 13.25
      vertex 14.15 28.1296 51.75
      vertex 14.15 28.1296 13.25
    endloop
  endfacet
  facet normal 0 -0.99095 0.13423
    outer loop
      vertex 12.8 14.3535 31.7054
      vertex 17.14 14.4071 32.1011
      vertex 12.8 14.4071 32.1011
    endloop
  endfacet
  facet normal 0 -0.99095 0.13423
    outer loop
      vertex 17.14 14.4071 32.1011
      vertex 12.8 14.3535 31.7054
      vertex 17.14 14.3535 31.7054
    endloop
  endfacet
  facet normal 0 -0.998995 0.0448283
    outer loop
      vertex 12.8 14.4071 32.1011
      vertex 17.14 14.425 32.5
      vertex 12.8 14.425 32.5
    endloop
  endfacet
  facet normal 0 -0.998995 0.0448283
    outer loop
      vertex 17.14 14.425 32.5
      vertex 12.8 14.4071 32.1011
      vertex 17.14 14.4071 32.1011
    endloop
  endfacet
  facet normal 0 -0.998995 -0.0448283
    outer loop
      vertex 12.8 14.425 32.5
      vertex 17.14 14.4071 32.8989
      vertex 12.8 14.4071 32.8989
    endloop
  endfacet
  facet normal 0 -0.998995 -0.0448283
    outer loop
      vertex 17.14 14.4071 32.8989
      vertex 12.8 14.425 32.5
      vertex 17.14 14.425 32.5
    endloop
  endfacet
  facet normal 0 0 -1
    outer loop
      vertex 12.8 -8.075 36.9455
      vertex 17.14 10.1746 36.9455
      vertex 17.14 -8.075 36.9455
    endloop
  endfacet
  facet normal -0 0 -1
    outer loop
      vertex 17.14 10.1746 36.9455
      vertex 12.8 -8.075 36.9455
      vertex 12.8 10.1746 36.9455
    endloop
  endfacet
  facet normal 0 -0.0896551 0.995973
    outer loop
      vertex 12.8 10.5723 28.0903
      vertex 17.14 10.1746 28.0545
      vertex 17.14 10.5723 28.0903
    endloop
  endfacet
  facet normal 0 -0.0896551 0.995973
    outer loop
      vertex 17.14 10.1746 28.0545
      vertex 12.8 10.5723 28.0903
      vertex 12.8 10.1746 28.0545
    endloop
  endfacet
  facet normal -0 0 1
    outer loop
      vertex 12.8 10.1746 28.0545
      vertex 17.14 -8.075 28.0545
      vertex 17.14 10.1746 28.0545
    endloop
  endfacet
  facet normal 0 0 1
    outer loop
      vertex 17.14 -8.075 28.0545
      vertex 12.8 10.1746 28.0545
      vertex 12.8 -8.075 28.0545
    endloop
  endfacet
  facet normal 0 -0.834508 0.550996
    outer loop
      vertex 12.8 13.5751 29.8844
      vertex 17.14 13.7951 30.2176
      vertex 12.8 13.7951 30.2176
    endloop
  endfacet
  facet normal 0 -0.834508 0.550996
    outer loop
      vertex 17.14 13.7951 30.2176
      vertex 12.8 13.5751 29.8844
      vertex 17.14 13.5751 29.8844
    endloop
  endfacet
  facet normal 0 -0.919572 0.392922
    outer loop
      vertex 12.8 13.9843 30.5692
      vertex 17.14 14.1412 30.9364
      vertex 12.8 14.1412 30.9364
    endloop
  endfacet
  facet normal 0 -0.919572 0.392922
    outer loop
      vertex 17.14 14.1412 30.9364
      vertex 12.8 13.9843 30.5692
      vertex 17.14 13.9843 30.5692
    endloop
  endfacet
  facet normal 0 -0.434042 0.900893
    outer loop
      vertex 12.8 12.0837 28.5814
      vertex 17.14 11.724 28.4081
      vertex 17.14 12.0837 28.5814
    endloop
  endfacet
  facet normal 0 -0.434042 0.900893
    outer loop
      vertex 17.14 11.724 28.4081
      vertex 12.8 12.0837 28.5814
      vertex 12.8 11.724 28.4081
    endloop
  endfacet
  facet normal 0 -0.951036 0.30908
    outer loop
      vertex 12.8 14.1412 30.9364
      vertex 17.14 14.2646 31.3161
      vertex 12.8 14.2646 31.3161
    endloop
  endfacet
  facet normal 0 -0.951036 0.30908
    outer loop
      vertex 17.14 14.2646 31.3161
      vertex 12.8 14.1412 30.9364
      vertex 17.14 14.1412 30.9364
    endloop
  endfacet
  facet normal 0 -0.974904 0.222628
    outer loop
      vertex 12.8 14.2646 31.3161
      vertex 17.14 14.3535 31.7054
      vertex 12.8 14.3535 31.7054
    endloop
  endfacet
  facet normal 0 -0.974904 0.222628
    outer loop
      vertex 17.14 14.3535 31.7054
      vertex 12.8 14.2646 31.3161
      vertex 17.14 14.2646 31.3161
    endloop
  endfacet
  facet normal 0 -0.8806 0.473861
    outer loop
      vertex 12.8 13.7951 30.2176
      vertex 17.14 13.9843 30.5692
      vertex 12.8 13.9843 30.5692
    endloop
  endfacet
  facet normal 0 -0.8806 0.473861
    outer loop
      vertex 17.14 13.9843 30.5692
      vertex 12.8 13.7951 30.2176
      vertex 17.14 13.7951 30.2176
    endloop
  endfacet
  facet normal 0 -0.781918 0.623381
    outer loop
      vertex 12.8 13.3262 29.5722
      vertex 17.14 13.5751 29.8844
      vertex 12.8 13.5751 29.8844
    endloop
  endfacet
  facet normal 0 -0.781918 0.623381
    outer loop
      vertex 17.14 13.5751 29.8844
      vertex 12.8 13.3262 29.5722
      vertex 17.14 13.3262 29.5722
    endloop
  endfacet
  facet normal 0 -0.265977 0.963979
    outer loop
      vertex 12.8 11.3501 28.2678
      vertex 17.14 10.9652 28.1616
      vertex 17.14 11.3501 28.2678
    endloop
  endfacet
  facet normal 0 -0.265977 0.963979
    outer loop
      vertex 17.14 10.9652 28.1616
      vertex 12.8 11.3501 28.2678
      vertex 12.8 10.9652 28.1616
    endloop
  endfacet
  facet normal 0 -0.351316 0.936257
    outer loop
      vertex 12.8 11.724 28.4081
      vertex 17.14 11.3501 28.2678
      vertex 17.14 11.724 28.4081
    endloop
  endfacet
  facet normal 0 -0.351316 0.936257
    outer loop
      vertex 17.14 11.3501 28.2678
      vertex 12.8 11.724 28.4081
      vertex 12.8 11.3501 28.2678
    endloop
  endfacet
  facet normal 0 -0.587993 0.808866
    outer loop
      vertex 12.8 12.7495 29.0209
      vertex 17.14 12.4265 28.7861
      vertex 17.14 12.7495 29.0209
    endloop
  endfacet
  facet normal 0 -0.587993 0.808866
    outer loop
      vertex 17.14 12.4265 28.7861
      vertex 12.8 12.7495 29.0209
      vertex 12.8 12.4265 28.7861
    endloop
  endfacet
  facet normal 0 -0.657919 -0.753088
    outer loop
      vertex 12.8 12.7495 35.9791
      vertex 17.14 13.0502 35.7164
      vertex 17.14 12.7495 35.9791
    endloop
  endfacet
  facet normal -0 -0.657919 -0.753088
    outer loop
      vertex 17.14 13.0502 35.7164
      vertex 12.8 12.7495 35.9791
      vertex 12.8 13.0502 35.7164
    endloop
  endfacet
  facet normal 0 -0.0896551 -0.995973
    outer loop
      vertex 12.8 10.1746 36.9455
      vertex 17.14 10.5723 36.9097
      vertex 17.14 10.1746 36.9455
    endloop
  endfacet
  facet normal -0 -0.0896551 -0.995973
    outer loop
      vertex 17.14 10.5723 36.9097
      vertex 12.8 10.1746 36.9455
      vertex 12.8 10.5723 36.9097
    endloop
  endfacet
  facet normal 0 -0.178555 0.98393
    outer loop
      vertex 12.8 10.9652 28.1616
      vertex 17.14 10.5723 28.0903
      vertex 17.14 10.9652 28.1616
    endloop
  endfacet
  facet normal 0 -0.178555 0.98393
    outer loop
      vertex 17.14 10.5723 28.0903
      vertex 12.8 10.9652 28.1616
      vertex 12.8 10.5723 28.0903
    endloop
  endfacet
  facet normal 0 -0.722707 0.691154
    outer loop
      vertex 12.8 13.0502 29.2836
      vertex 17.14 13.3262 29.5722
      vertex 12.8 13.3262 29.5722
    endloop
  endfacet
  facet normal 0 -0.722707 0.691154
    outer loop
      vertex 17.14 13.3262 29.5722
      vertex 12.8 13.0502 29.2836
      vertex 17.14 13.0502 29.2836
    endloop
  endfacet
  facet normal 0 -0.657919 0.753088
    outer loop
      vertex 12.8 13.0502 29.2836
      vertex 17.14 12.7495 29.0209
      vertex 17.14 13.0502 29.2836
    endloop
  endfacet
  facet normal 0 -0.657919 0.753088
    outer loop
      vertex 17.14 12.7495 29.0209
      vertex 12.8 13.0502 29.2836
      vertex 12.8 12.7495 29.0209
    endloop
  endfacet
  facet normal 0 -0.51269 0.858574
    outer loop
      vertex 12.8 12.4265 28.7861
      vertex 17.14 12.0837 28.5814
      vertex 17.14 12.4265 28.7861
    endloop
  endfacet
  facet normal 0 -0.51269 0.858574
    outer loop
      vertex 17.14 12.0837 28.5814
      vertex 12.8 12.4265 28.7861
      vertex 12.8 12.0837 28.5814
    endloop
  endfacet
  facet normal 0 -0.834508 -0.550996
    outer loop
      vertex 12.8 13.7951 34.7824
      vertex 17.14 13.5751 35.1156
      vertex 12.8 13.5751 35.1156
    endloop
  endfacet
  facet normal 0 -0.834508 -0.550996
    outer loop
      vertex 17.14 13.5751 35.1156
      vertex 12.8 13.7951 34.7824
      vertex 17.14 13.7951 34.7824
    endloop
  endfacet
  facet normal 0 -0.722707 -0.691154
    outer loop
      vertex 12.8 13.3262 35.4278
      vertex 17.14 13.0502 35.7164
      vertex 12.8 13.0502 35.7164
    endloop
  endfacet
  facet normal 0 -0.722707 -0.691154
    outer loop
      vertex 17.14 13.0502 35.7164
      vertex 12.8 13.3262 35.4278
      vertex 17.14 13.3262 35.4278
    endloop
  endfacet
  facet normal 0 -0.919572 -0.392922
    outer loop
      vertex 12.8 14.1412 34.0636
      vertex 17.14 13.9843 34.4308
      vertex 12.8 13.9843 34.4308
    endloop
  endfacet
  facet normal 0 -0.919572 -0.392922
    outer loop
      vertex 17.14 13.9843 34.4308
      vertex 12.8 14.1412 34.0636
      vertex 17.14 14.1412 34.0636
    endloop
  endfacet
  facet normal 0 -0.951036 -0.30908
    outer loop
      vertex 12.8 14.2646 33.6839
      vertex 17.14 14.1412 34.0636
      vertex 12.8 14.1412 34.0636
    endloop
  endfacet
  facet normal 0 -0.951036 -0.30908
    outer loop
      vertex 17.14 14.1412 34.0636
      vertex 12.8 14.2646 33.6839
      vertex 17.14 14.2646 33.6839
    endloop
  endfacet
  facet normal 0 -0.99095 -0.13423
    outer loop
      vertex 12.8 14.4071 32.8989
      vertex 17.14 14.3535 33.2946
      vertex 12.8 14.3535 33.2946
    endloop
  endfacet
  facet normal 0 -0.99095 -0.13423
    outer loop
      vertex 17.14 14.3535 33.2946
      vertex 12.8 14.4071 32.8989
      vertex 17.14 14.4071 32.8989
    endloop
  endfacet
  facet normal 0 -0.51269 -0.858574
    outer loop
      vertex 12.8 12.0837 36.4186
      vertex 17.14 12.4265 36.2139
      vertex 17.14 12.0837 36.4186
    endloop
  endfacet
  facet normal -0 -0.51269 -0.858574
    outer loop
      vertex 17.14 12.4265 36.2139
      vertex 12.8 12.0837 36.4186
      vertex 12.8 12.4265 36.2139
    endloop
  endfacet
  facet normal 0 -0.265977 -0.963979
    outer loop
      vertex 12.8 10.9652 36.8384
      vertex 17.14 11.3501 36.7322
      vertex 17.14 10.9652 36.8384
    endloop
  endfacet
  facet normal -0 -0.265977 -0.963979
    outer loop
      vertex 17.14 11.3501 36.7322
      vertex 12.8 10.9652 36.8384
      vertex 12.8 11.3501 36.7322
    endloop
  endfacet
  facet normal 0 -0.351316 -0.936257
    outer loop
      vertex 12.8 11.3501 36.7322
      vertex 17.14 11.724 36.5919
      vertex 17.14 11.3501 36.7322
    endloop
  endfacet
  facet normal -0 -0.351316 -0.936257
    outer loop
      vertex 17.14 11.724 36.5919
      vertex 12.8 11.3501 36.7322
      vertex 12.8 11.724 36.5919
    endloop
  endfacet
  facet normal 0 -0.587993 -0.808866
    outer loop
      vertex 12.8 12.4265 36.2139
      vertex 17.14 12.7495 35.9791
      vertex 17.14 12.4265 36.2139
    endloop
  endfacet
  facet normal -0 -0.587993 -0.808866
    outer loop
      vertex 17.14 12.7495 35.9791
      vertex 12.8 12.4265 36.2139
      vertex 12.8 12.7495 35.9791
    endloop
  endfacet
  facet normal 0 -0.8806 -0.473861
    outer loop
      vertex 12.8 13.9843 34.4308
      vertex 17.14 13.7951 34.7824
      vertex 12.8 13.7951 34.7824
    endloop
  endfacet
  facet normal 0 -0.8806 -0.473861
    outer loop
      vertex 17.14 13.7951 34.7824
      vertex 12.8 13.9843 34.4308
      vertex 17.14 13.9843 34.4308
    endloop
  endfacet
  facet normal 0 -0.434042 -0.900893
    outer loop
      vertex 12.8 11.724 36.5919
      vertex 17.14 12.0837 36.4186
      vertex 17.14 11.724 36.5919
    endloop
  endfacet
  facet normal -0 -0.434042 -0.900893
    outer loop
      vertex 17.14 12.0837 36.4186
      vertex 12.8 11.724 36.5919
      vertex 12.8 12.0837 36.4186
    endloop
  endfacet
  facet normal 0 -0.178555 -0.98393
    outer loop
      vertex 12.8 10.5723 36.9097
      vertex 17.14 10.9652 36.8384
      vertex 17.14 10.5723 36.9097
    endloop
  endfacet
  facet normal -0 -0.178555 -0.98393
    outer loop
      vertex 17.14 10.9652 36.8384
      vertex 12.8 10.5723 36.9097
      vertex 12.8 10.9652 36.8384
    endloop
  endfacet
  facet normal 0 -0.781918 -0.623381
    outer loop
      vertex 12.8 13.5751 35.1156
      vertex 17.14 13.3262 35.4278
      vertex 12.8 13.3262 35.4278
    endloop
  endfacet
  facet normal 0 -0.781918 -0.623381
    outer loop
      vertex 17.14 13.3262 35.4278
      vertex 12.8 13.5751 35.1156
      vertex 17.14 13.5751 35.1156
    endloop
  endfacet
  facet normal 0 -0.974904 -0.222628
    outer loop
      vertex 12.8 14.3535 33.2946
      vertex 17.14 14.2646 33.6839
      vertex 12.8 14.2646 33.6839
    endloop
  endfacet
  facet normal 0 -0.974904 -0.222628
    outer loop
      vertex 17.14 14.2646 33.6839
      vertex 12.8 14.3535 33.2946
      vertex 17.14 14.3535 33.2946
    endloop
  endfacet
  facet normal 0 -0.991437 0.130586
    outer loop
      vertex 17.14 22.8289 13.25
      vertex 17.16 22.875 13.6
      vertex 17.14 22.875 13.6
    endloop
  endfacet
  facet normal 0 -0.991437 0.130586
    outer loop
      vertex 17.16 22.875 13.6
      vertex 17.14 22.8289 13.25
      vertex 17.16 22.8289 13.25
    endloop
  endfacet
  facet normal 0 -1 0
    outer loop
      vertex 17.14 22.875 13.6
      vertex 17.16 22.875 46.4
      vertex 17.14 22.875 46.4
    endloop
  endfacet
  facet normal 0 -1 -0
    outer loop
      vertex 17.16 22.875 46.4
      vertex 17.14 22.875 13.6
      vertex 17.16 22.875 13.6
    endloop
  endfacet
  facet normal 0 -0.382765 -0.923846
    outer loop
      vertex 17.14 21.7632 47.8489
      vertex 17.16 22.125 47.699
      vertex 17.16 21.7632 47.8489
    endloop
  endfacet
  facet normal -0 -0.382765 -0.923846
    outer loop
      vertex 17.16 22.125 47.699
      vertex 17.14 21.7632 47.8489
      vertex 17.14 22.125 47.699
    endloop
  endfacet
  facet normal 0 0 -1
    outer loop
      vertex 17.14 -8.075 47.9
      vertex 17.16 21.375 47.9
      vertex 17.16 -8.075 47.9
    endloop
  endfacet
  facet normal -0 0 -1
    outer loop
      vertex 17.16 21.375 47.9
      vertex 17.14 -8.075 47.9
      vertex 17.14 21.375 47.9
    endloop
  endfacet
  facet normal 1 0 0
    outer loop
      vertex 17.14 22.875 46.4
      vertex 17.14 14.4071 32.8989
      vertex 17.14 14.425 32.5
    endloop
  endfacet
  facet normal 1 0 0
    outer loop
      vertex 17.14 22.875 46.4
      vertex 17.14 14.3535 33.2946
      vertex 17.14 14.4071 32.8989
    endloop
  endfacet
  facet normal 1 0 0
    outer loop
      vertex 17.14 22.875 46.4
      vertex 17.14 14.2646 33.6839
      vertex 17.14 14.3535 33.2946
    endloop
  endfacet
  facet normal 1 0 0
    outer loop
      vertex 17.14 22.875 46.4
      vertex 17.14 14.1412 34.0636
      vertex 17.14 14.2646 33.6839
    endloop
  endfacet
  facet normal 1 0 0
    outer loop
      vertex 17.14 22.875 46.4
      vertex 17.14 13.9843 34.4308
      vertex 17.14 14.1412 34.0636
    endloop
  endfacet
  facet normal 1 0 0
    outer loop
      vertex 17.14 22.875 46.4
      vertex 17.14 13.7951 34.7824
      vertex 17.14 13.9843 34.4308
    endloop
  endfacet
  facet normal 1 0 0
    outer loop
      vertex 17.14 22.875 46.4
      vertex 17.14 13.5751 35.1156
      vertex 17.14 13.7951 34.7824
    endloop
  endfacet
  facet normal 1 0 0
    outer loop
      vertex 17.14 22.875 46.4
      vertex 17.14 13.3262 35.4278
      vertex 17.14 13.5751 35.1156
    endloop
  endfacet
  facet normal 1 0 0
    outer loop
      vertex 17.14 22.875 46.4
      vertex 17.14 13.0502 35.7164
      vertex 17.14 13.3262 35.4278
    endloop
  endfacet
  facet normal 1 0 0
    outer loop
      vertex 17.14 22.875 46.4
      vertex 17.14 12.7495 35.9791
      vertex 17.14 13.0502 35.7164
    endloop
  endfacet
  facet normal 1 0 0
    outer loop
      vertex 17.14 21.375 47.9
      vertex 17.14 12.4265 36.2139
      vertex 17.14 12.7495 35.9791
    endloop
  endfacet
  facet normal 1 0 0
    outer loop
      vertex 17.14 21.375 47.9
      vertex 17.14 12.0837 36.4186
      vertex 17.14 12.4265 36.2139
    endloop
  endfacet
  facet normal 1 0 0
    outer loop
      vertex 17.14 21.375 47.9
      vertex 17.14 11.724 36.5919
      vertex 17.14 12.0837 36.4186
    endloop
  endfacet
  facet normal 1 0 0
    outer loop
      vertex 17.14 21.375 47.9
      vertex 17.14 11.3501 36.7322
      vertex 17.14 11.724 36.5919
    endloop
  endfacet
  facet normal 1 0 0
    outer loop
      vertex 17.14 21.375 47.9
      vertex 17.14 10.9652 36.8384
      vertex 17.14 11.3501 36.7322
    endloop
  endfacet
  facet normal 1 0 0
    outer loop
      vertex 17.14 21.375 47.9
      vertex 17.14 10.5723 36.9097
      vertex 17.14 10.9652 36.8384
    endloop
  endfacet
  facet normal 1 0 0
    outer loop
      vertex 17.14 21.375 47.9
      vertex 17.14 10.1746 36.9455
      vertex 17.14 10.5723 36.9097
    endloop
  endfacet
  facet normal 1 -0 0
    outer loop
      vertex 17.14 -8.075 47.9
      vertex 17.14 10.1746 36.9455
      vertex 17.14 21.375 47.9
    endloop
  endfacet
  facet normal 1 0 0
    outer loop
      vertex 17.14 10.1746 36.9455
      vertex 17.14 -8.075 47.9
      vertex 17.14 -8.075 36.9455
    endloop
  endfacet
  facet normal 1 -0 0
    outer loop
      vertex 17.14 14.4071 32.1011
      vertex 17.14 22.875 13.6
      vertex 17.14 22.875 46.4
    endloop
  endfacet
  facet normal 1 0 0
    outer loop
      vertex 17.14 21.375 47.9
      vertex 17.14 22.875 46.4
      vertex 17.14 22.8239 46.7882
    endloop
  endfacet
  facet normal 1 0 0
    outer loop
      vertex 17.14 21.375 47.9
      vertex 17.14 22.8239 46.7882
      vertex 17.14 22.674 47.15
    endloop
  endfacet
  facet normal 1 0 0
    outer loop
      vertex 17.14 21.375 47.9
      vertex 17.14 22.674 47.15
      vertex 17.14 22.4356 47.4606
    endloop
  endfacet
  facet normal 1 0 0
    outer loop
      vertex 17.14 21.375 47.9
      vertex 17.14 22.4356 47.4606
      vertex 17.14 22.125 47.699
    endloop
  endfacet
  facet normal 1 0 0
    outer loop
      vertex 17.14 21.375 47.9
      vertex 17.14 22.125 47.699
      vertex 17.14 21.7632 47.8489
    endloop
  endfacet
  facet normal 1 0 0
    outer loop
      vertex 17.14 12.7495 35.9791
      vertex 17.14 22.875 46.4
      vertex 17.14 21.375 47.9
    endloop
  endfacet
  facet normal 1 0 0
    outer loop
      vertex 17.14 22.875 46.4
      vertex 17.14 14.425 32.5
      vertex 17.14 14.4071 32.1011
    endloop
  endfacet
  facet normal 1 -0 0
    outer loop
      vertex 17.14 14.3535 31.7054
      vertex 17.14 22.875 13.6
      vertex 17.14 14.4071 32.1011
    endloop
  endfacet
  facet normal 1 -0 0
    outer loop
      vertex 17.14 14.2646 31.3161
      vertex 17.14 22.875 13.6
      vertex 17.14 14.3535 31.7054
    endloop
  endfacet
  facet normal 1 -0 0
    outer loop
      vertex 17.14 14.1412 30.9364
      vertex 17.14 22.875 13.6
      vertex 17.14 14.2646 31.3161
    endloop
  endfacet
  facet normal 1 -0 0
    outer loop
      vertex 17.14 13.9843 30.5692
      vertex 17.14 22.875 13.6
      vertex 17.14 14.1412 30.9364
    endloop
  endfacet
  facet normal 1 -0 0
    outer loop
      vertex 17.14 13.7951 30.2176
      vertex 17.14 22.875 13.6
      vertex 17.14 13.9843 30.5692
    endloop
  endfacet
  facet normal 1 -0 0
    outer loop
      vertex 17.14 13.5751 29.8844
      vertex 17.14 22.875 13.6
      vertex 17.14 13.7951 30.2176
    endloop
  endfacet
  facet normal 1 -0 0
    outer loop
      vertex 17.14 13.3262 29.5722
      vertex 17.14 22.875 13.6
      vertex 17.14 13.5751 29.8844
    endloop
  endfacet
  facet normal 1 -0 0
    outer loop
      vertex 17.14 13.0502 29.2836
      vertex 17.14 22.875 13.6
      vertex 17.14 13.3262 29.5722
    endloop
  endfacet
  facet normal 1 -0 0
    outer loop
      vertex 17.14 12.7495 29.0209
      vertex 17.14 22.875 13.6
      vertex 17.14 13.0502 29.2836
    endloop
  endfacet
  facet normal 1 -0 0
    outer loop
      vertex 17.14 12.4265 28.7861
      vertex 17.14 22.875 13.6
      vertex 17.14 12.7495 29.0209
    endloop
  endfacet
  facet normal 1 -0 0
    outer loop
      vertex 17.14 12.0837 28.5814
      vertex 17.14 22.875 13.6
      vertex 17.14 12.4265 28.7861
    endloop
  endfacet
  facet normal 1 -0 0
    outer loop
      vertex 17.14 11.724 28.4081
      vertex 17.14 22.875 13.6
      vertex 17.14 12.0837 28.5814
    endloop
  endfacet
  facet normal 1 -0 0
    outer loop
      vertex 17.14 11.3501 28.2678
      vertex 17.14 22.875 13.6
      vertex 17.14 11.724 28.4081
    endloop
  endfacet
  facet normal 1 -0 0
    outer loop
      vertex 17.14 10.9652 28.1616
      vertex 17.14 22.875 13.6
      vertex 17.14 11.3501 28.2678
    endloop
  endfacet
  facet normal 1 -0 0
    outer loop
      vertex 17.14 10.5723 28.0903
      vertex 17.14 22.875 13.6
      vertex 17.14 10.9652 28.1616
    endloop
  endfacet
  facet normal 1 -0 0
    outer loop
      vertex 17.14 10.1746 28.0545
      vertex 17.14 22.875 13.6
      vertex 17.14 10.5723 28.0903
    endloop
  endfacet
  facet normal 1 0 0
    outer loop
      vertex 17.14 22.875 13.6
      vertex 17.14 10.1746 28.0545
      vertex 17.14 22.8289 13.25
    endloop
  endfacet
  facet normal 1 0 0
    outer loop
      vertex 17.14 -8.075 13.25
      vertex 17.14 10.1746 28.0545
      vertex 17.14 -8.075 28.0545
    endloop
  endfacet
  facet normal 1 0 0
    outer loop
      vertex 17.14 10.1746 28.0545
      vertex 17.14 -8.075 13.25
      vertex 17.14 22.8289 13.25
    endloop
  endfacet
  facet normal 0 -0.130507 -0.991447
    outer loop
      vertex 17.14 21.375 47.9
      vertex 17.16 21.7632 47.8489
      vertex 17.16 21.375 47.9
    endloop
  endfacet
  facet normal -0 -0.130507 -0.991447
    outer loop
      vertex 17.16 21.7632 47.8489
      vertex 17.14 21.375 47.9
      vertex 17.14 21.7632 47.8489
    endloop
  endfacet
  facet normal 0 -0.923846 -0.382765
    outer loop
      vertex 17.14 22.8239 46.7882
      vertex 17.16 22.674 47.15
      vertex 17.14 22.674 47.15
    endloop
  endfacet
  facet normal 0 -0.923846 -0.382765
    outer loop
      vertex 17.16 22.674 47.15
      vertex 17.14 22.8239 46.7882
      vertex 17.16 22.8239 46.7882
    endloop
  endfacet
  facet normal 0 -0.991447 -0.130507
    outer loop
      vertex 17.14 22.875 46.4
      vertex 17.16 22.8239 46.7882
      vertex 17.14 22.8239 46.7882
    endloop
  endfacet
  facet normal 0 -0.991447 -0.130507
    outer loop
      vertex 17.16 22.8239 46.7882
      vertex 17.14 22.875 46.4
      vertex 17.16 22.875 46.4
    endloop
  endfacet
  facet normal 0 -0.793269 -0.608871
    outer loop
      vertex 17.14 22.674 47.15
      vertex 17.16 22.4356 47.4606
      vertex 17.14 22.4356 47.4606
    endloop
  endfacet
  facet normal 0 -0.793269 -0.608871
    outer loop
      vertex 17.16 22.4356 47.4606
      vertex 17.14 22.674 47.15
      vertex 17.16 22.674 47.15
    endloop
  endfacet
  facet normal 0 -0.608871 -0.793269
    outer loop
      vertex 17.14 22.125 47.699
      vertex 17.16 22.4356 47.4606
      vertex 17.16 22.125 47.699
    endloop
  endfacet
  facet normal -0 -0.608871 -0.793269
    outer loop
      vertex 17.16 22.4356 47.4606
      vertex 17.14 22.125 47.699
      vertex 17.14 22.4356 47.4606
    endloop
  endfacet
  facet normal 0 -1 0
    outer loop
      vertex 9.4 18.025 40.55
      vertex 4.6 18.025 41.75
      vertex 7 18.025 40.55
    endloop
  endfacet
  facet normal 0 -1 0
    outer loop
      vertex 4.6 18.025 41.75
      vertex 7 18.025 24.45
      vertex 7 18.025 40.55
    endloop
  endfacet
  facet normal 0 -1 -0
    outer loop
      vertex 7 18.025 24.45
      vertex 4.6 18.025 23.25
      vertex 9.4 18.025 24.45
    endloop
  endfacet
  facet normal 0 -1 0
    outer loop
      vertex 4.6 18.025 23.25
      vertex 7 18.025 24.45
      vertex 4.6 18.025 41.75
    endloop
  endfacet
  facet normal 0 -1 0
    outer loop
      vertex 4.6 18.025 41.75
      vertex 9.4 18.025 40.55
      vertex 12.8 18.025 41.75
    endloop
  endfacet
  facet normal 0 -1 0
    outer loop
      vertex 9.4 18.025 24.45
      vertex 12.8 18.025 41.75
      vertex 9.4 18.025 40.55
    endloop
  endfacet
  facet normal 0 -1 0
    outer loop
      vertex 9.4 18.025 24.45
      vertex 12.8 18.025 23.25
      vertex 12.8 18.025 41.75
    endloop
  endfacet
  facet normal 0 -1 0
    outer loop
      vertex 12.8 18.025 23.25
      vertex 9.4 18.025 24.45
      vertex 4.6 18.025 23.25
    endloop
  endfacet
  facet normal -1 0 0
    outer loop
      vertex 12.8 18.025 23.25
      vertex 12.8 14.425 32.5
      vertex 12.8 18.025 41.75
    endloop
  endfacet
  facet normal -1 0 0
    outer loop
      vertex 12.8 18.025 23.25
      vertex 12.8 14.4071 32.1011
      vertex 12.8 14.425 32.5
    endloop
  endfacet
  facet normal -1 0 0
    outer loop
      vertex 12.8 18.025 23.25
      vertex 12.8 14.3535 31.7054
      vertex 12.8 14.4071 32.1011
    endloop
  endfacet
  facet normal -1 0 0
    outer loop
      vertex 12.8 18.025 23.25
      vertex 12.8 14.2646 31.3161
      vertex 12.8 14.3535 31.7054
    endloop
  endfacet
  facet normal -1 0 0
    outer loop
      vertex 12.8 18.025 23.25
      vertex 12.8 14.1412 30.9364
      vertex 12.8 14.2646 31.3161
    endloop
  endfacet
  facet normal -1 0 0
    outer loop
      vertex 12.8 18.025 23.25
      vertex 12.8 13.9843 30.5692
      vertex 12.8 14.1412 30.9364
    endloop
  endfacet
  facet normal -1 0 0
    outer loop
      vertex 12.8 18.025 23.25
      vertex 12.8 13.7951 30.2176
      vertex 12.8 13.9843 30.5692
    endloop
  endfacet
  facet normal -1 0 0
    outer loop
      vertex 12.8 18.025 23.25
      vertex 12.8 13.5751 29.8844
      vertex 12.8 13.7951 30.2176
    endloop
  endfacet
  facet normal -1 0 0
    outer loop
      vertex 12.8 18.025 23.25
      vertex 12.8 13.3262 29.5722
      vertex 12.8 13.5751 29.8844
    endloop
  endfacet
  facet normal -1 0 0
    outer loop
      vertex 12.8 18.025 23.25
      vertex 12.8 13.0502 29.2836
      vertex 12.8 13.3262 29.5722
    endloop
  endfacet
  facet normal -1 0 0
    outer loop
      vertex 12.8 18.025 23.25
      vertex 12.8 12.7495 29.0209
      vertex 12.8 13.0502 29.2836
    endloop
  endfacet
  facet normal -1 0 0
    outer loop
      vertex 12.8 18.025 23.25
      vertex 12.8 12.4265 28.7861
      vertex 12.8 12.7495 29.0209
    endloop
  endfacet
  facet normal -1 0 0
    outer loop
      vertex 12.8 18.025 23.25
      vertex 12.8 12.0837 28.5814
      vertex 12.8 12.4265 28.7861
    endloop
  endfacet
  facet normal -1 0 0
    outer loop
      vertex 12.8 18.025 23.25
      vertex 12.8 11.724 28.4081
      vertex 12.8 12.0837 28.5814
    endloop
  endfacet
  facet normal -1 0 0
    outer loop
      vertex 12.8 18.025 23.25
      vertex 12.8 11.3501 28.2678
      vertex 12.8 11.724 28.4081
    endloop
  endfacet
  facet normal -1 0 0
    outer loop
      vertex 12.8 18.025 23.25
      vertex 12.8 10.9652 28.1616
      vertex 12.8 11.3501 28.2678
    endloop
  endfacet
  facet normal -1 0 0
    outer loop
      vertex 12.8 18.025 23.25
      vertex 12.8 10.5723 28.0903
      vertex 12.8 10.9652 28.1616
    endloop
  endfacet
  facet normal -1 0 0
    outer loop
      vertex 12.8 18.025 23.25
      vertex 12.8 10.1746 28.0545
      vertex 12.8 10.5723 28.0903
    endloop
  endfacet
  facet normal -1 0 0
    outer loop
      vertex 12.8 -8.075 23.25
      vertex 12.8 10.1746 28.0545
      vertex 12.8 18.025 23.25
    endloop
  endfacet
  facet normal -1 -0 0
    outer loop
      vertex 12.8 10.1746 28.0545
      vertex 12.8 -8.075 23.25
      vertex 12.8 -8.075 28.0545
    endloop
  endfacet
  facet normal -1 0 0
    outer loop
      vertex 12.8 14.4071 32.8989
      vertex 12.8 18.025 41.75
      vertex 12.8 14.425 32.5
    endloop
  endfacet
  facet normal -1 0 0
    outer loop
      vertex 12.8 14.3535 33.2946
      vertex 12.8 18.025 41.75
      vertex 12.8 14.4071 32.8989
    endloop
  endfacet
  facet normal -1 0 0
    outer loop
      vertex 12.8 14.2646 33.6839
      vertex 12.8 18.025 41.75
      vertex 12.8 14.3535 33.2946
    endloop
  endfacet
  facet normal -1 0 0
    outer loop
      vertex 12.8 14.1412 34.0636
      vertex 12.8 18.025 41.75
      vertex 12.8 14.2646 33.6839
    endloop
  endfacet
  facet normal -1 0 0
    outer loop
      vertex 12.8 13.9843 34.4308
      vertex 12.8 18.025 41.75
      vertex 12.8 14.1412 34.0636
    endloop
  endfacet
  facet normal -1 0 0
    outer loop
      vertex 12.8 13.7951 34.7824
      vertex 12.8 18.025 41.75
      vertex 12.8 13.9843 34.4308
    endloop
  endfacet
  facet normal -1 0 0
    outer loop
      vertex 12.8 13.5751 35.1156
      vertex 12.8 18.025 41.75
      vertex 12.8 13.7951 34.7824
    endloop
  endfacet
  facet normal -1 0 0
    outer loop
      vertex 12.8 13.3262 35.4278
      vertex 12.8 18.025 41.75
      vertex 12.8 13.5751 35.1156
    endloop
  endfacet
  facet normal -1 0 0
    outer loop
      vertex 12.8 13.0502 35.7164
      vertex 12.8 18.025 41.75
      vertex 12.8 13.3262 35.4278
    endloop
  endfacet
  facet normal -1 0 0
    outer loop
      vertex 12.8 12.7495 35.9791
      vertex 12.8 18.025 41.75
      vertex 12.8 13.0502 35.7164
    endloop
  endfacet
  facet normal -1 0 0
    outer loop
      vertex 12.8 12.4265 36.2139
      vertex 12.8 18.025 41.75
      vertex 12.8 12.7495 35.9791
    endloop
  endfacet
  facet normal -1 0 0
    outer loop
      vertex 12.8 12.0837 36.4186
      vertex 12.8 18.025 41.75
      vertex 12.8 12.4265 36.2139
    endloop
  endfacet
  facet normal -1 0 0
    outer loop
      vertex 12.8 11.724 36.5919
      vertex 12.8 18.025 41.75
      vertex 12.8 12.0837 36.4186
    endloop
  endfacet
  facet normal -1 0 0
    outer loop
      vertex 12.8 11.3501 36.7322
      vertex 12.8 18.025 41.75
      vertex 12.8 11.724 36.5919
    endloop
  endfacet
  facet normal -1 0 0
    outer loop
      vertex 12.8 10.9652 36.8384
      vertex 12.8 18.025 41.75
      vertex 12.8 11.3501 36.7322
    endloop
  endfacet
  facet normal -1 0 0
    outer loop
      vertex 12.8 10.5723 36.9097
      vertex 12.8 18.025 41.75
      vertex 12.8 10.9652 36.8384
    endloop
  endfacet
  facet normal -1 0 0
    outer loop
      vertex 12.8 10.1746 36.9455
      vertex 12.8 18.025 41.75
      vertex 12.8 10.5723 36.9097
    endloop
  endfacet
  facet normal -1 0 0
    outer loop
      vertex 12.8 -8.075 41.75
      vertex 12.8 10.1746 36.9455
      vertex 12.8 -8.075 36.9455
    endloop
  endfacet
  facet normal -1 0 0
    outer loop
      vertex 12.8 10.1746 36.9455
      vertex 12.8 -8.075 41.75
      vertex 12.8 18.025 41.75
    endloop
  endfacet
  facet normal 1 -0 0
    outer loop
      vertex 4.6 -8.075 41.75
      vertex 4.6 18.025 23.25
      vertex 4.6 18.025 41.75
    endloop
  endfacet
  facet normal 1 0 0
    outer loop
      vertex 4.6 18.025 23.25
      vertex 4.6 -8.075 41.75
      vertex 4.6 -8.075 23.25
    endloop
  endfacet
  facet normal 0 0 -1
    outer loop
      vertex 4.6 -8.075 41.75
      vertex 12.8 18.025 41.75
      vertex 12.8 -8.075 41.75
    endloop
  endfacet
  facet normal -0 0 -1
    outer loop
      vertex 12.8 18.025 41.75
      vertex 4.6 -8.075 41.75
      vertex 4.6 18.025 41.75
    endloop
  endfacet
  facet normal -0 0 1
    outer loop
      vertex 4.6 18.025 23.25
      vertex 12.8 -8.075 23.25
      vertex 12.8 18.025 23.25
    endloop
  endfacet
  facet normal 0 0 1
    outer loop
      vertex 12.8 -8.075 23.25
      vertex 4.6 18.025 23.25
      vertex 4.6 -8.075 23.25
    endloop
  endfacet
  facet normal 1 -0 0
    outer loop
      vertex 9.4 -8.075 40.55
      vertex 9.4 -3.775 24.45
      vertex 9.4 -3.775 40.55
    endloop
  endfacet
  facet normal 1 0 0
    outer loop
      vertex 9.4 -3.775 24.45
      vertex 9.4 -8.075 40.55
      vertex 9.4 -8.075 24.45
    endloop
  endfacet
  facet normal 1 -0 0
    outer loop
      vertex 9.4 4.025 40.55
      vertex 9.4 18.025 24.45
      vertex 9.4 18.025 40.55
    endloop
  endfacet
  facet normal 1 0 0
    outer loop
      vertex 9.4 18.025 24.45
      vertex 9.4 4.025 40.55
      vertex 9.4 4.025 24.45
    endloop
  endfacet
  facet normal 0 0 -1
    outer loop
      vertex 7 -8.075 24.45
      vertex 9.4 -3.775 24.45
      vertex 9.4 -8.075 24.45
    endloop
  endfacet
  facet normal -0 0 -1
    outer loop
      vertex 9.4 -3.775 24.45
      vertex 7 -8.075 24.45
      vertex 9.4 4.025 24.45
    endloop
  endfacet
  facet normal 0 0 -1
    outer loop
      vertex 7 18.025 24.45
      vertex 9.4 4.025 24.45
      vertex 7 -8.075 24.45
    endloop
  endfacet
  facet normal 0 0 -1
    outer loop
      vertex 9.4 4.025 24.45
      vertex 7 18.025 24.45
      vertex 9.4 18.025 24.45
    endloop
  endfacet
  facet normal 0 0 -1
    outer loop
      vertex 9.4 4.025 24.45
      vertex 10.8 0.225 24.45
      vertex 9.4 -3.775 24.45
    endloop
  endfacet
  facet normal 0 0 -1
    outer loop
      vertex 10.8 0.225 24.45
      vertex 9.4 4.025 24.45
      vertex 10.8 1.42501 24.45
    endloop
  endfacet
  facet normal -1 0 0
    outer loop
      vertex 7 -8.075 24.45
      vertex 7 18.025 40.55
      vertex 7 18.025 24.45
    endloop
  endfacet
  facet normal -1 -0 0
    outer loop
      vertex 7 18.025 40.55
      vertex 7 -8.075 24.45
      vertex 7 -8.075 40.55
    endloop
  endfacet
  facet normal -0 0 1
    outer loop
      vertex 7 18.025 40.55
      vertex 9.4 4.025 40.55
      vertex 9.4 18.025 40.55
    endloop
  endfacet
  facet normal 0 0 1
    outer loop
      vertex 7 -8.075 40.55
      vertex 9.4 4.025 40.55
      vertex 7 18.025 40.55
    endloop
  endfacet
  facet normal 0 0 1
    outer loop
      vertex 9.4 4.025 40.55
      vertex 7 -8.075 40.55
      vertex 9.4 -3.775 40.55
    endloop
  endfacet
  facet normal 0 0 1
    outer loop
      vertex 9.4 -3.775 40.55
      vertex 7 -8.075 40.55
      vertex 9.4 -8.075 40.55
    endloop
  endfacet
  facet normal 0 0 1
    outer loop
      vertex 9.4 4.025 40.55
      vertex 10.8 0.225 40.55
      vertex 10.8 1.42501 40.55
    endloop
  endfacet
  facet normal 0 0 1
    outer loop
      vertex 10.8 0.225 40.55
      vertex 9.4 4.025 40.55
      vertex 9.4 -3.775 40.55
    endloop
  endfacet
  facet normal 0.943858 -0.33035 0
    outer loop
      vertex 9.4 -3.775 40.55
      vertex 10.8 0.225 24.45
      vertex 10.8 0.225 40.55
    endloop
  endfacet
  facet normal 0.943858 -0.33035 0
    outer loop
      vertex 10.8 0.225 24.45
      vertex 9.4 -3.775 40.55
      vertex 9.4 -3.775 24.45
    endloop
  endfacet
  facet normal 0.88047 0.474101 0
    outer loop
      vertex 10.8 1.42501 40.55
      vertex 9.4 4.025 24.45
      vertex 9.4 4.025 40.55
    endloop
  endfacet
  facet normal 0.88047 0.474101 0
    outer loop
      vertex 9.4 4.025 24.45
      vertex 10.8 1.42501 40.55
      vertex 10.8 1.42501 24.45
    endloop
  endfacet
  facet normal 1 -0 0
    outer loop
      vertex 10.8 0.225 40.55
      vertex 10.8 1.42501 24.45
      vertex 10.8 1.42501 40.55
    endloop
  endfacet
  facet normal 1 0 0
    outer loop
      vertex 10.8 1.42501 24.45
      vertex 10.8 0.225 40.55
      vertex 10.8 0.225 24.45
    endloop
  endfacet
  facet normal 0 -1 0
    outer loop
      vertex 0 -8.075 51.75
      vertex 17.14 -8.075 47.9
      vertex 17.16 -8.075 51.75
    endloop
  endfacet
  facet normal 0 -1 0
    outer loop
      vertex 0 -8.075 51.75
      vertex 4.6 -8.075 41.75
      vertex 17.14 -8.075 47.9
    endloop
  endfacet
  facet normal 0 -1 0
    outer loop
      vertex 0 -8.075 51.75
      vertex 4.6 -8.075 23.25
      vertex 4.6 -8.075 41.75
    endloop
  endfacet
  facet normal 0 -1 0
    outer loop
      vertex 17.14 -8.075 13.25
      vertex 4.6 -8.075 23.25
      vertex 0 -8.075 13.25
    endloop
  endfacet
  facet normal 0 -1 0
    outer loop
      vertex 0 -8.075 13.25
      vertex 4.6 -8.075 23.25
      vertex 0 -8.075 51.75
    endloop
  endfacet
  facet normal 0 -1 -0
    outer loop
      vertex 17.16 -8.075 51.75
      vertex 17.14 -8.075 47.9
      vertex 17.16 -8.075 47.9
    endloop
  endfacet
  facet normal 0 -1 0
    outer loop
      vertex 12.8 -8.075 41.75
      vertex 17.14 -8.075 47.9
      vertex 4.6 -8.075 41.75
    endloop
  endfacet
  facet normal 0 -1 0
    outer loop
      vertex 17.14 -8.075 36.9455
      vertex 12.8 -8.075 41.75
      vertex 12.8 -8.075 36.9455
    endloop
  endfacet
  facet normal 0 -1 0
    outer loop
      vertex 12.8 -8.075 41.75
      vertex 17.14 -8.075 36.9455
      vertex 17.14 -8.075 47.9
    endloop
  endfacet
  facet normal 0 -1 0
    outer loop
      vertex 12.8 -8.075 23.25
      vertex 17.14 -8.075 28.0545
      vertex 12.8 -8.075 28.0545
    endloop
  endfacet
  facet normal 0 -1 0
    outer loop
      vertex 12.8 -8.075 23.25
      vertex 17.14 -8.075 13.25
      vertex 17.14 -8.075 28.0545
    endloop
  endfacet
  facet normal 0 -1 0
    outer loop
      vertex 4.6 -8.075 23.25
      vertex 17.14 -8.075 13.25
      vertex 12.8 -8.075 23.25
    endloop
  endfacet
  facet normal 0 -1 0
    outer loop
      vertex 7 -8.075 24.45
      vertex 9.4 -8.075 40.55
      vertex 7 -8.075 40.55
    endloop
  endfacet
  facet normal 0 -1 -0
    outer loop
      vertex 9.4 -8.075 40.55
      vertex 7 -8.075 24.45
      vertex 9.4 -8.075 24.45
    endloop
  endfacet
  facet normal 0 0 1
    outer loop
      vertex 14.15 28.15 51.75
      vertex 0 28.15 51.75
      vertex 14.15 28.1296 51.75
    endloop
  endfacet
  facet normal 0 0 1
    outer loop
      vertex 14.15 28.1296 51.75
      vertex 17.16 25.15 51.75
      vertex 17.1231 25.6193 51.75
    endloop
  endfacet
  facet normal 0 0 1
    outer loop
      vertex 14.15 28.1296 51.75
      vertex 17.1231 25.6193 51.75
      vertex 17.0132 26.077 51.75
    endloop
  endfacet
  facet normal 0 0 1
    outer loop
      vertex 14.15 28.1296 51.75
      vertex 17.0132 26.077 51.75
      vertex 16.833 26.5119 51.75
    endloop
  endfacet
  facet normal 0 0 1
    outer loop
      vertex 14.15 28.1296 51.75
      vertex 16.833 26.5119 51.75
      vertex 16.5871 26.9133 51.75
    endloop
  endfacet
  facet normal 0 0 1
    outer loop
      vertex 14.15 28.1296 51.75
      vertex 16.5871 26.9133 51.75
      vertex 16.2813 27.2713 51.75
    endloop
  endfacet
  facet normal 0 0 1
    outer loop
      vertex 14.15 28.1296 51.75
      vertex 16.2813 27.2713 51.75
      vertex 15.9234 27.577 51.75
    endloop
  endfacet
  facet normal 0 0 1
    outer loop
      vertex 14.15 28.1296 51.75
      vertex 15.9234 27.577 51.75
      vertex 15.522 27.823 51.75
    endloop
  endfacet
  facet normal 0 0 1
    outer loop
      vertex 14.15 28.1296 51.75
      vertex 15.522 27.823 51.75
      vertex 15.0871 28.0031 51.75
    endloop
  endfacet
  facet normal 0 0 1
    outer loop
      vertex 14.15 28.1296 51.75
      vertex 15.0871 28.0031 51.75
      vertex 14.6293 28.113 51.75
    endloop
  endfacet
  facet normal 0 0 1
    outer loop
      vertex 17.16 25.15 51.75
      vertex 14.15 28.1296 51.75
      vertex 0 28.15 51.75
    endloop
  endfacet
  facet normal 0 0 1
    outer loop
      vertex 17.16 25.15 51.75
      vertex 0 28.15 51.75
      vertex 0 -8.075 51.75
    endloop
  endfacet
  facet normal 0 0 1
    outer loop
      vertex 17.16 25.15 51.75
      vertex 0 -8.075 51.75
      vertex 17.16 -8.075 51.75
    endloop
  endfacet
  facet normal 0 0 -1
    outer loop
      vertex 0 -8.075 13.25
      vertex 17.14 22.8289 13.25
      vertex 17.14 -8.075 13.25
    endloop
  endfacet
  facet normal 0 0 -1
    outer loop
      vertex 0 28.15 13.25
      vertex 17.14 22.8289 13.25
      vertex 0 -8.075 13.25
    endloop
  endfacet
  facet normal -0 -0 -1
    outer loop
      vertex 14.15 28.1296 13.25
      vertex 17.14 22.8289 13.25
      vertex 0 28.15 13.25
    endloop
  endfacet
  facet normal 0 0 -1
    outer loop
      vertex 17.14 22.8289 13.25
      vertex 14.15 28.1296 13.25
      vertex 17.1231 25.6193 13.25
    endloop
  endfacet
  facet normal 0 0 -1
    outer loop
      vertex 17.1231 25.6193 13.25
      vertex 14.15 28.1296 13.25
      vertex 17.0132 26.077 13.25
    endloop
  endfacet
  facet normal 0 0 -1
    outer loop
      vertex 17.0132 26.077 13.25
      vertex 14.15 28.1296 13.25
      vertex 16.833 26.5119 13.25
    endloop
  endfacet
  facet normal 0 0 -1
    outer loop
      vertex 16.2813 27.2713 13.25
      vertex 14.15 28.1296 13.25
      vertex 15.9234 27.577 13.25
    endloop
  endfacet
  facet normal 0 0 -1
    outer loop
      vertex 15.9234 27.577 13.25
      vertex 14.15 28.1296 13.25
      vertex 15.522 27.823 13.25
    endloop
  endfacet
  facet normal 0 0 -1
    outer loop
      vertex 15.522 27.823 13.25
      vertex 14.15 28.1296 13.25
      vertex 15.0871 28.0031 13.25
    endloop
  endfacet
  facet normal 0 0 -1
    outer loop
      vertex 15.0871 28.0031 13.25
      vertex 14.15 28.1296 13.25
      vertex 14.6293 28.113 13.25
    endloop
  endfacet
  facet normal 0 0 -1
    outer loop
      vertex 16.5871 26.9133 13.25
      vertex 14.15 28.1296 13.25
      vertex 16.2813 27.2713 13.25
    endloop
  endfacet
  facet normal 0 0 -1
    outer loop
      vertex 16.833 26.5119 13.25
      vertex 14.15 28.1296 13.25
      vertex 16.5871 26.9133 13.25
    endloop
  endfacet
  facet normal 0 0 -1
    outer loop
      vertex 14.15 28.1296 13.25
      vertex 0 28.15 13.25
      vertex 14.15 28.15 13.25
    endloop
  endfacet
  facet normal 0 0 -1
    outer loop
      vertex 17.14 22.8289 13.25
      vertex 17.16 25.15 13.25
      vertex 17.16 22.8289 13.25
    endloop
  endfacet
  facet normal -0 0 -1
    outer loop
      vertex 17.16 25.15 13.25
      vertex 17.14 22.8289 13.25
      vertex 17.1231 25.6193 13.25
    endloop
  endfacet
endsolid OpenSCAD_Model
